<?xml version="1.0" encoding="utf-8"?>

<svg version="1.1" id="Héraldique_meuble_Palme" xmlns="http://www.w3.org/2000/svg" xmlns:xlink="http://www.w3.org/1999/xlink"
	 x="0px" y="0px" width="200px" height="500px" viewBox="0 0 200 500" enable-background="new 0 0 200 500" xml:space="preserve">
<path fill="#5AB532" d="M164.083,268.084c-0.851,2.476-3.021,6.074-4.822,8c-1.803,1.925-3.69,4.287-4.196,5.25
	c-1.455,2.769-14.414,15.813-16.738,16.85c-1.155,0.516-4.178,2.229-6.717,3.81c-2.537,1.58-6.137,3.203-8,3.607
	c-3.207,0.696-4.836,1.969-4.871,3.806c-0.008,0.452,2.572,0.506,5.736,0.12c4.762-0.582,7.096-1.646,13.598-6.211
	c4.316-3.029,11.367-9.046,15.669-13.369c4.301-4.324,8.081-7.861,8.401-7.861c1.353,0,0.418,9.73-1.601,16.681
	c-3.099,10.666-8.052,15.947-20.546,21.903c-6.729,3.208-11.76,4.854-17.295,5.66c-7.625,1.111-7.818,1.209-8.285,4.197
	c-0.686,4.387,0.365,4.938,7.138,3.745c7.761-1.367,20.025-8.452,27.192-15.709c2.975-3.013,5.762-5.478,6.193-5.478
	c2.688,0-1.691,21.79-5.301,26.38c-1.023,1.302-3.562,3.169-5.64,4.148c-2.076,0.98-5.36,2.777-7.297,3.994
	c-3.996,2.511-15.871,5.477-21.929,5.477c-2.229,0-4.051,0.413-4.051,0.919c0,0.505-0.283,1.653-0.629,2.554
	c-0.561,1.462,0.207,1.563,7.25,0.951c8.328-0.724,14.973-3.598,25.629-11.082l4.75-3.338v3.529c0,7.481-5.147,15.36-13.837,21.181
	c-8.34,5.585-10.55,6.286-19.804,6.286c-8.107,0-8.445,0.093-9.385,2.564c-1.344,3.531-1.418,3.438,2.773,3.416
	c4.914-0.026,19.584-5.234,23.801-8.451c5.865-4.475,7.565-3.084,5.465,4.471c-1.27,4.563-10.279,13.952-16.016,16.69
	c-2.476,1.181-8.093,2.746-12.482,3.479c-8.984,1.497-7.723-0.117-10.411,13.33c-0.55,2.75-1.505,11.75-2.125,20
	c-0.619,8.25-1.546,18.89-2.061,23.643c-0.641,5.922-0.589,10.172,0.165,13.5c1.567,6.919,0.235,9.658-6.297,12.953
	c-2.909,1.467-5.514,2.961-5.789,3.319c-0.275,0.358-2.571,2.325-5.103,4.368c-7.952,6.42-7.897,6.53-7.897-15.745
	c0-25.78,3.217-51.616,9.014-72.39l2.052-7.353l-5.783-6.441c-13.312-14.829-14.807-18.022-16.464-35.174
	c-0.824-8.529-0.804-12.287,0.084-15.25c0.648-2.162,1.577-3.932,2.065-3.932c0.955,0,6.033,10.122,6.033,12.025
	c0,1.896,7.068,14.153,10.914,18.926c1.972,2.448,5.028,6.469,6.791,8.935l3.205,4.481l1.045-2.749
	c1.666-4.382,1.374-5.037-5.016-11.236c-6.815-6.613-13.531-17.004-18.668-28.882c-2.9-6.705-3.546-9.563-3.995-17.666
	c-0.638-11.521,0.055-15.635,2.315-13.759c1.584,1.314,5.41,9.031,5.41,10.913c0,2.67,17.098,26.233,22.074,30.42
	c3.743,3.149,4.896,2.516,5.517-3.037c0.414-3.705,0.171-4.086-5.658-8.871c-12.289-10.089-18.689-17.021-22.356-24.217
	c-3.238-6.354-3.569-7.762-3.505-14.9c0.039-4.336,0.416-8.767,0.837-9.846c0.731-1.869,0.841-1.846,2.322,0.5
	c0.854,1.354,2.139,4.139,2.854,6.188c0.715,2.049,2.226,4.645,3.358,5.768c3.057,3.033,15.62,13.006,16.391,13.011
	c0.367,0.003,2.043,1.296,3.726,2.872c1.682,1.577,4.045,3.182,5.25,3.563c1.96,0.622,2.191,0.339,2.191-2.688
	c0-2.947-0.546-3.682-4.25-5.71c-8.131-4.45-23.386-19.96-28.957-29.438l-4.054-6.897l0.494-8.663
	c0.271-4.765,1.037-9.679,1.702-10.921c1.156-2.159,1.384-1.962,5.266,4.563c2.759,4.635,8.259,10.913,17.179,19.611
	c16.286,15.882,16.566,16.063,16.788,10.741c0.092-2.22,0.202-4.652,0.25-5.406c0.077-1.281-2.709-3.854-12.063-11.129
	c-6.266-4.876-22.339-20.746-24.425-24.116c-3.856-6.23-6.111-15.392-5.426-22.038c0.349-3.384,1.219-6.951,1.933-7.929
	c1.191-1.629,1.504-1.45,3.79,2.153c1.371,2.161,3.653,5.954,5.072,8.43s6.027,8.101,10.24,12.5
	c4.213,4.399,9.457,9.922,11.652,12.271c3.848,4.117,9.508,7.863,10.453,6.92c0.251-0.252,0.156-2.647-0.211-5.324
	c-0.611-4.453-1.104-5.164-5.781-8.366c-2.813-1.926-8.047-6.433-11.632-10.018c-7.779-7.775-21.06-25.805-23.33-31.667
	c-3.637-9.394-3.016-24.11,0.852-20.184c0.74,0.752,1.934,2.493,2.652,3.869c0.718,1.376,3.94,6.405,7.158,11.176
	c4.807,7.127,7.836,10.248,16.982,17.498c6.122,4.854,11.477,8.975,11.899,9.157c0.423,0.185,0.769-1.919,0.769-4.673
	c0-4.898-0.08-5.032-3.75-6.236c-4.438-1.458-9.96-4.852-12.75-7.837c-1.1-1.178-3.256-3.345-4.791-4.815
	c-3.803-3.646-13.383-18.35-17.025-26.134c-2.407-5.145-2.993-7.753-3.035-13.507c-0.053-7.433,1.728-15.631,3.396-15.631
	c1.232,0,8.911,12.084,11.438,18c4.615,10.805,13.885,22.049,22.269,27.009l3.25,1.924v-5.958c0-6.313,0.117-6.086-8.059-15.414
	c-1.957-2.233-4.432-5.234-5.5-6.67c-11.146-14.978-14.751-19.758-16.514-21.891c-6.463-7.822-11.099-29.923-6.83-32.561
	c0.519-0.321,1.571,0.911,2.336,2.737c1.479,3.529,9.876,13.91,19.518,24.127c3.215,3.407,6.776,7.32,7.914,8.695l2.068,2.5
	l0.033-3.25c0.019-1.788-0.383-3.25-0.893-3.25c-0.51,0-1.072-0.61-1.25-1.355c-0.178-0.746-3.26-3.84-6.85-6.873
	C75.718,118.192,62.196,86.883,68.401,79.23l1.908-2.354l3.843,7.354c2.114,4.044,4.682,8.426,5.707,9.738
	c1.025,1.312,1.864,2.754,1.864,3.204c0,2.636,11.557,15.688,12.794,14.449c0.978-0.979-0.979-9.539-2.181-9.539
	c-2.239,0-5.403-4.305-9.93-13.509c-3.441-6.995-4.563-10.546-5.056-15.991c-0.348-3.851-0.916-8.688-1.261-10.75
	c-0.541-3.229-0.367-3.748,1.253-3.734c2.575,0.021,3.409,0.709,8.056,6.645c3.699,4.726,4.141,5.945,5.233,14.468
	c0.657,5.12,1.439,9.548,1.739,9.842c0.3,0.292,0.169-2.169-0.291-5.469c-1.73-12.414,0.298-34.219,3.275-35.211
	c1.249-0.416,2.221,1.487,3.427,6.711c0.444,1.925,1.277,5.3,1.851,7.5c1.709,6.559,1.291,15.017-1.054,21.274
	c-1.179,3.147-2.318,7.75-2.531,10.226l-0.386,4.5l1.901-5c1.045-2.75,2.611-6.801,3.479-9c0.868-2.2,1.861-7.03,2.208-10.735
	c0.388-4.146,1.308-7.572,2.392-8.91l1.762-2.176l2.283,2.283c8.283,8.284,5.787,34.894-4.572,48.715
	c-1.75,2.336-2.168,3.752-1.576,5.348l0.803,2.17l3.235-2.723c1.78-1.497,4.059-4.354,5.063-6.348
	c2.604-5.162,5.084-15.868,5.084-21.938c0-2.854,0.37-5.187,0.822-5.187s2.128,1.912,3.725,4.25
	c2.701,3.955,2.903,4.917,2.928,13.871c0.025,9.435-0.059,9.785-4.338,18c-2.4,4.608-5.551,9.664-7,11.234
	c-1.449,1.571-3.648,3.954-4.887,5.296c-2.174,2.355-2.91,5.354-1.632,6.634c0.776,0.775,2.168-0.69,5.49-5.785
	c7.829-12.01,15.892-27.976,15.892-31.472c0-2.949,1.713-2.484,3.487,0.946c2.749,5.315,2.942,13.638,0.536,22.996
	c-1.786,6.944-3.184,9.825-7.758,16c-3.067,4.141-7.022,8.879-8.786,10.528c-4.275,3.995-6.414,8.394-5.757,11.831l0.533,2.796
	l3.004-2.813c6.162-5.773,17.303-19.969,19.082-24.314c3.91-9.553,6.674-14.999,7.611-14.999c4.064,0,3.984,20.556-0.117,30.098
	c-1.324,3.079-3.117,6.679-3.983,8c-1.759,2.681-11.601,13.905-18.491,21.093c-3.768,3.928-4.445,5.227-4.18,8l0.318,3.311
	l3.5-3.544c8.84-8.947,26.538-36.001,28.396-43.403c0.729-2.904,1.804-3.22,3.602-1.055c0.896,1.082,1.121,4.899,0.807,13.75
	c-0.418,11.777-0.584,12.563-4.312,20.252c-6.05,12.484-12.745,21.458-20.547,27.541c-5.571,4.345-6.946,5.955-6.946,8.142v2.726
	l3.75-2.204c4.877-2.866,20.863-19.194,23.207-23.703c1-1.926,2.391-5.413,3.09-7.75c0.697-2.338,1.592-4.25,1.988-4.25
	c2.996,0,5.301,10.055,4.784,20.866c-0.403,8.431-0.64,9.228-4.373,14.661c-4.409,6.419-15.101,16.613-20.446,19.496
	c-5.822,3.141-10,7.468-10,10.356c0,1.44,0.277,2.619,0.618,2.619s3.183-1.557,6.313-3.46c8.326-5.058,23.021-20.647,26.631-28.253
	c1.615-3.401,3.16-6.194,3.438-6.205c0.273-0.011,1.396,0.659,2.493,1.488c1.632,1.232,2.06,2.944,2.353,9.403
	c0.308,6.747,0.002,8.67-2.098,13.211c-4.941,10.684-21.391,28.854-29.633,32.734c-6.846,3.223-10.104,5.584-10.109,7.33
	c-0.01,2.378,0.799,2.239,8.142-1.396c12.832-6.354,25.282-18.921,30.321-30.604c1.01-2.338,2.172-4.25,2.584-4.25
	C165.721,245.084,166.609,260.726,164.083,268.084z"/>
<path d="M164.039,267.615c-0.85,2.475-3.02,6.074-4.822,8c-1.802,1.925-3.689,4.287-4.197,5.25
	c-1.453,2.768-14.414,15.813-16.737,16.849c-1.155,0.517-4.179,2.229-6.716,3.811s-6.137,3.203-8,3.607
	c-3.207,0.695-4.836,1.969-4.871,3.806c-0.008,0.452,2.572,0.506,5.734,0.12c4.764-0.582,7.098-1.647,13.6-6.211
	c4.316-3.029,11.367-9.047,15.668-13.369c4.302-4.324,8.082-7.861,8.4-7.861c1.354,0,0.42,9.73-1.599,16.681
	c-3.101,10.666-8.054,15.946-20.546,21.902c-6.729,3.208-11.76,4.854-17.295,5.661c-7.625,1.111-7.818,1.209-8.285,4.197
	c-0.686,4.387,0.365,4.938,7.138,3.745c7.761-1.367,20.024-8.452,27.191-15.709c2.976-3.014,5.763-5.479,6.194-5.479
	c2.688,0-1.691,21.791-5.302,26.38c-1.022,1.303-3.561,3.169-5.639,4.149c-2.077,0.979-5.361,2.777-7.297,3.994
	c-3.996,2.511-15.872,5.477-21.929,5.477c-2.229,0-4.053,0.413-4.053,0.918s-0.281,1.654-0.627,2.553
	c-0.561,1.464,0.206,1.563,7.25,0.952c8.328-0.723,14.973-3.597,25.627-11.082l4.75-3.338v3.53c0,7.48-5.146,15.36-13.835,21.179
	c-8.341,5.586-10.551,6.288-19.804,6.288c-8.107,0-8.445,0.092-9.387,2.564c-1.342,3.53-1.418,3.438,2.774,3.416
	c4.914-0.026,19.584-5.234,23.802-8.451c5.865-4.476,7.565-3.084,5.465,4.471c-1.271,4.563-10.279,13.952-16.017,16.69
	c-2.475,1.181-8.092,2.746-12.481,3.479c-8.984,1.498-7.725-0.117-10.411,13.331c-0.549,2.75-1.505,11.75-2.124,20
	c-0.619,8.25-1.546,18.889-2.061,23.643c-0.641,5.922-0.589,10.172,0.165,13.5c1.567,6.919,0.235,9.657-6.297,12.952
	c-2.909,1.468-5.514,2.962-5.789,3.32c-0.275,0.358-2.571,2.325-5.103,4.368c-7.952,6.42-7.897,6.53-7.897-15.745
	c0-25.781,3.217-51.617,9.014-72.39l2.051-7.354l-5.783-6.44c-13.312-14.829-14.807-18.022-16.464-35.175
	c-0.824-8.528-0.804-12.286,0.084-15.25c0.648-2.161,1.577-3.931,2.065-3.931c0.955,0,6.033,10.122,6.033,12.025
	c0,1.896,7.069,14.152,10.914,18.926c1.973,2.448,5.029,6.469,6.792,8.934l3.205,4.482l1.045-2.749
	c1.666-4.382,1.374-5.037-5.016-11.237c-6.816-6.612-13.531-17.003-18.668-28.881c-2.9-6.705-3.546-9.563-3.995-17.666
	c-0.638-11.521,0.054-15.635,2.315-13.759c1.584,1.313,5.409,9.031,5.409,10.913c0,2.67,17.099,26.232,22.074,30.42
	c3.743,3.148,4.896,2.515,5.517-3.037c0.415-3.705,0.171-4.086-5.658-8.871c-12.29-10.089-18.69-17.021-22.357-24.217
	c-3.238-6.354-3.569-7.763-3.505-14.9c0.039-4.336,0.416-8.767,0.837-9.846c0.731-1.87,0.841-1.847,2.322,0.5
	c0.855,1.354,2.139,4.139,2.854,6.188c0.715,2.049,2.227,4.646,3.358,5.769c3.057,3.032,15.62,13.006,16.391,13.011
	c0.367,0.003,2.044,1.295,3.726,2.872c1.682,1.577,4.045,3.181,5.25,3.563c1.96,0.622,2.191,0.339,2.191-2.688
	c0-2.948-0.545-3.682-4.25-5.71c-8.131-4.451-23.386-19.96-28.957-29.439l-4.054-6.896l0.494-8.663
	c0.271-4.765,1.038-9.68,1.702-10.921c1.156-2.159,1.384-1.962,5.267,4.562c2.759,4.636,8.259,10.914,17.178,19.612
	c16.287,15.882,16.567,16.062,16.787,10.741c0.092-2.221,0.204-4.652,0.25-5.406c0.078-1.281-2.709-3.854-12.061-11.129
	c-6.266-4.876-22.339-20.746-24.425-24.116c-3.856-6.23-6.112-15.392-5.426-22.038c0.349-3.384,1.218-6.952,1.932-7.929
	c1.191-1.629,1.504-1.45,3.791,2.153c1.37,2.16,3.653,5.953,5.071,8.43c1.419,2.475,6.027,8.1,10.24,12.5
	c4.213,4.398,9.456,9.922,11.651,12.271c3.848,4.118,9.508,7.864,10.453,6.92c0.25-0.252,0.156-2.646-0.211-5.323
	c-0.611-4.453-1.104-5.164-5.782-8.366c-2.813-1.926-8.047-6.433-11.632-10.019c-7.778-7.774-21.06-25.804-23.33-31.667
	c-3.637-9.393-3.016-24.109,0.852-20.183c0.74,0.752,1.934,2.493,2.652,3.869c0.718,1.376,3.94,6.405,7.158,11.176
	c4.807,7.127,7.837,10.248,16.982,17.498c6.122,4.854,11.478,8.974,11.899,9.157c0.422,0.183,0.768-1.919,0.768-4.673
	c0-4.898-0.08-5.032-3.75-6.236c-4.438-1.458-9.96-4.852-12.75-7.837c-1.1-1.178-3.256-3.345-4.791-4.816
	c-3.803-3.645-13.383-18.349-17.025-26.133c-2.407-5.145-2.993-7.753-3.035-13.507c-0.053-7.434,1.728-15.631,3.396-15.631
	c1.232,0,8.912,12.084,11.438,18c4.615,10.805,13.885,22.049,22.267,27.009l3.25,1.923v-5.958c0-6.312,0.119-6.085-8.058-15.414
	c-1.957-2.232-4.432-5.233-5.5-6.67c-11.145-14.977-14.751-19.757-16.514-21.89c-6.463-7.822-11.099-29.923-6.831-32.562
	c0.52-0.32,1.571,0.911,2.336,2.738c1.479,3.529,9.876,13.909,19.518,24.127c3.215,3.407,6.776,7.32,7.914,8.695l2.068,2.5
	l0.033-3.25c0.018-1.788-0.384-3.25-0.894-3.25c-0.51,0-1.072-0.61-1.25-1.356c-0.178-0.746-3.26-3.839-6.85-6.873
	C75.671,117.722,62.149,86.413,68.354,78.76l1.908-2.354l3.843,7.354c2.114,4.044,4.682,8.427,5.707,9.738
	c1.025,1.313,1.864,2.754,1.864,3.205c0,2.635,11.557,15.688,12.794,14.449c0.978-0.979-0.98-9.539-2.182-9.539
	c-2.239,0-5.403-4.305-9.93-13.509c-3.44-6.995-4.563-10.546-5.055-15.991c-0.348-3.852-0.916-8.688-1.261-10.75
	c-0.541-3.23-0.367-3.748,1.253-3.735c2.576,0.021,3.409,0.709,8.057,6.646c3.699,4.725,4.14,5.944,5.233,14.468
	c0.657,5.12,1.439,9.548,1.739,9.841c0.3,0.292,0.168-2.168-0.292-5.468c-1.73-12.414,0.298-34.219,3.275-35.211
	c1.249-0.416,2.221,1.487,3.427,6.711c0.445,1.925,1.278,5.3,1.851,7.5c1.709,6.558,1.291,15.016-1.054,21.273
	c-1.179,3.148-2.318,7.75-2.53,10.227l-0.386,4.5l1.9-5c1.045-2.75,2.611-6.801,3.479-9c0.867-2.2,1.861-7.031,2.208-10.736
	c0.387-4.145,1.307-7.572,2.391-8.91l1.763-2.176l2.282,2.284c8.283,8.284,5.787,34.893-4.571,48.714
	c-1.75,2.336-2.168,3.752-1.578,5.348l0.804,2.171l3.235-2.724c1.779-1.497,4.059-4.354,5.063-6.347
	c2.604-5.162,5.084-15.868,5.084-21.938c0-2.853,0.371-5.186,0.822-5.186c0.452,0,2.129,1.912,3.725,4.25
	c2.701,3.955,2.904,4.916,2.929,13.871c0.024,9.434-0.061,9.785-4.338,18c-2.4,4.607-5.552,9.664-7,11.233
	c-1.451,1.571-3.648,3.954-4.888,5.297c-2.173,2.355-2.909,5.354-1.631,6.634c0.774,0.774,2.168-0.691,5.489-5.785
	c7.83-12.01,15.892-27.977,15.892-31.472c0-2.949,1.713-2.484,3.487,0.945c2.749,5.316,2.943,13.639,0.535,22.996
	c-1.785,6.945-3.182,9.826-7.756,16c-3.067,4.142-7.022,8.879-8.787,10.529c-4.274,3.995-6.414,8.393-5.756,11.831l0.533,2.796
	l3.004-2.813c6.162-5.772,17.301-19.969,19.082-24.313c3.91-9.553,6.674-14.999,7.611-14.999c4.064,0,3.984,20.555-0.118,30.097
	c-1.323,3.079-3.116,6.68-3.983,8c-1.758,2.682-11.601,13.906-18.491,21.093c-3.767,3.929-4.445,5.228-4.179,8l0.316,3.312
	l3.5-3.544c8.842-8.948,26.54-36.001,28.398-43.404c0.729-2.904,1.804-3.219,3.601-1.055c0.897,1.082,1.122,4.899,0.808,13.75
	c-0.418,11.778-0.584,12.563-4.312,20.253c-6.05,12.484-12.745,21.458-20.548,27.541c-5.572,4.344-6.947,5.955-6.947,8.141v2.727
	l3.75-2.204c4.878-2.866,20.865-19.195,23.209-23.703c1-1.926,2.391-5.413,3.088-7.75c0.699-2.338,1.594-4.25,1.989-4.25
	c2.997,0,5.302,10.054,4.785,20.866c-0.403,8.43-0.642,9.227-4.374,14.661c-4.408,6.419-15.1,16.612-20.447,19.496
	c-5.822,3.14-10,7.468-10,10.356c0,1.44,0.279,2.619,0.619,2.619c0.342,0,3.182-1.557,6.314-3.46
	c8.324-5.058,23.021-20.648,26.631-28.253c1.615-3.402,3.16-6.195,3.436-6.206c0.275-0.01,1.398,0.66,2.494,1.489
	c1.632,1.231,2.061,2.943,2.354,9.402c0.308,6.747,0.002,8.67-2.1,13.211c-4.939,10.685-21.389,28.854-29.632,32.735
	c-6.845,3.222-10.103,5.584-10.109,7.33c-0.009,2.378,0.8,2.239,8.142-1.396c12.832-6.354,25.283-18.921,30.322-30.604
	c1.008-2.338,2.172-4.25,2.584-4.25C165.678,244.615,166.566,260.258,164.039,267.615z M160.751,256.265
	c-3.918,6.426-12.282,15.329-19.589,20.85c-4.074,3.077-16.996,9.448-19.232,9.481c-0.837,0.012-1.254,1.752-1.264,5.269
	c-0.007,2.887-0.285,6.262-0.616,7.5c-0.97,3.619,2.892,2.85,11.653-2.325c7.295-4.308,10.559-7.39,23.553-22.241
	c4.109-4.696,7.342-12.652,7.389-18.184l0.028-3.5L160.751,256.265z M159.771,223.171c-0.502-0.31-1.926,1.577-3.166,4.19
	c-3.222,6.789-22.82,26.197-29.635,29.347l-5.209,2.407l-0.041,7.613l-0.041,7.614l4.293-2.174c6.832-3.459,12.776-7.94,18.86-14.22
	c5.601-5.778,13.433-17.513,14.908-22.335C160.832,232.058,160.85,223.838,159.771,223.171z M153.721,294.713
	c-15.521,14.069-19.646,16.603-28.537,17.513c-6.738,0.689-6.969,0.896-8.977,8.057c-0.874,3.112,0.313,3.401,7.661,1.863
	c10.147-2.123,23.167-9.187,28.358-15.387c2.342-2.796,7.006-13.287,7.355-16.546C159.637,289.717,156.998,291.741,153.721,294.713z
	 M152.736,197.149c-0.521-0.32-2.162,1.564-3.652,4.19c-3.607,6.356-17.586,20.527-24.219,24.552
	c-5.168,3.135-5.295,3.318-4.596,6.724c0.396,1.925,0.987,5.222,1.314,7.327l0.596,3.827l8-5.691
	c4.399-3.131,9.52-7.104,11.375-8.828c3.574-3.319,10.184-12.778,11.274-16.135C153.854,209.967,153.783,197.796,152.736,197.149z
	 M148.93,322.825c-7.974,7.69-19.752,13.632-28.674,14.465c-6.086,0.568-6.541,0.787-7.527,3.614
	c-1.734,4.98-1.354,8.711,0.89,8.711c4.295,0,17.975-3.928,23.588-6.771c7.69-3.896,10.101-6.574,12.933-14.371
	C153.389,319.515,153.214,318.694,148.93,322.825z M148.256,160.615c-0.232,0-1.695,2.565-3.25,5.7
	c-1.555,3.136-3.424,6.397-4.154,7.25c-2.045,2.385-12.549,17.18-14.59,20.55c-0.998,1.649-3.688,4.568-5.978,6.485l-4.161,3.484
	l0.977,4.766c1.271,6.206,3.121,6.209,9.752,0.015c7.816-7.303,17.029-22.074,20.424-32.75
	C148.459,172.39,149.205,160.615,148.256,160.615z M140.43,351.954c-7.183,5.396-12.883,7.471-22.48,8.185l-9.231,0.687
	l-1.014,3.646c-1.679,6.046-1.595,6.146,5.228,6.14c11.504-0.01,17.957-3.377,26.45-13.795
	C144.495,350.54,144.918,348.585,140.43,351.954z M140.148,139.055c-0.809,1.066-1.469,2.918-1.469,4.109
	c0,3.26-6.435,12.018-21.834,29.723c-3.169,3.644-4.181,5.552-3.764,7.104c0.313,1.167,0.576,3.438,0.583,5.047l0.015,2.925
	l2.639-2.425c2.404-2.21,20.354-22.652,20.365-23.192c0.004-0.127,1.118-3.382,2.479-7.23
	C142.047,146.956,142.742,135.626,140.148,139.055z M133.795,372.615c-0.486,0-1.553,1.014-2.368,2.25
	c-1.854,2.813-13.376,6.827-21.959,7.65l-6.245,0.6l-1.186,5.344c-1.162,5.248-1.145,5.334,0.979,4.726
	c1.19-0.341,4.414-0.901,7.164-1.246c2.75-0.344,6.073-1.458,7.385-2.475c1.313-1.018,2.959-1.849,3.662-1.849
	c1.363,0,13.453-12.71,13.453-14.145C134.68,373,134.281,372.615,133.795,372.615z M131.734,116.115
	c-0.689-1.711-1.183-1.204-3.403,3.5c-3.702,7.837-13.226,22.944-16.785,26.629c-2.786,2.883-2.969,3.5-2.319,7.825l0.703,4.696
	l3.486-3.325c3.529-3.366,10.361-11.842,13.449-16.684c1.66-2.604,5.703-16.219,5.684-19.143
	C132.544,118.79,132.178,117.215,131.734,116.115z M122.986,96.626c-0.543-2.034-0.984-1.19-2.41,4.613
	c-1.9,7.727-6.588,15.855-12.297,21.321c-3.631,3.477-4.111,5.239-2.979,10.906l0.621,3.104l5.72-7.229
	C121.82,116.477,125.477,105.936,122.986,96.626z M116.816,227.615c-0.641-5.775-2.031-14.325-3.094-19
	c-1.063-4.676-2.471-14.351-3.13-21.5c-0.657-7.15-1.598-14.076-2.084-15.392c-0.487-1.314-1.541-7.841-2.339-14.5
	c-0.799-6.66-2.12-16.159-2.938-21.108c-0.814-4.95-1.498-10.469-1.519-12.264s-0.473-4.045-1.007-5
	c-1.206-2.155-4.665-14.358-5.594-19.736c-0.898-5.197-2.696-8.317-2.162-3.75c0.209,1.787,0.009,3.25-0.446,3.25
	c-0.932,0-1.061-0.403-1.333-4.179c-0.106-1.474-0.675-4.623-1.264-7c-0.589-2.377-1.582-6.88-2.207-10.006
	c-0.691-3.457-2.265-7.104-4.015-9.308c-1.583-1.992-3.071-4.159-3.306-4.814c-0.235-0.656-0.788-0.858-1.227-0.448
	c-0.44,0.41-0.276,1.894,0.363,3.297c0.64,1.403,1.163,4.247,1.163,6.318c0,2.464,1.548,6.856,4.477,12.703
	c2.462,4.915,4.487,9.519,4.5,10.23c0.013,0.712,1.041,2.313,2.284,3.557c1.244,1.244,2.882,4.712,3.64,7.705
	c0.758,2.993,2.215,8.09,3.238,11.323c1.023,3.234,1.86,7.824,1.86,10.201c0,2.376,0.455,6.479,1.01,9.119
	c0.556,2.64,1.422,8.624,1.929,13.3c0.506,4.675,1.591,12.55,2.409,17.5c1.49,8.992,2.197,24.936,3.201,72
	c0.746,35.022-1.297,56.162-8.189,84.79c-1.297,5.385-2.358,11.518-2.358,13.628s-0.675,5.453-1.5,7.429
	c-0.825,1.975-1.5,4.893-1.5,6.483c0,3.122-3.27,17.164-5.512,23.67c-3.733,10.832-5.75,16.095-6.531,17.043
	c-1.744,2.118-6.804,23.334-8.458,35.457c-0.938,6.875-2.108,14.945-2.602,17.935c-1.173,7.104-1.167,38.065,0.008,38.065
	c0.498,0,2.838-1.614,5.2-3.589c2.362-1.973,6.005-4.271,8.095-5.107c4.409-1.765,4.762-2.907,1.374-4.451
	c-3.359-1.53-7.356-0.297-10.726,3.312c-3.395,3.634-3.774,1.823-0.598-2.848c2.461-3.619,7.332-5.751,11.681-5.112
	c2.308,0.339,2.698,0.093,2.295-1.445c-0.267-1.021,0.009-7.346,0.612-14.057s1.59-18.501,2.194-26.201
	c0.604-7.699,1.548-16.25,2.1-19c0.552-2.75,1.641-8.305,2.421-12.344c0.78-4.039,3.629-16.188,6.333-27s5.203-22.355,5.555-25.656
	c0.643-6.039,1.227-9.148,4.124-22c2.981-13.225,3.438-16.03,4.313-26.503C118.717,278.779,118.283,240.852,116.816,227.615z
	 M111.109,74.018c-0.864-2.973-1.916-5.403-2.34-5.403c-0.422,0-1.271,3.938-1.883,8.75c-0.613,4.813-2.037,10.567-3.162,12.789
	c-4.47,8.825-5.816,14.244-4.728,19.007c0.974,4.255,1.104,4.382,2.868,2.785c3.188-2.885,7.771-12.448,9.24-19.274
	C112.982,83.951,112.982,80.463,111.109,74.018z M104.33,258.615c-2.609,0-8.808-4.159-12.65-8.487
	c-1.375-1.55-5.246-5.786-8.603-9.415c-9.665-10.449-10.74-11.825-13.559-17.366c-2.595-5.1-2.679-5.162-3.354-2.501
	c-0.914,3.604,2.9,16.216,6.236,20.624c4.741,6.263,22.429,22.786,29.958,27.984l3.179,2.194l0.437-2.268
	c0.238-1.247,0.495-4.18,0.57-6.517C106.667,259.032,106.449,258.615,104.33,258.615z M104.025,225.443
	c-0.91-1.006-2.152-1.828-2.76-1.828c-0.608,0-2.229-1.013-3.602-2.25c-1.372-1.238-6.443-5.547-11.269-9.575
	c-6.676-5.573-10.193-9.497-14.708-16.407c-5.556-8.506-5.895-8.835-5.322-5.176c0.952,6.078,4.83,14.018,9.631,19.712
	c2.409,2.857,6.466,8.275,9.016,12.04c2.55,3.766,5.749,7.72,7.108,8.788c3.149,2.479,12.632,8.868,13.159,8.868
	c0.22,0,0.398-2.777,0.398-6.172C105.68,229.104,105.189,226.729,104.025,225.443z M104.428,195.116
	c-0.137-0.089-4.073-3.195-8.748-6.904c-10.246-8.127-13.056-11.583-18.179-22.356c-4.162-8.753-7.913-15.127-8.943-15.197
	c-1.19-0.081-1.795,7.482-0.909,11.366c1.77,7.752,11.081,23.228,20.271,33.689c5.082,5.786,10.659,9.842,15.665,11.391l2.403,0.744
	l-0.656-6.285C104.971,198.105,104.564,195.204,104.428,195.116z M90.337,280.878c-4.767-4.818-10.68-10.499-13.138-12.621
	c-2.521-2.175-5.735-6.389-7.371-9.66l-2.9-5.806l-0.588,4.292c-1.233,8.999,3.634,17.95,16.804,30.904
	c11.432,11.245,18.303,16.459,19.018,14.434c0.253-0.719,0.828-3.556,1.277-6.306c0.789-4.835,0.729-5.024-1.81-5.737
	C100.186,289.973,95.104,285.698,90.337,280.878z M102.211,161.335c-2.184-8.608-3.069-10.455-7.66-15.977
	c-2.854-3.436-5.708-6.693-6.342-7.243c-2.791-2.425-16.362-18.224-17.468-20.336c-2.415-4.612-1.967-1.383,0.957,6.899
	c1.638,4.64,3.884,9.562,4.99,10.937s3.1,4.074,4.43,6c4.314,6.244,23.563,30.602,23.563,29.816
	C104.68,171.232,103.568,166.688,102.211,161.335z M97.868,316.615c-1.781,0-12.281-7.227-17.188-11.829
	c-1.375-1.29-4.204-3.446-6.286-4.794c-2.082-1.347-4.668-3.895-5.747-5.663c-1.916-3.143-1.96-3.158-1.963-0.687
	c-0.008,5.176,6.438,16.203,13.135,22.473c13.196,12.354,16.77,15.049,16.905,12.75c0.024-0.413,0.669-3,1.433-5.75
	C99.973,316.575,99.975,316.615,97.868,316.615z M96.607,121.865c-0.767-4.04-1.67-6.25-2.554-6.25
	c-3.706,0-15.313-14.328-22.267-27.485c-1.158-2.191-2.106-3.271-2.106-2.398c0,6.224,12.916,31.52,19.203,37.607
	c1.263,1.225,4.047,3.688,6.186,5.477c3.134,2.62,3.776,2.868,3.307,1.275C98.056,129.004,97.26,125.302,96.607,121.865z
	 M96.63,56.115l-1.25-3l-0.835,4.469c-0.698,3.734-0.609,19.484,0.163,29.031c0.124,1.533,0.924-0.206,2.07-4.5
	C98.866,74.288,98.792,61.302,96.63,56.115z M89.124,346.431c-1.956-1.718-7.258-8.117-11.783-14.22
	c-10.421-14.059-11.882-16.306-13.392-20.598c-1.162-3.303-1.208-3.135-0.804,3c0.457,6.95,3.46,15.233,10.806,29.798
	c3.176,6.299,5.588,9.52,10.01,13.364c3.204,2.786,5.944,4.902,6.088,4.702c0.573-0.792,2.386-8.497,2.505-10.646
	C92.635,350.373,91.403,348.432,89.124,346.431z M74.476,365.351c-6.3-8.705-11.5-18.398-12.338-22.998
	c-0.938-5.15-2.458-5.726-2.458-0.929c0,15.348,6.269,31.105,16.313,41.013l5.397,5.322l2.035-4.322l2.035-4.322l-3.14-3.632
	C80.593,373.485,77.063,368.927,74.476,365.351z"/>
</svg>
