<?xml version="1.0" encoding="UTF-8"?>
<svg width="420" height="760" id="Layer_1" xmlns="http://www.w3.org/2000/svg" version="1.1" viewBox="0 0 420 760">
  
  <defs>
    <style>
      .st0 {
        fill: #55461b;
      }

      .st1 {
        stroke-width: 2.53px;
      }

      .st1, .st2, .st3, .st4, .st5 {
        fill: #f6e179;
      }

      .st1, .st3, .st5 {
        stroke: #cdad2c;
      }

      .st6 {
        fill: #ebd25e;
      }

      .st7, .st8 {
        fill: #5a3a19;
      }

      .st9 {
        fill: #fff;
      }

      .st10, .st11, .st12, .st13, .st14, .st15, .st16 {
        fill: none;
      }

      .st11 {
        stroke: #ab892f;
        stroke-linecap: round;
        stroke-linejoin: round;
        stroke-width: .93px;
      }

      .st2, .st17 {
        fill-rule: evenodd;
      }

      .st18 {
        fill: #885724;
      }

      .st17, .st19 {
        fill: #f7eb9b;
      }

      .st3 {
        stroke-width: 1.64px;
      }

      .st12, .st13, .st16 {
        stroke: #806829;
      }

      .st12, .st15 {
        stroke-miterlimit: 3.82;
        stroke-width: 1.43px;
      }

      .st20 {
        fill: #975d30;
      }

      .st13 {
        stroke-width: 1.65px;
      }

      .st14 {
        stroke: #e0b624;
        stroke-width: 1.75px;
      }

      .st15, .st8 {
        stroke: #402e1e;
      }

      .st21 {
        fill: #ececec;
      }

      .st22 {
        fill: #794d1f;
      }

      .st23 {
        fill: #ab6f2e;
      }

      .st5 {
        stroke-width: 2.19px;
      }

      .st24 {
        fill: #402e1e;
      }

      .st8 {
        stroke-miterlimit: 10;
      }

      .st25 {
        fill: #63401b;
      }

      .st16 {
        stroke-width: 1.62px;
      }

      .st26 {
        fill: #928a70;
      }

      .st27 {
        fill: #806829;
      }
    </style>
  </defs>
  <g id="layer1">
    <g id="g7600">
      <g id="g6065-7-7">
        <g id="g3808-7-3-2">
          <path id="path3269-9-7-4-2" class="st2" d="M105.61,61.6c18.41,5.78,34.32-2.29,33.12-12.6-.59-5-5.27-10.62-15.75-15.37,0-8.8-6-17.15-18.71-18.47-6.42-8.11-15.68-9.72-23.42-7.85-6.84-5.35-18.67-5.11-23.91,1.27-10.48-3.5-17.4-1.64-22.44,9.26-9.49-.67-16.2,6.61-15.19,16.5-7,3.68-10.12,11.68-4.92,19.79-4.73,4.81-4.19,11.05.42,15.51-2.67,4.76-2.71,10.88,3.64,15.45,0,5.41,5.15,12.25,11,13.77,2.76,5.2,8,9.6,16.1,9,2.93,5.17,10.18,9.33,17.17,3.77,3.86,5.35,11.42,3.43,16.25-2.13,4.53,2.08,14.28,1.39,14.64-8.88,9.37-.6,9.92-7.68,6.91-14,6.43-4.62,6.43-10.72,1.94-15.84,1.68-9.23-2.22-15.92-9.7-18.14-.76-6.52-8.23-8.42-12.82-8.22-2.54-4.31-12.41-6.62-14.16-3-5-2.42-8.22-1.65-10.4-.15s-3,3.28-4.84,4.43-7.46,3.88-8.91,8.13-1.61,1.94-.35,5.24c3.09-8,13.53-2.83,15.17-6.06.29.13,6.92,3,9.87-1,1.32,2.48,5.27,3.64,9.1,2.43,2.56,4.43,4.45,7.35,8.19,6.31-.66,4.15,0,8.72,2.9,10.36-.18,3.19-2.78,3-1.72,8.87-1.59,1.72-4.34,2.42-4.91,7.52-6-.81-4.68,2.68-6.84,3.92-7.3-1.82-8.72.42-11.91,1.15-5-3.68-6.74-1.55-9.22-2.33-2.07-4.17-4.86-4.8-7.37-5.34-.81-2.89-1.55-6-5.15-7.76-.27-3.17-.2-6.56-2.7-9.76,1.55-6.37-.24-6.33.12-9.31,3.55-3.84,2.8-7.79,3.62-11.23,4.5-2.37,7.22-5.32,8-8.66,5.33,0,9.4-1.56,12.4-4.17,2.42,1.73,8.79,2.71,12.56.28,2.29,4.39,8.71,5.92,12.8,4.77.26,3.47,6.32,9.49,12,10.91.72,4.13,2.28,8.39,7.42,11.55v.08Z"/>
          <path id="rect5996-9-9" class="st6" d="M105.9,43.23c-4,7.11,9.26,20.63,11.71,20.12l-12.32-3.16c-3.15-3.01-5.7-6.59-7.52-10.55-4.44-1.42-8.31-6.26-12.44-10-3.33.69-7.73-2.34-12.23-4.65-4.14,1.25-5.28.9-12.64-.73-3.9,1-7,3.3-11.8,4.27-1.42,2.73-5.62,5.77-7.61,8-.51.73-.76,1.6-.72,2.49l-3.13,9.32.08,8.71c2.85,5.21,2,7.35,2.36,10.54l3.48,3,1.55,3.93,5.18,2.5,2.7,3.18c.45,1.54-7.35-1.14-12.09-.8,2.81-6.72-6.9-9.71-6.88-9.81,1.29-5.41.14-10.54-4.07-10.71,4.33-7.36-.86-9.32-2.1-13,5.65-4.14,4.62-11.41,1.92-12.25,8.74-3.67,11.16-11.3,11-14.71,7.08,4.06,15.39.13,17.81-5,6.52,5,12.24,5,16.4.28,4.65,9.57,12.74,8,15.6,6.32,1.52,8,9.56,13.08,15.61,12.69l.15.02Z"/>
          <path id="rect5996-8-6-4" class="st6" d="M87.78,70.37c-.12.29-.51,0-1.38.91l-3.37-10.49c-4.09.48-5.68-2.65-7.37-5.64-5.81-1.23-5.89-.51-8.56-2.29l-4.55.66-6.12-.38-8.69,4.42-5.63,5.66c-.07.08,0-7.53,11.31-15.36,8.41,5.24,11.73-3.42,12.17-2.7,2.54,4.19,9.07,6.06,11.93,3,2.46,5.48,7.51,7.7,11.56,7.17-.14,1.77-5.27,9.43-.2,13.58-.94,5-2.54,9.95-3.48,11.17-1.92,2.52,1.13-9,2.34-9.71h.04Z"/>
          <path id="rect5996-3-5-1" class="st19" d="M122.97,33.72c27.9,12.33,11.39,22.5,13.84,22-7.59,5.33-22.27-12.34-18.45-20.28-13.57-2.18-19.49-11.67-17.73-17.67-3.33.69-17-4.17-21.54-6.48-4.14,1.25-12.07,7-22.64-.79-3.34,7.52-15.26,11.72-21.52,7.52,1.11,10-14.4,19.89-14.58,17.76,3.43,5.58-3.32,17-4.33,18.28,3.19,4.21,5.78,8.72,2.38,16.18,2.5,1,4.23,6,3.14,14.09,4.25,1.57,10.35,5.68,12,12,5.13-3.26,13.85,4.59,14.06,7.83,4.83-3.42,12.9-1.67,15.93,3.93,5.9-3.67,11.3-4.88,16.08.18,1.63-7,5.46-10.55,14-6.93-4.57,11.49-9,7.5-13.4,8-5.69,5.49-11.93,4.93-17.31,2.88-6.08,2.14-11.92,2.58-16.63-4.81-13.24.58-13.39-5.58-17.13-9.25-6.86-3.64-10.09-11.64-10.17-12-11.88-13.64-.62-16.14-4.82-16.33-8.22-14.07,1.21-13.27,0-17-7.23-7.9,2.82-17.76,4.28-17.39.44-15.67,12.39-20.06,16-18.1C44.71.69,52.5,7.7,56.35,8.67c2-3.61,12-8.19,24-2.51,21.16-1,21.63,10.08,24.48,8.38,11.61,4.69,16.3,7.18,19,17.62l-.86,1.56Z"/>
          <path id="rect6024-1-9" class="st17" d="M64.35,41.3c1-.33,4-2.44,8.14-1.61,2.31.46,5.34,3.27,7.79,4.34,2.07.91,8.06,2,9.84,3.49,2.09,1.72,3.13,2.12,2.68,4.84-.2,1.23,2.14.77,4,1.66,2.1,1,3.83,3.33,4.79,4.82,2.38,3.72-.45,9.2,1.41,11.76,3.2,4.41,1.72,5.69,1.73,5.72l1.15,3.6-5.62,6.26,2,1.54s1.1,4.63-.19,7.93c-1.51,3.89-7.09,6.24-8.06,4.15-3.42-7.31,1-10.58,5.68-14.5,1.87-1.32-2.67-13.29,1.53-14.8-3.4-.55-7.85-11.34-9.21-18.26-5.49-.27-9-3.93-12.49-7-7.6,2.73-10.18-.75-14.2-2.45-3.36,3.14-7.32,2.39-14.89,2.34l2.67-1.11,5.12-4.5,6.09,1.8.04-.02Z"/>
          <g id="g3786-7-09-6">
            <path id="path3757-1-4-9-9" class="st14" d="M57.43,53.14c19.65-5.78,28,5.58,31.27,10.27,14.8,23-18.69,48-43.82,30.57-18.32-12.09-29.45-39.87-8.7-60.53,29.38-24.15,66.75-6.3,80.81,29.25"/>
            <path id="path3745-3-6-8" class="st1" d="M98.35,49.89c10.22-10.71,17.58-13.12,25.08-16.87"/>
            <path id="path3747-3-8-2" class="st1" d="M85.85,39.44c4.43-7.87,8-16.27,19.2-24.61"/>
            <path id="path3749-5-3-5" class="st1" d="M73.2,35.02c-.31-8,2.92-18.16,7.32-28"/>
            <path id="path3751-9-4-5" class="st1" d="M60.77,34.58c-2.34-8.25-4.59-17.26-3.92-26.27"/>
            <path id="path3753-9-8-4" class="st1" d="M48.79,38.94c-5.17-6.2-12.15-13.77-14.74-21.92"/>
            <path id="path3755-8-4-9" class="st1" d="M40.68,46.96c-7.92-2.1-15.49-7.16-22-12.94"/>
            <path id="path3757-1-9-1" class="st5" d="M37.07,58.36c-7.69-.83-15.31-2.23-22.79-4.18"/>
            <path id="path3759-8-9-2" class="st5" d="M37.68,67.52c-6.44,2.21-15.62,2.78-23.53,2.07"/>
            <path id="path3761-2-2-5" class="st5" d="M39.71,76.71c-6.39,4.34-13.63,7.28-21.23,8.64"/>
            <path id="path3763-6-5-0" class="st5" d="M45.28,84.4c-3.62,6.21-9.64,12.1-15.9,14.74"/>
            <path id="path3765-6-5-8" class="st5" d="M52.23,90.16c-.48,6.39-2.78,12.5-6.63,17.62"/>
            <path id="path3767-0-3-3" class="st5" d="M61.35,91.75c1.84,6.89,2.37,14.06,1.55,21.14"/>
            <path id="path3769-3-3-9" class="st5" d="M73.22,90.79c2.87,5.62,5.54,12.36,6,19"/>
            <path id="path3771-8-3-3" class="st5" d="M79.9,86.82c5.88,3.49,10.89,8.28,14.64,14"/>
            <path id="path3773-0-7-9" class="st5" d="M84.76,80.12c5.95.73,11.6,3,16.41,6.58"/>
            <path id="path3776-1-4-6" class="st5" d="M86.68,71.02c5.2-1.33,10.63-1.47,15.89-.41"/>
            <path id="path3778-2-3-7" class="st5" d="M83.59,61.2c2.49-3.55,6.21-7.5,10.31-9.11"/>
            <path id="path3780-5-8-9" class="st5" d="M75.18,55.02c.42-4.72,3.34-8,5.29-10.87"/>
            <path id="path3782-0-0-9" class="st5" d="M66.35,51.89c-1.61-3.92-.72-7.31-.41-10.82"/>
            <path id="path3784-9-8-7" class="st3" d="M56.53,52.94c-2.22-2.12-3.93-4.72-5-7.6"/>
          </g>
          <path id="path3269-9-7-7-8-6" class="st11" d="M105.75,61.34c18.41,5.79,34.32-2.28,33.12-12.6-.59-5-5.27-10.61-15.75-15.36,0-8.8-6-17.16-18.71-18.47-6.46-8.11-15.68-9.73-23.46-7.86-6.84-5.35-18.67-5.1-23.91,1.28-10.48-3.5-17.4-1.65-22.44,9.25-9.49-.67-16.2,6.62-15.19,16.5-7,3.67-10.12,11.75-4.94,19.8-4.73,4.81-4.19,11.05.42,15.51-2.63,4.76-2.67,10.86,3.68,15.5,0,5.41,5.15,12.25,11,13.77,2.76,5.2,8,9.6,16.1,9,2.93,5.16,10.18,9.33,17.18,3.76,3.86,5.36,11.42,3.44,16.25-2.12,4.53,2.08,14.28,1.39,14.64-8.88,9.37-.6,9.92-7.68,6.91-14,6.43-4.62,6.43-10.72,1.94-15.84,1.68-9.24-2.22-15.93-9.7-18.14-.76-6.53-8.23-8.42-12.82-8.23-2.54-4.3-12.41-6.61-14.16-3-5-2.43-8.22-1.65-10.4-.15s-3,3.27-4.84,4.43-7.46,3.87-8.91,8.13-2.11,5.32-.86,8.62c3.09-8,14-6.21,15.68-9.45.29.13,6.92,3.05,9.87-1,1.32,2.48,5.27,3.64,9.1,2.43,2.56,4.43,4.45,7.35,8.19,6.31-.66,4.15,0,8.72,2.9,10.36-.18,3.19-2.78,2.94-1.72,8.86-1.59,1.73-4.34,2.43-4.91,7.53-6-.81-4.68,2.68-6.84,3.91-7.3-1.81-8.72.43-11.91,1.16-5-3.68-6.74-1.55-9.22-2.33-2.07-4.18-4.86-4.81-7.37-5.34-.81-2.89-1.55-6-5.15-7.77-.27-3.16-.2-6.55-2.7-9.75,1.55-6.37-.24-6.33.12-9.31,3.55-3.85,2.8-7.79,3.62-11.23,4.5-2.37,7.22-5.32,8-8.66,5.33-.05,9.4-1.56,12.4-4.17,2.42,1.73,8.79,2.71,12.56.28,2.29,4.38,8.71,5.92,12.8,4.76.26,3.48,6.32,9.5,12,10.92.72,4.12,2.28,8.39,7.42,11.54v.05Z"/>
        </g>
      </g>
      <g id="g6065-9">
        <g id="g3808-7-35">
          <path id="path3269-9-7-76" class="st2" d="M99.35,68.52c19.29-.59,31.66-13.46,27.12-22.8-2.21-4.56-8.47-8.28-19.92-9.32-3-8.29-11.38-14.22-23.8-11.29-8.77-5.53-18-4-24.74.31-8.22-2.8-19.31,1.32-22.16,9.07-11,.15-17,4.18-18.13,16.13-9.19,2.4-13.13,11.54-8.87,20.54-5.5,5.73-5.73,14.43,1.8,20.36-2.88,6.1-.32,11.81,5.5,14.5-.91,5.37,1.07,11.14,8.56,13.38,1.79,5.11,8.9,9.88,15,9.37,4.32,4,10.69,6.44,18.18,3.25,4.46,3.91,12.68,5.45,17.46-2.09,5.41,3.79,11.91-.51,14.65-7.35,5,.47,13.94-3.4,10.9-13.21,8.64-3.65,6.83-10.51,1.92-15.47,4.55-6.47,2.54-12.23-3.38-15.59-1.46-9.25-7.34-14.25-15.13-13.93-2.87-5.91-10.55-5.24-14.82-3.55-3.81-3.23-13.89-2.16-14.35,1.85-5.49-.66-8.3,1.15-9.87,3.28s-1.75,4.08-3.11,5.77-5.81,6.1-5.81,10.59,2.18,7,4.45,9.73c.29-8.56,8.79-11.79,9.28-15.38.31,0,7.53.6,9-4.2,2.06,1.9,6.17,1.7,9.39-.7,3.88,3.33,6.64,5.47,9.88,3.26.74,4.13,2.84,8.24,6.15,8.82.88,3.07-1.66,3.7,1.29,8.94-.93,2.16-3.3,3.73-2.16,8.73-5.94,1.21-3.54,4.06-5.17,5.94-7.49.69-8.09,3.27-10.87,5-6-1.82-6.87.75-9.46.83-3.34-3.26-6.18-2.94-8.72-2.61-1.72-2.47-3.44-5.15-7.42-5.64-1.3-2.9-2.35-6.12-5.77-8.32-.63-6.53-2.31-5.9-3-8.84,2.13-4.78.13-8.25-.27-11.78,3.47-3.72,5.06-7.4,4.67-10.8,5-1.8,8.36-4.57,10.33-8,2.86.83,9.2-.34,11.95-3.87,3.61,3.38,10.18,2.72,13.66.28,1.39,3.19,9.09,6.89,14.93,6.35,2,3.66,4.92,7.18,10.81,8.46h.05Z"/>
          <path id="rect5996-6" class="st6" d="M93.53,51.02c-1.48,8,15.53,16.42,17.68,15.14l-12.68,1.11c-3.96-1.81-7.54-4.35-10.56-7.49-4.67.13-9.91-3.17-15.06-5.38-2.92,1.75-8.07.34-13.08-.37-3.5,2.55-4.69,2.59-12.17,3.48-2.6,2.42-5.17,5.52-9.74,7.91-.44,3.06-3.4,7.31-4.55,10.07-.23.84-.19,1.73.12,2.55l.11,9.83,3,8.19c4.41,4,4.28,6.3,5.7,9.18l4.27,1.7,2.78,3.21,5.72.79,3.54,2.08c.94,1.31-7.31,1.35-11.67,3.23.44-7.28-9.72-6.9-9.73-7-.56-5.54-3.34-10-7.37-8.77,1.66-8.38-3.88-8.52-6.28-11.64,4-5.76.61-12.29-2.23-12.2,7-6.33,6.83-14.34,5.58-17.52,8,1.51,14.57-4.94,15.16-10.62,7.8,2.58,13.19.66,15.57-5.14,7.55,7.51,14.67,3.37,16.81.83,4.06,7,13.33,9.2,18.92,6.85l.16-.02Z"/>
          <path id="rect5996-8-5" class="st6" d="M85.35,82.63c0,.31-.46.21-1,1.31l-6.63-8.8c-3.71,1.81-6.24-.63-8.82-2.89-5.89.74-5.73,1.46-8.84.66l-4.07,2.11-5.87,1.64-6.75,7-2.61,7.19c0,.1-3.36-7,4.79-18.17,9.66,2.18,9.94-7.09,10.59-6.55,3.79,3.15,10.56,2.77,12.29-1.11,4.12,4.37,9.62,4.8,13.27,3,.45,1.71-1.87,10.63,4.28,12.88.78,5.07.88,10.24.4,11.7-1,3-1.89-8.83-1-9.94l-.03-.03Z"/>
          <path id="rect5996-3-8" class="st19" d="M106.51,36.43c30.41,2.47,18.17,17.5,20.32,16.21-5.42,7.53-25.09-4.32-24.1-13.08-13.53,2.46-22.25-4.54-22.56-10.84-2.92,1.75-17.46,1.67-22.48,1-3.49,2.55-9.09,10.55-21.64,6.71-.69,8.16-10.54,16.1-17.84,14.17,4.34,9.09-7,23.56-7.93,21.57,5.07,4.14,2.47,17.13,1.94,18.72,4.4,2.93,8.32,6.34,7.57,14.5,2.7.13,6,4.29,7.61,12.27,4.52.08,11.64,2,15.26,7.43,3.77-4.76,14.59-.22,15.85,2.76,3.44-4.83,11.63-5.83,16.34-1.53,4.36-5.41,9.07-8.33,15.24-5.12-.75-7.11,1.68-11.76,10.93-11.15-.53,12.36-6,10-10,11.94-3.56,7-9.63,8.58-15.39,8.42-5,4-10.4,6.35-17.29.93-12.32,4.91-14.49-.82-19.22-3.09-8.79,1.34-13.47-7.43-13.57-8-15.66-9-5.85-15-9.86-13.8-12.39-10.59-3.23-12.93-5.62-16-9.47-5.21-3.22-17.83-1.72-18-4.75-14.9,5.08-23,9.08-22.3,4.25-19.13,13.92-15.13,17.92-15.41.77-4.06,8.69-11.71,21.85-10.27,19.66-7.91,23.74,2.39,25.87-.16,12.51.61,17.78,1.41,23.78,10.39l-.34,1.73Z"/>
          <path id="rect6024-2" class="st17" d="M53.63,62.89c.81-.63,2.92-3.6,7.15-4.19,2.33-.33,6.11,1.32,8.78,1.53,2.26.18,8.28-.74,10.45,0,2.54.94,3.65,1,4.12,3.69.21,1.23,2.27,0,4.37.24,2.31.23,4.71,1.88,6.11,3,3.47,2.73,2.6,8.83,5.2,10.64,4.48,3.11,3.5,4.8,3.52,4.83l2.27,3-3.25,7.81,2.35.82s2.57,4,2.44,7.54c-.15,4.18-4.65,8.23-6.25,6.58-5.64-5.78-2.52-10.33.59-15.56,1.33-1.87-6.9-11.68-3.43-14.48-3.39.6-11.14-8.12-14.7-14.21-5.28,1.55-9.81-.75-14.1-2.46-6.27,5.08-9.82,2.65-14.21,2.35-2.13,4.07-6.12,4.67-13.28,7.12l2.17-2,3.35-6,6.35-.31v.06Z"/>
          <g id="g3786-7-5">
            <path id="path3757-1-4-4" class="st14" d="M51.05,76.34c16.66-11.93,28.31-4,32.91-.59,21.56,16.86-1.83,51.49-31.31,43.29-21.3-5.43-40.94-28-28.22-54.29,19.8-32.47,61-27.91,85.94,1"/>
            <path id="path3745-3-4" class="st1" d="M88.58,59.8c6.12-13.48,12.27-18.18,18.17-24.19"/>
            <path id="path3747-3-1" class="st1" d="M73.35,54.02c1.6-8.89,2.15-18,10-29.56"/>
            <path id="path3749-5-6" class="st1" d="M59.96,54.02c-2.92-7.43-3.22-18.11-2.31-28.85"/>
            <path id="path3751-9-1" class="st1" d="M48.07,57.73c-4.93-7-10-14.79-12.35-23.52"/>
            <path id="path3753-9-6" class="st1" d="M38.19,65.78c-6.92-4.14-16-9-21.13-15.83"/>
            <path id="path3755-8-3" class="st1" d="M33.17,76.02c-8.17.62-17-1.66-25-5"/>
            <path id="path3757-1-3" class="st5" d="M33.52,88.02c-7.54,1.74-15.19,2.92-22.9,3.55"/>
            <path id="path3759-8-5" class="st5" d="M37.11,96.43c-5.35,4.21-13.84,7.77-21.54,9.71"/>
            <path id="path3761-2-5" class="st5" d="M42.06,104.44c-4.62,6.2-10.48,11.36-17.21,15.15"/>
            <path id="path3763-6-3" class="st5" d="M49.85,109.89c-1.41,7.06-5.12,14.6-10.16,19.13"/>
            <path id="path3765-6-2" class="st5" d="M58.35,113.02c1.65,6.19,1.49,12.72-.45,18.83"/>
            <path id="path3767-0-8" class="st5" d="M67.43,111.52c4.01,5.89,6.87,12.48,8.42,19.43"/>
            <path id="path3769-3-2" class="st5" d="M78.35,106.7c4.56,4.36,9.3,9.85,11.94,16"/>
            <path id="path3771-8-5" class="st5" d="M83.35,100.76c6.71,1.36,13.01,4.24,18.44,8.41"/>
            <path id="path3773-0-3" class="st5" d="M85.72,92.83c5.85-1.26,11.93-.99,17.65.8"/>
            <path id="path3776-1-6" class="st5" d="M84.54,83.62c4.48-2.97,9.57-4.88,14.89-5.6"/>
            <path id="path3778-2-1" class="st5" d="M78.35,75.34c1.18-4.17,3.4-9.12,6.73-12"/>
            <path id="path3780-5-86" class="st5" d="M68.43,72.26c-1.16-4.6.52-8.65,1.42-12"/>
            <path id="path3782-0-2" class="st5" d="M58.98,72.2c-2.81-3.17-3.54-7-4.41-10.46"/>
            <path id="path3784-9-1" class="st3" d="M50.11,76.46c-2.79-1.29-5.25-3.19-7.19-5.57"/>
          </g>
          <path id="path3269-9-7-7-4" class="st11" d="M99.35,68.19c19.29-.6,31.66-13.46,27.12-22.8-2.21-4.57-8.47-8.29-19.93-9.33-2.9-8.3-11.32-14.21-23.75-11.28-8.77-5.52-18-4-24.73.31-8.22-2.8-19.31,1.33-22.16,9.08-11,.15-17,4.17-18.14,16.12-9.18,2.5-13.12,11.6-8.91,20.6-5.42,5.77-5.69,14.42,1.85,20.31-2.88,6.11-.27,11.82,5.5,14.51-.91,5.37,1.07,11.14,8.56,13.38,1.79,5.11,8.9,9.87,15,9.36,4.32,4,10.69,6.44,18.18,3.25,4.47,3.91,12.68,5.46,17.45-2.1,5.41,3.79,11.91-.51,14.65-7.36,5,.48,13.94-3.39,10.9-13.2,8.64-3.65,6.83-10.52,1.92-15.47,4.49-6.5,2.49-12.23-3.41-15.6-1.46-9.26-7.34-14.3-15.1-13.9-2.87-5.91-10.5-5.24-14.82-3.55-3.82-3.23-13.89-2.16-14.35,1.84-5.49-.66-8.3,1.15-9.87,3.29s-1.75,4.07-3.11,5.77-5.77,6.1-5.77,10.6,2.18,7,4.45,9.73c.29-8.56,8.79-11.8,9.27-15.39.32,0,7.54.6,9-4.2,2,1.91,6.17,1.71,9.39-.7,3.87,3.34,6.61,5.48,9.81,3.26.74,4.14,2.84,8.25,6.15,8.83.88,3.07-1.66,3.7,1.29,8.94-.93,2.15-3.3,3.72-2.16,8.72-6,1.22-3.54,4.07-5.17,6-7.49.69-8.09,3.27-10.87,5-6-1.81-6.87.76-9.46.84-3.34-3.26-6.18-2.94-8.72-2.62-1.72-2.46-3.44-5.14-7.42-5.63-1.3-2.91-2.35-6.13-5.77-8.32-.63-6.54-2.31-5.91-2.95-8.84,2.08-4.8.09-8.27-.27-11.79,3.47-3.73,5.06-7.4,4.67-10.8,5-1.8,8.36-4.57,10.33-8,2.86.83,9.2-.34,12-3.88,3.61,3.39,10.18,2.73,13.66.29,1.39,3.19,9.09,6.89,14.93,6.35,2,3.66,4.92,7.17,10.81,8.46l-.05-.08Z"/>
        </g>
      </g>
      <g id="g11758-8-6">
        <g id="g11353-9-0-0-4">
          <path id="path11317-0-2-9-9" class="st6" d="M392.35,205.02l-24.59,4c5.51,14.53,11.91,23.83,19.31,29.39,6.77,5.08,13.36,7,24.92,6.88-3.37-3.54-9.52-9.47-10.69-13.62,5.38,2.7,11.14,1.93,16.33.71-15.04-9.36-19.03-19.36-25.28-27.36Z"/>
          <path id="path11319-5-3-2-2" class="st27" d="M396.71,216.89h0c-.71,6.16,1.88,12.42,5.28,17.6l-.21-2,3.58.23c-.43-.28-.88-.51-1.35-.7-.46-.26-.86-.6-1.2-1-3.22-4.14-5.32-9.04-6.1-14.22v.09Z"/>
          <path id="path11351-22-9-4-2-9" class="st4" d="M398.61,213.89c-.69,9.22,5,17.33,15.53,16.32-6.29-4.27-11.58-9.83-15.53-16.32Z"/>
          <path id="path11317-9-7-9-3-3" class="st13" d="M392.35,205.02l-24.59,4c5.51,14.53,11.91,23.83,19.31,29.39,6.77,5.08,13.36,7,24.92,6.88-3.37-3.54-9.52-9.47-10.69-13.62,5.38,2.7,11.14,1.93,16.33.71-15.04-9.36-19.03-19.36-25.28-27.36Z"/>
          <path id="path11347-3-7-3-4" class="st4" d="M377.35,220.02c4.11,7.14,10,19,28.37,22.34-7.37-6.67-12.81-15.34-12.63-28.34-11.07-4.31-16.61,4.25-15.74,6Z"/>
          <path id="path11349-7-0-9-4" class="st19" d="M382.09,217.89c3.71,8.42,8.17,15.59,16.9,20-4.34-6.58-7.79-13.32-8.58-21.16-3.38-1.71-5.75-1.71-8.32,1.16Z"/>
        </g>
        <g id="g11262-0-0">
          <path id="path10826-9-7-5-6-5" class="st8" d="M332.29,213.36c2.95-.07,5.7,1.28,8.84,3.81,2.39,2.08,4.92,3.98,7.58,5.7,1.32.74,2.68,1.41,4.08,2,4.15,1.68,2.71,0,2.11-3.56-.28-1.68.75-3.71,1.33-4.64,1.06-1.7,4.48-2.73,6-1.93l10.62,5.55c7.46-10.39,16-11.65,24.84-9.18,1.34,0-4.69-13.76-14.24-17.42-5.64-2.16-18.7-2.86-18.7-2.86,0,0-55.61-3.56-82.67,1.73-13,2.54-18,14-22.22,25.76-4.37.62-5.46,5.92-2.9,8.08-3.42,0-6.07,5.53-3.92,8.2-3.87,1.25-2.43,5.23-3.86,8-13.9,27.2-40,64.5-40,64.5l28,24,49.67-20.65c-.41-17.29.05-34.58,1.37-51.82,2.08-2.45,3.72-6.65,1.07-10.09,2.68-1.36,4.37-5.88,1.48-9.52,3.17-2.72,3.56-6,2.22-9.42,1.59-5.31,3.91-8.06,8.79-10.69,9.07-4.89,19.07-5.39,30.54-5.66l-.03.11Z"/>
          <path id="path11254-5-9" class="st25" d="M341.65,213.28c3.39,1.48,9.39,5.93,9.39,5.93-.15-1.08-.15-2.19,0-3.27.45-1.61,1.33-3.06,2.56-4.19,1.47-1.31,5.88-1.35,5.88-1.35,5.1,1.17,12.71,5,12.71,5,0,0,4.72-6.53,8.21-8.21,3.72-1.79,12.31-1.37,12.31-1.37,0,0-4.58-7.58-9.71-9.4-10-3.57-30-3.36-30-3.36-22.63-1.29-51.61-3.52-72.95,3.65-3.96,1.2-7.45,3.59-10,6.84-3,3.94-4.69,9.49-6.26,14.94-3.38,1.32-5.27,4.94-3.32,10.13-3.57-.1-5.62,4.5-3.62,7.9-6.55,3.31-3.12,6.19-4.77,9.32-5.75,10.89-11.61,21.09-11.61,21.09,4.82,7.72,7.72,15.43,6.75,23.15,11.64-7.85,23.28-10.63,34.92-12.77,0,0,.16-8,1.13-18.22,3.12-1.37,3.91-8.22,1.27-10.8,4.37-2.44,4-9.75,1.58-10.25,4.44-2.55,4.79-8.22,2.66-9.54.97-3.23,2.36-6.31,4.13-9.18,3.15-4.79,6.52-5.18,11.85-7.29,5.76-2.29,10.64-2,16.81-2.63,6.36-.65,14.17,1.32,20.08,3.88Z"/>
          <path id="path11256-4-6" class="st22" d="M313.65,206.77c6.1-.97,12.32-.91,18.4.18,6.24,1.36,16.34,6.74,16.34,6.74,0,0,1.65-3.14,3.06-4.08,1.84-1.01,3.9-1.54,6-1.54,2.13.05,4.24.31,6.32.76l8.17,3.21s3.6-5.66,6.44-7.18c3.08-1.65,10.4-1.48,10.4-1.48-1.72-1.64-3.63-3.05-5.7-4.21-2.67-1.16-5.52-1.84-8.42-2-15-3.34-38.34-3.38-52-3.22s-27.18-.52-35.41,2-11.4,3.37-15.82,8.67c-2.92,3.48-3.81,8.3-5.41,14.19-3.11,2.4-5.5,5.17-3.5,10.07-4.64,2-5.11,5.44-4.12,8.62-5.36,3.12-4.92,6.27-5.52,10.35-1.6,10.8-9.18,18.17-9.18,18.17,4.6,5.5,7.61,11.39,6.44,18.32,8.61-5.25,17.18-10.77,26.49-10.4,0,0,1-7.29,2.33-16,3.06.7,4-6.42,1.6-10,3.74-1.39,3.81-8.12,1.52-10.6,4.52-2.49,4.66-8.14,3.12-9.82,2.25-6.86,3.7-9.39,7.78-13.25,4.71-4.46,9.66-5.44,20.66-7.5h.01Z"/>
          <path id="path9010-3" class="st18" d="M327.35,196.63c-11.14-.29-22.28.25-33.34,1.63-4.47.43-8.83,1.66-12.87,3.63-3.62,2-6.64,2.91-8.49,5.88-2.83,4.52-2.29,9.79-4.53,15.55-5.48,14.09-19.8,39.83-20.56,41.19,4.4,4.28,5.77,8.66,6.83,12.76,5.51-4.54,12.22-7.41,19.31-8.25.08-.81.77-7.35,2.19-16.39,1.5-9.58,3.66-20.93,6.46-28.34,1.66-4.37,3.72-9.1,7.42-12.46,4.72-4.28,11-6.21,16.77-7.9,8.39-2.38,17.21-2.84,25.8-1.36.09,0,.17.03.25.07l14.19,5.54c3.13-3.37,7.72-4.44,12.32-4.13,4.41.4,8.71,1.64,12.65,3.66.31-.41.47-.7,1.12-1.49.99-1.29,2.14-2.45,3.42-3.46,1.06-.69,2.25-1.16,3.49-1.39-5.85-2.1-12.38-2.36-18.88-2.9-11-.92-22.28-1.7-33.53-1.9l-.02.06Z"/>
        </g>
      </g>
      <g id="g11401-2-3-9-4">
        <g id="g11353-3-4-8-2">
          <path id="path11317-8-8-2-8" class="st6" d="M309.07,606.02l-25.41,8.88c8.3,15.12,16.69,24.27,25.45,29.12,8,4.41,15.37,5.38,27.61,3.14-4.18-3.31-11.71-8.77-13.64-13.16,6.16,2,12.15.14,17.45-2.15-17.58-7.68-23.5-18.06-31.46-25.78v-.05Z"/>
          <path id="path11319-0-3-2-8" class="st27" d="M315.67,618.45h0c.29,7,4.1,13.41,8.58,18.54l-.55-2.12,3.83-.39c-.5-.23-1.02-.4-1.55-.53-.52-.2-1.01-.49-1.44-.85-4.15-4.05-7.2-9.09-8.87-14.65h0Z"/>
          <path id="path11351-2-9-6-7" class="st4" d="M317.18,614.82c.83,10.34,8.21,18.3,19.25,15.28-7.45-3.64-14.01-8.86-19.25-15.28Z"/>
          <path id="path11317-9-4-0-4-5" class="st12" d="M309.07,606.02l-25.41,8.88c8.3,15.12,16.69,24.27,25.45,29.12,8,4.41,15.37,5.38,27.61,3.14-4.18-3.31-11.71-8.77-13.64-13.16,6.16,2,12.15.14,17.45-2.15-17.58-7.68-23.5-18.06-31.46-25.78v-.05Z"/>
          <path id="path11347-8-5-0-8" class="st4" d="M295.67,625.42c5.57,7.16,13.82,19.23,33.88,19.64-8.91-6-16.18-14.62-18.19-29.1-12.51-2.8-16.93,7.66-15.69,9.46Z"/>
          <path id="path11349-3-2-0-1" class="st19" d="M300.35,622.22c5.36,8.66,11.31,15.79,21.31,19-5.72-6.51-10.52-13.35-12.68-21.89-3.88-1.11-6.41-.81-8.63,2.89Z"/>
        </g>
        <g id="g11309-2-0-2">
          <path id="path13457-7-8-4-5" class="st8" d="M176.27,536.52c2.87,4.19,7.4,7.4,11.77,10.82,6.06,4.74,14.36,9.51,21,14,9.69,6.63,15.41,12.81,22.39,20.76,3.63,4.14,6.18,9.47,8.36,13.58s4,7.09,5.44,10c2.23,4.61,6.28,8.77,10.63,13.08,4.85,4.79,8.77,7.13,7.31-1.76-.61-2.85-.41-5.82.56-8.57,1.9-5,6.25-6.22,10.14-3.4,4.65,3.36,4.26,11,7.89,15.49,2.55,3.17,9.44,7.74,9.44,7.74,1.85-6.43,2.65-13.82,8.2-16.9,4.07-2.26,6.86-1.66,18.31,2.79l-2-8.58c-.46-1.93-3.11-5.49-4.43-6.74-5-4.69-11.46-7-18.2-10.88-17.33-10.06-38.33-20-53.41-33-5-4.31-9.66-9.69-11.77-16-2-6-2.86-13.28-.26-19.09,7.12-15.9,22.38-18.25,31.88-32.86,2.44-3.74,8.43-13.38,8.43-13.38,0,0,6.52-3,8.51-5.93,3.87-5.8,3.49-11.86,2.75-19.51-.68-7-.12-11.06-4.36-15.86.05-4.93-5.39-7.27-8.57-5.16-1-8.82-6.66-11.38-12.4-9.8.84-7.41-7-11.43-11.27-9.36,2.58-4.69-6.9-11.49-11-7-1.89-8.5-9.74-8.82-12.29-6-.43-5.31-5-5.35-10-4.94-17.29-7.06-54.42-17.63-54.42-17.63l-20.3,59.29s37.8,9.19,31.89,26.54c-1.61,4.69,5.08,8.35,8.87,2.43,1.2,7.78,7.22,9.14,11.07,4.42-3.12,4.67,6.32,9.76,9.36,2.8,4,12.71,12.79,3.5,12.79,3.5,0,0-10.37,14-14.28,21.73-3.44,6.79-8,21.42-8,21.42,0,0-8.76,1-10.88,4.21-3.23,5-2.48,12.89.85,17.74h0Z"/>
          <path id="path11297-3-1-7" class="st25" d="M192.01,387.79c-23.65,18.7-17.58,39.67-32.58,56.67-1.52.26,9.73-3.56,9.32,4.43-.26,5.21-4.5,5.43-.41,3.53-2.09,2.48,1.37,10.6,8.82,3.76,1,7.54,5.82,6.94,9.8,3.81,1.55,4.22,7,7.15,11.66,3,.63,4.53,6.79,6.34,11.91,1.39,6.3,1,12.23,2.1,12.23,2.1,0,0-15,16.9-20.66,26.56-4.65,7.91-8.11,24.59-8.11,24.59,0,0-12.12.51-14.2,4.2-.68,2.8-.79,8.37.26,11,3.94,9.89,21.29,17.94,28.19,22.74,24.19,16.82,28.78,24.84,41.63,52.1,2.37,3.18,8.76,8.06,8.76,8.06.58-5.71,1.19-9,3.93-12.1,3.61-4,10.06-6.22,16.43.51,3.66,4.57,1.81,9.51,5.51,14,1.3,1.6,5,3.57,5,3.57,0,0,3.09-10.26,7.39-13.13,5-3.34,17.11,1.18,17.11,1.18l-2.94-6.55c-3-6.75-11.3-8.78-17.81-12.44-16.67-9.37-36.23-18.91-51.3-31-5.49-4.39-10.36-7.9-13.42-14.22-3.33-6.84-7.36-15.45-5.66-22.87,1.48-6.47,10-16.53,10-16.53,5.51-7.74,14.91-10.71,20.69-18.25,4-5.27,10-17.81,10-17.81,0,0,8.86.58,11.47-4.24,4.13-7.62,4.13-25-2.41-30.64-2.83-2.11-5.77-4.07-8.8-5.87-.57-3.33-1.48-10.26-13-9.59,2.22-7.77-5.85-10.45-10.71-8.64-2.48-9.33-6.81-7.36-11.28-7.45-2.81-6.3-5.16-7.18-10-5.36-1.72-4.59-9-6.57-11.8-5.23-4.68,2.27-10.11-3.75-15-5.37l-.02.09Z"/>
          <path id="path11299-7-7-4" class="st22" d="M190.93,393.52c-9.2,16.83-9.44,37.59-25.81,50.87,2.13,1.62,4.46,2.96,6.93,4,.63,4.69-60.87-9.78-1.4,1.45-3.86,2.67,3.12,6.79,8.4,1.55,1.71,9.14,7.21,5.86,9.86,3.52,2.79,7.38,9.1,6.46,10.75,3.11,2.11,8.19,8.27,5.8,12.3,3.43,5.48,1.41,11.07,2.39,16.7,2.93,0,0-14.91,16.9-21.67,25.91-1.95,2.8-3.56,5.82-4.8,9-3,6.73-6.54,21.44-6.54,21.44,0,0-9.94,0-12.16,2.06s-1.7,3.28-1.39,5.72,2.37,5.36,4.18,7.84c2.05,2.43,4.27,4.71,6.64,6.82,0,0,12.79,8.34,29.09,18.23,6,3.65,14.32,13.29,18,19.31,4.54,7.5,7.2,17.07,12.71,23.9l2.94,3.64c4-14,18.75-18,27.27-3.86,2.14,3.56,2.28,10.83,2.28,10.83l3.68,4.59s.79-9.37,4.42-12.35c4.59-3.77,16.86-1.15,16.86-1.15-1.64-1.98-3.4-3.85-5.28-5.6-5.44-4.61-18.79-10.93-18.79-10.93-11.16-5.67-22.02-11.92-32.53-18.72-7.06-4.56-14.21-9.18-20.23-15-3.37-3.06-6.2-6.67-8.37-10.67-3.06-6.19-6.84-13.33-5.48-20.09,4.63-22.87,18.21-24.73,32.15-39.56,3.93-5.07,9.42-17.11,9.42-17.11,0,0,6.86-1.37,9.66-3.32,1.33-.9,2.37-2.17,3-3.65,2.04-5.5,2.54-11.45,1.44-17.21-.51-2.88-1.44-5.19-3.9-6.77-3.19-3-10-5.62-10-5.62-.59-5-5-10.07-12.23-10-1.61-2.44-3.07-9.61-11.38-8.32.72-2.24-4-7.46-10.12-6.18-1.56-5-5.65-7.23-10.69-5.9-1.23-4.36-12-6-15.67-4.88-5.54-10.79-8.19-7-10.26-3.19l.02-.07Z"/>
          <path id="path11303-9-6-4" class="st20" d="M214.85,405.8c-38.43-11.78-14,20.76-39.12,39.15,0,0,38.22,14.21,56,17.32,8.64,1.51,24.36,10,24.36,10-1.14-1.37-2.19-2.8-3.17-4.29-1.87-3.18-3.86-6.45-4.58-10.07s-.88-7.74.42-11.27c1.46-3.91,7.82-9.78,7.82-9.78,0,0-6.14-6.14-9.58-8.84-10.13-8.21-20.88-15.62-32.15-22.17v-.05Z"/>
          <path id="path11305-0-7-4" class="st20" d="M261.11,465.57c1.66.63,3.5.6,5.14-.07,2.55-1.14,4.37-3.7,5.63-6.19,1.41-2.96,2.06-6.23,1.9-9.51-.12-3.48-.2-7.7-2.74-10.07-1.67-1.55-4.46-1.75-6.69-1.34-3.25.6-6.9,2.34-8.38,5.29-2.8,5.55-2.2,13.58.56,19.15.74,1.49,3,2.17,4.58,2.74h0Z"/>
          <path id="path11307-2-1-4" class="st20" d="M229.12,563.81c14.52,12.76,17.34,22.62,25.06,39.44,11.63-20.48,34.29-9.11,33,12,0,0,1.72-8.83,4.78-11.74,2.29-2.16,8.92-3.1,8.92-3.1,0,0-10.71-5.23-16-8.07-11.85-6.45-22.53-13.11-33.67-20.63-8-5.38-15.91-10.05-22.6-17-4.24-4.39-10.38-9.35-12.27-15.15-1.47-4.49-.83-9.5-.1-14.17.82-5.24,2.16-10.62,5-15.12,5.23-8.37,14.84-13.12,21.22-20.66,3.18-4.13,6.15-8.42,8.89-12.86,0,0-1.9-3.5-3.48-4.6-3.8-2.67-13.33-4.13-13.33-4.13,0,0-8.62,9.92-12.77,15-5.85,7.2-13,13.63-17.08,22-2.94,6-4.29,12.84-4.88,19.52-.48,5.44-1.51,11.56,1.13,16.34,3.48,6.31,14.55,12,14.55,12,4.7,3.38,9.23,7,13.56,10.85l.07.08Z"/>
        </g>
      </g>
      <path id="path8092-4" class="st8" d="M160.35,465.89l10.91,10.56,16.9-30.26c-1.26-1.55-2.68-2.97-4.23-4.23-2.22-1.5-7.39-3.17-7.39-3.17l-16.19,27.1Z"/>
      <g id="g11353-9-08-2">
        <path id="path11317-0-4-9" class="st6" d="M321.48,370.02l-9.05-23.31c-13.65,8.23-21.8,16.3-26,24.62-3.79,7.61-4.43,14.44-2,25.73,2.92-4,7.7-11.17,11.68-13.12-1.65,5.79.29,11.27,2.58,16.11,6.49-16.57,15.87-22.42,22.73-30.07l.06.04Z"/>
        <path id="path11319-5-0-3" class="st27" d="M310.29,376.52h0c-6.41.51-12.24,4.26-16.82,8.6l1.94-.59.49,3.55c.19-.47.34-.96.44-1.46.16-.49.41-.95.73-1.36,3.6-3.98,8.15-6.99,13.22-8.74Z"/>
        <path id="path11351-22-4-0" class="st4" d="M313.69,377.81c-9.51,1.13-16.6,8.25-13.44,18.38,3.1-7.02,7.69-13.29,13.44-18.38Z"/>
        <path id="path11317-9-7-6-7" class="st16" d="M321.48,370.02l-9.05-23.31c-13.65,8.23-21.8,16.3-26,24.62-3.79,7.61-4.43,14.44-2,25.73,2.92-4,7.7-11.17,11.68-13.12-1.65,5.79.29,11.27,2.58,16.11,6.49-16.57,15.87-22.42,22.73-30.07l.06.04Z"/>
        <path id="path11347-3-4-7" class="st4" d="M303.17,358.22c-6.42,5.41-17.28,13.48-17,32.1,5.26-8.47,12.93-15.51,26.23-17.88,2.2-11.67-7.61-15.42-9.23-14.22Z"/>
        <path id="path11349-7-6-8" class="st19" d="M306.28,362.43c-7.8,5.27-14.18,11-16.85,20.43,5.81-5.54,12-10.23,19.77-12.53.94-3.61.54-5.95-2.92-7.9Z"/>
      </g>
      <path id="path11317-7-4-3-7" class="st6" d="M119.35,712.89l-27.64,3.63c5.32,16.4,11.93,27,19.86,33.47,7.25,5.91,14.49,8.31,27.39,8.55-3.56-4.07-10.08-10.9-11.14-15.57,5.84,3.2,12.31,2.54,18.16,1.36-16.27-11-20.14-22.32-26.63-31.45h0Z"/>
      <path id="path11319-7-8-7-3" class="st27" d="M123.49,726.3h0c-1.15,6.86,1.39,13.93,4.88,19.83l-.12-2.18,4,.38c-.19-.26-.84-.45-1.46-.83-.49-.29-.93-.67-1.29-1.11-3.36-4.75-5.43-10.3-6-16.09h0Z"/>
      <path id="path11351-9-1-1-0" class="st4" d="M125.77,723.02c-1.29,10.27,4.56,19.51,16.39,18.76-6.76-4.99-12.35-11.39-16.39-18.76Z"/>
      <path id="path11317-9-5-8-8-3" class="st12" d="M119.35,712.89l-27.64,3.63c5.32,16.4,11.93,27,19.86,33.47,7.25,5.91,14.49,8.31,27.39,8.55-3.56-4.07-10.08-10.9-11.14-15.57,5.84,3.2,12.31,2.54,18.16,1.36-16.27-11-20.14-22.32-26.63-31.45h0Z"/>
      <path id="path11347-33-5-9-8" class="st4" d="M119.62,723.02c-12.1-5.22-18.76,4.13-17.89,6.13,4.18,8.11,10.07,21.54,30.36,25.92-7.81-7.66-13.42-17.5-12.47-32v-.05Z"/>
      <path id="path11349-38-3-3-2" class="st19" d="M116.43,725.89c-3.67-1.9-6.31-2.08-9.34,1.07,3.65,9.52,8.22,17.67,17.71,22.85-4.47-7.5-7.93-15.14-8.37-23.92h0Z"/>
      <path id="path11317-0-7-1-7-5" class="st6" d="M322.02,368.76l-9.07-23.24c-13.65,8.22-21.81,16.29-26,24.61-3.8,7.61-4.44,14.44-2,25.73,2.91-4,7.69-11.17,11.68-13.11-1.66,5.78.29,11.27,2.58,16.11,6.49-16.58,15.86-22.43,22.72-30.08l.09-.02Z"/>
      <path id="path11319-5-5-9-4-2" class="st27" d="M310.85,375.31h0c-6.41.51-12.25,4.27-16.83,8.6l1.94-.58.49,3.54c.2-.47.35-.96.44-1.46.17-.49.42-.95.74-1.36,3.59-3.99,8.14-7,13.22-8.74Z"/>
      <path id="path11351-22-95-3-8-0" class="st4" d="M314.24,376.59c-9.52,1.13-16.61,8.25-13.45,18.38,3.11-7.02,7.7-13.29,13.45-18.38Z"/>
      <path id="path11317-9-7-3-9-0-3" class="st12" d="M322.02,368.76l-9.07-23.24c-13.65,8.22-21.81,16.29-26,24.61-3.8,7.61-4.44,14.44-2,25.73,2.91-4,7.69-11.17,11.68-13.11-1.66,5.78.29,11.27,2.58,16.11,6.49-16.58,15.86-22.43,22.72-30.08l.09-.02Z"/>
      <path id="path11347-3-2-1-4-7" class="st4" d="M303.71,357.02c-6.42,5.42-17.28,13.49-17,32.11,5.26-8.48,12.94-15.52,26.23-17.88,2.2-11.73-7.59-15.45-9.23-14.23Z"/>
      <path id="path11349-7-7-0-0-2" class="st19" d="M309.74,369.12c.95-3.62.55-6-2.92-7.91-7.8,5.27-14.18,11-16.85,20.43,5.81-5.53,12-10.22,19.77-12.52h0Z"/>
      <path id="path20357-42-32-9" class="st25" d="M60.13,451.89c-3.92-1.36,2.28,9.48,2.64,10.09,5.11-9.32,10,21.28,14.46,43.29-.14,3.42-2.34,5-6.31,7.65-2.74,1.87-2,6.78-10.62,7.79-4,5.59-7.29,9.83-12.17,13.8-7.22,5.87-11.6,14.43-17.26,19.3-1.41,1.22-4.55-.68-6.31-.15-2.12.64-2.86,3.62-4.44,4.19-3.15,1.15-7-1-8.45-1.24,1.84-1.83,2.1-3.31,1.12-3.51-2.5-.51-11.72-1.29-4.07-9.78,11.63,10.11,68.33-50.8,37.88-51.43,3.77-5.57,9.69-13.15,9.87-19.6.1-3.73.37-4.27-.69-7.67-3.12-10,4.35-12.73,4.35-12.73Z"/>
      <path id="path60872-9-7" class="st22" d="M94.57,253.02c-4.43,4.3,2.63,13.72,8.77,9.92-.53,2.22-1.94,3.38-1.76,4.41.75,4.28,7.76.47,8.77,2-7.6,8-12.25,40-3.84,62.86-3.44,41.31-20.92,47.31-34.72,86.81-14.36,41.17,14.4,100.3,14.4,100.3-14.3,13.7-22.76,27.4-30.2,41.09-6.64,4.92-15.12,6.48-21.71,12.16-6.79,5.84,2.78,20.1,4.45,28.9,3.09,16.29,5.65,30.53,7.18,47,.82,8.84-1,19.31-.35,28.71.62,8.59-1.05,42.24,10.1,43.83,3.1.44,4.55-7.11,8.92-10.09,3-2,8.67-1.85,11.91-.78,2.89,1,6.58,2.92,9.1,9.22.63,3.33.4,6.26,2.9,9.22s10.16,4.88,10.16,4.88c.31-7.39,3-11.24,7-13,4.88-2.12,11.81-1.17,19.08.31,0,0-1.35-9-5.39-13-8-8-24.38-16.24-31.28-25.16-14.51-18.78-17.71-49.8-12.28-72.47,2.13-9,4.25-13.83,9.55-21.48,4.14-5.69,9.21-10.64,15-14.64,12-8.68,37.81-21.43,37.81-21.43,4.65-2.4,8.44-9.26,11.67-13.87,10.67-21.24,15.54-36.08,13.83-49.88-1.46-11.83-2-20.6-12-29.8,21.64-46.42,60.36-87.65,74.16-126.6,0,0,4.27,7.87,8.47,7.81.83,0,1-3,2.43-3.08s4.09,2.66,5,2.48c8.46-1.7,16-6.81,24-11.86,14.32-9,24.76-22,37.1-32.64,7.08-6.01,14.73-11.32,22.84-15.86,2.83-1.6,4.15-3.26,5.38-2.07,1.48,1.42,2.74,1.91,3.21,3.87.4,1.65-1.29,4.81-1.29,4.81-5.2,12.18-6.29,23.07-11.39,31.55-1.46,2.43-3.46,6.29-6.52,8.35-4,2.71-11.33,4.62-14.43,9.1l-1.25,1.84c-1.23,1.78,3.57,1.65,5.51,2.87,1.42.91,2.94,2.1,3.41,3.68.54,1.82-1.85,7-1.85,7,10,5.26,11.63,12,9.2,24.57,0,0,5.67-1,8-2.56,4.94-3.23,7.42-5.63,9.88-10.87,3.63-7.73,3.35-19.32,5.61-27.51,4.32-15.73,15.32-41.2,21.56-55.22,2.73-6.13,3-11.27.5-14,0,0-6.06-12.47-15.41-15-3.31-.9-9.88.88-9.88.88-5.26,1.53-10.6,2.76-16,3.69-7.16,1-14.6.64-21.7,2-14.75,2.75-44.25,15.75-44.25,15.75-.65-3,2.75-.23,2-3.16,1.13-4.48.82-8.45-3.68-12.09-12.22-6.83-.68-9.35-5.21-17.81-2.19-4.08-7.42-9.06-12.39-11.75,1.11-.07-9.94-.63-6.45-2.27,0,0,5.6-1.52,2.49-4.23-3.87-3.36-7-9.79-11-12.94-8.15-6.34-25.5-9.53-25.5-9.53,1.47-.32-9.33-1.26-7.3-3.15-1.67-1.55-3.58-2.82-5.66-3.76-5.62-2.6-10.37-4.8-15.89-7.58-4.14-2.09-8.49-5.61-8.2-6.17,2.67-.34-5.57-1.34,5.74-2.6-.4,2.38-17.18-4.54-19.52-8.32-15.58-10.9-14.77-12.42-24.2-21.77,6.3-2.87,21-8.9,29.82-8.22,9.19.71,16.72,1.89,23.92,2.44l1,6.72-.47-6.36,4,.52,23.89,1.65,5.91-.68c7.56-4.28,7.24-3.3,9.74-9.6-1-1.08-2-13.64-3.92-14.57-8.2-14.35-19.26-27.27-30-33.27-7.91-4.42-14.24-12.36-20.15-17.16-6.78-6.58-7.88-3.16-15.94-5.07,7.69-2.2.48-12.87-2.92-8.21,2.51-7.45-13.94-7.21-8.92-3.9-4.89-7.6-14.41-.25-12.27,1.1-5.5-5-11.91,1.94-11.37,4-2.62-.13-9.45-4.41-12.67,3.9-9.77-3.41-12.61,2.49-13.84,6.59-15.74-4.57-18.31,19.47-8.72,10.34-.27.18-3.28,1.74-3.54,1.93-8.68-10-14-7.3-42.63-9,13.81,19.71,10,21.45,31,22.85-.23.4-6.2,3.55-6.43,4-3.89,7-4.46,7.14-6.42,15.14-5.68,4.68-5.37,9.44-3.71,14.87-8,6.94-3.15,16.65-1,18.6-3.83,3.83-5.14,7.32-3.48,11.07,2.52,5.68,2.06,5.46,5.19,8.73-5.26,11.21,4.88,15,6.33,14.14-3.9,6.15-1.81,13.56,4,16.22-2.28,4.67.87,7.6,2,8.76,1.48,1.48,3.51,1.08,5.19,2.23-1.2,11,7.4,12.92,7.83,12-3-.51-.39,14.08,7.17,11.37-2.38,2.39.53,15.13,8.29,12.74.45,12.68,2.31,11,8.53,12.23v.03Z"/>
      <path id="path10748-7-0-1-3-5-5" class="st25" d="M242.94,278.52l-2.56-.41-6.85-11.12-7.68-6.55c1.15.38,10.61-4.1,5.59-12.29,3.21-2.68,2.48-7.7-1.09-8.61,1.78-3.8-.16-8.58-5.4-8.6-.48-5.21-3-8.27-7.29-7.12.8-4.83-6.06-9.39-10-6.76-2.44-6.7-7-7.81-11.2-6.17-.44-4.34-3.18-6.31-7.13-4.65-.18-5.38-5.52-8-10-5.38.93-5.92-7.22-7-9.34-5.65-2.08-6.42-6.93-7.8-11-6.46-1.14-5.27-3.42-7.67-11.11-7.44-.09-9.13-6.8-8.37-10.84-8.77-.31-5.62-5.72-7.33-10.29-8.08.06-7-3.2-8.91-7.4-8.82-2.83-3.52-6.83-8.15-9-11.7-2.57-9.75,2.66-5.86,8.57.75,5.69,6.35,16.72,11.63,20.94,18,40.9,30.33,96.5,38.67,112.16,100.45.75,2.93,1.24,5.91,1.89,8.91l-10.97,6.47Z"/>
      <path id="path20357-42-9-1-9-3" class="st22" d="M64.52,475.89c.37,6.54-6.75,19.23-2.25,29.16,2.27,5-1.05,11.38-6.43,9.91-.63,3.54-1.78,7.29-8.21,9.25-.16,2.75-.92,5.32-5.61,6.42-.37,2.38-.5,6-6.13,6.45-.3,3.85-2.35,6.42-6.89,5.86-1.25,3.45-3.6,5.09-6.13,3.45-.66,4.29-4.35,1.21-4.35,1.21.09,1-3,3.51-4.94-.09-2.9,1.64-4.12,1.21-3.74-1.21-3.73-5.28-7.16-7.42.59-10.73-2.33-1.65-3.59-8.35,5.7-8.23-1.14-6.76,2.75-6.42,7.28-6,.38-5.19,1.72-10.29,6.65-7.47-1.12-7.09,2-8.34,6.61-8.34-.09-10.5,6.88-8.09,7.64-8.48-2.6-12.71,7.78-8,6.29-9.9-3.59-4.65-1.37-10.24,2-9.29,2.79.79-7-10.37,4.47-11.89,1.31-.17-2.48-3.46-2.74-6.65-.14-1.41.38-2.8,1.4-3.78,7,3.37,8,13.71,8.43,16.5l.36,3.85Z"/>
      <path id="path10748-7-39-0-2-7-4" class="st25" d="M72.77,398.31c1.65-2.23,3.99-3.86,6.66-4.61-2.9-3.34-2.18-6.39-1.24-7.87,1.1-1.86,3.31-2.75,5.39-2.19-.78-1.63-3.58-3.4-2.15-6.59,1.28-2.85,4.18-2.89,6.27-3.12-1-2.41-2.74-5.26-1.86-6.41,1.07-1.39,3.71-3.1,5.61-2.57-.55-3.09-3.11-4-3.1-5.82,0-5.47,4.7-6.67,7.42-5.19-4.14-6.23-1.48-8.55-1-10.09,1-3,4.25-.78,5.28-2.64-8.9-9.32-4.13-14.32,3.43-14.54-8.26-4.73-7.26-12.56.61-17-2.17-.53-6.39-4.56-6.06-8,.41-4.26,4.37-5.55,7.15-7.42-7.65-5.84-3.5-13.07,2.83-14.27-2.44-3.09-3.56-10.29,3.37-11.26-2.17-2.47-3.11-7.2,1.88-8.7,2.18-.66-1.66-1-2.78-1.9-11.8,5.09-13-4.62-5.46-11.76-11,6.43-17.24-4.08-6.56-11.42-8,5.08-20.12-3.47-10.27-11.92-8.32,5.34-15.07-1.32-9.79-12-10.24,5-15.15-5.33-9.19-11.6-6.41,1.55-13.19-.92-7.53-10-10.17,1.46-8.52-8-6-13-11.25-3.78-5.83-11.12-4.25-16.4-5.37-3.61-4.66-10.3-4-16.54-4.11-5.55-4.39-14.81.53-19.31.81-11.53,3.21-21.09,8.35-30.32,1.85-3.31,10.49-2.82,13-5.76l3-8.86c1.16-3.29-1,.13,3.91-3.44,13.24-9.54,28.87-18.11,44.32-16.16l15.74,2c-18.11-3-32.83-2.68-47.13,8.49-3.23,3.08-13.51,11.91-17.35,18-3.72,5.86-7,15.09-8.24,19.15-3.47,11-3.28,22.5-1.73,33.92,1.48,10.79,5.17,21.16,10.83,30.46,6.11,9.94,19.08,22.28,26.65,31.28,10.67,12.58,21.07,23,28.31,37.68,7.62,15.45,4,22.93,5.11,40-14.47,16.83-16.84,27.52-12.15,46.23-8.93,52.37-27,68.45-41.83,118.47-4.84,16.34,8.2,74.43,8.2,74.43-6.39-10.44-12.1-21.28-17.1-32.46-4.77-10.85-2.39-23.58-10.29-27.14-8.1-3.72,1.9-6.29,1.9-8.56-1.27-1.4-3.29-2.28-3.94-4.26-.52-1.61.17-4.37.38-5.33.55-2.58,3.7-2.23,5.4-3.5-2,.68-3-2-3.27-3.75s1.1-5,1.72-5.84c1.06-1.38,4.12.22,4.85-1.58-.61-1-1.49-.54-1.85-1.61-1-3-.06-7.6,6-9.76-4.56-7.12-2.07-8.54.81-9.64,1-.38,2.58.1,3.19-.72-2.06-2.57-3.32-5.19-1.98-7.28Z"/>
      <path id="path20357-42-3-7-2-3" class="st7" d="M36.65,540.38c5.46-.49,7.92.08,7.22-6.88,4.69.14,8-2.6,7-6.57,3.66-1,7.09-2.36,7.76-7.45,9.62-1.55,8.19-3.56,8.95-9.16,5.71-7.41,10-6-.23-55.37l18.5,62.57-8.6-12.27c.07,3.29-.35,10.94-7.87,9.11.84,12.72-6.27,8.21-7.68,7.71,1.62,3.46-.5,8.81-6.91,6.42.37,4.47.13,8.78-8.24,7.64,1.12,1.55,1.94,7.7-7,6.39.75,3.83.25,8.14-6.6,7-1.61,3.53-1.52,5.76-8,4.54-.09,1.76.28,4-2.39,4.65-5,1.19-2.87-1.87-4.69-2-6,5.88-9.67-.2-5.16-7.13.26-.09.07,8,5.49,2.77-.57,3.7,6.15,4.74,5-1,2.68,1.09,8.61.41,6.52-5.37,6.15,1.48,7.56-.24,6.91-5.58l.02-.02Z"/>
      <path id="path11583-3-9-8-0-2" class="st7" d="M86.18,519.45c-2.75-14.84-7.08-27.12-9.61-38.12-2.49-10.81-4.83-20.81-4.52-30.4-1.2-3.34-2.9-6.62,1.4-9.84-1.94-3.83-.74-7.37,3.32-10.64-1.49-4,.24-6.86,4-11.06-1.12-3.6.4-7.26,3.62-10.23-2.26-7.09,3.18-11,5.66-12.66-2.14-3.45,2.9-8.77,5.26-9.61-1.42-4.84.8-10.01,5.3-12.31-2-2.77.67-7.13,3.33-8.32-1.7-4.37.75-10.6,4.13-11.54-1.5-4.82-1-9.37,3.71-12.86-4-5.68,1.15-12.42,2.78-15.42-5.93-7.42-3.74-12.56-2.58-17.85-2.69-5-2.33-9.21.5-13.53-2-4-3.81-8.33,3.65-12.67,1-3.93-1.15-8.77,5.88-13.12,1.85-8.39-5.67-31-5.67-31-3.76-9-10.47-16.71-16.4-24.61-8.38-11.15-19.36-20.43-27-32-5.29-7.79-9.53-16.24-12.59-25.14-2.69-8.09-4.15-16.54-4.34-25.07-.15-8.28.37-15.81,3-23.69s6.28-17.87,11.68-24.24c1.82-2.35,3.43-4.86,4.82-7.49-1.78.93-2.17.28,0-1.08-2.43,1.86-4.55,3-6.07,4.49-10.51,10.68-20.54,28.9-18.09,44.29-1.39,4.76-4.3,7.78.37,18.57-2.36,7-.38,12,4,15.93-4.16,8.47-.85,12.5,5.87,14.92-1.91,3.72-3.17,11.16,7.35,12.3-2.71,6.4,1.28,12.77,8.2,10.67-5.93,6.8,3.11,15.27,8.73,11.15-5.52,9.18,1.88,14.36,9.48,11.14-5,10.63,3.73,14,9.27,12.37-4.94,11.27-.27,10.82,7.21,13-5.81,5.44-1.17,12.25,5.57,10.72,1.69,3.54,2.61,7.09.39,10-1.99,2.61-3.76,5.37-5.3,8.27-4.33-2.1-4.13,4.53-3.16,9.31-4.79,1.39-7.2,8.08-3.06,13.29-7.18,5.47-2.09,12.22-.1,13.8-4.51,5.37-6.56,11.12.82,17.81-4.33,1.54-11.14,5.99-3.84,15.54-6.06,3.1-7.42,8.67-3.28,12.46-6.63,1.89-8,7.6-3.34,10.57-6.28.28-9.41,8.44-3.82,10.19-6.91,1.56-7.48,6.51-4.08,10.09-6.14-1.21-9.37,7.6-4.11,9.75-7.76.47-10.47,10.42-4.91,11.61-7.28.8-7.62,6.61-4.2,10.3-7.11.24-8.94,9.67-4.55,12.42,0,0-7.86,2.27-2.91,9.4-7,4.34-3.33,8-2,11.42-.46,9.22,14,34.11,7.13,47.7-4.4,8.73,5.85,2.37,11.29,14.53.55,2.19,1.85,6.53,1.85,6.53l-.04-.04Z"/>
      <path id="path20357-3-0-1" class="st7" d="M249.35,274.16l1-8.37c1.32-4.19-1.26-5.79-3.53-7.6,1.15-3.2,4.27-6.41-2.78-9.61,1.49-7-1.88-9.56-5.88-11.09,1-6.41-2.87-7.33-6.68-8.34-2.24-7.31-6.16-8.45-10.21-9.1-.11-4.35-6.14-9.63-11-7.38,1-4.41-4.67-8.2-8.49-6.5-1.55-4.94-5-6.12-9.61-4.89.41-2.28-.41-6.72-8.83-6-1.38-3.06-2.42-7.5-11-5.41-1.21-5-6.41-8.89-10.32-7.33-2.34-6.22-6.11-7.21-10.29-6.68-1.51-8.94-6.66-7.71-11.09-8.46-1.17-5.78-5.1-6.95-9.94-6.59-.34-3.48.58-7.35-7.44-8.47l-4.41-7.66c2.14,3.47,6.38.37,10.6,3.26.93.64,5.88,1.42,6.65,3.68.6,1.78-2.16,5.67-2.16,5.67.33-.38,7.19-2.12,9.66,6.75,1.48-.5,13.52-1,10.42,7.87,6.24-3.56,12.26,2.74,10.77,7.09.6-.78,10.51-3,9.58,7,13.9-.66,10.07,2.77,11,5.41,10.66-4.39,9.78,6.23,9.78,6.23,5.16-6.33,12.12.72,8.11,3.94,1-1.25,12.51-4.81,11.18,6.32,2.7-4.23,12.71-1.43,9.72,8.23,11.65-5.9,11.71,8.86,10.65,8.33,8.11-4,16.93,5.7,8.66,10.48,4.41-1.15,15.41,4.12,6.1,12.85,5.89-1.66,8.31,8.51,2.74,9.6.29-.58,10,4.14,1.72,14.7l-4.68,2.07Z"/>
      <path id="path11769-8-4-6-1" class="st7" d="M253.97,272.02l-1.2-7.22-9.92,5.22c-3.74-10.28-9.2-11-17.43-9.94l3.22,1.68,3.22,3.35,4.57,5.91,3.61,6.71,1.48.77h.8l11.65-6.48Z"/>
      <path id="path10748-7-37-6-8-7-3" class="st18" d="M39.85,568.75s6.89,15,9.07,22.95c2.92,10.59,3.9,21.6,5.29,32.47,2.41,18.83-1.08,38.73,5.3,56.67.53,1.5-1.62,6.11-2.44,10-.92,4.39-.49,8.07.9,9.46,1,1,3.66-2.27,6.47-3.77,3.34-1.79,6.93-1.9,8.3-1,6,3.86,18.52,5.09,18.52,5.09,0,0-12.12-9.28-16.92-16-4.32-6-9.59-18.31-11.24-25.47-4.3-18.55-1.11-33.5-.47-52.5.19-5.93.42-12,2.15-17.67,2-6.47,3.5-12.7,7.57-18.19,5.31-7.18,19.43-18.71,19.43-18.71,9.25-8.9,23.32-12.38,32.4-21.3,7.27-7.14,13.53-9,17.13-18.35,5.69-14.82,3.67-9.26,4.87-25,.26-3.44-6.32-19-14.16-24.61s-16.24-8.65-17-12c-6.35-27.48-.52-44.2-1.88-46.5-1-1.75-12.2,3.68-17.87,14.53-7.86,15-17.09,35.25-12,58.41,1.7,7.7,16.75,29.85,16.75,29.85l-13.83,12.18c-2.12-.76-10.47,1.48-9.5,10-9.47,2-11.48,9.94-11.18,14.91-14.49,1.28-9.51,16.14-9.51,16.14,0,0-10.75,5.44-16.15,8.39v.02Z"/>
      <path id="path10748-7-90-9-3-8-2" class="st25" d="M318.91,325.41l-13.56,7.48-4.38,3.92,1,1.48,5.3,3.43.92,3.72-1.84,4.84c10,5.26,11.63,12,9.2,24.56,0,0,5.65-1,8-2.56,4.94-3.23,7.43-5.62,9.89-10.86,3.63-7.73,3.35-19.32,5.62-27.51,4.32-15.68,15.29-41.14,21.56-55.17,2.73-6.13,3-11.27.49-14,0,0-6.05-12.47-15.41-15-3.31-.9-9.89.86-9.89.86-5.26,1.54-10.6,2.78-16,3.71-7.15,1-14.6.63-21.7,2-14.76,2.71-44.21,15.71-44.21,15.71l-11.61,6.62-2.37-.91s-2.93-5.91-4.74-8.67c-1.21-1.98-2.64-3.81-4.26-5.47-1.42-1.17-2.93-2.24-4.51-3.19,0,0,3.87,10.08,5.5,15,1.44,4.41-.39,10,3.42,12.86,2,1.5,5.35,2.58,7.54,1.32,0,0,18.25-11.62,28.09-16.15s18.39-9.94,29.12-11.58c7.34-1.1,14.14.57,21.23-.65,8.12-1.4,17.05-6.91,24.33-4.29,6.31,2.27,10.52,6.41,11.3,12.86,1,8.1-5.61,16.35-8.91,24.73,0,0-10.61,25.57-13.7,39.24-1.09,4.84-1.68,13.28-2.74,18.13-1.17,5.38-5.82,12.2-5.82,12.2,0,0,.38-8.56-2.4-12.2-2.16-2.83-10.28-4-10.28-4,1.54-3.89.92-6.69-.81-8.55-1.34-1.45-3.46-2.08-5-3.81,1.22-2.38,13.93-4,14.54-5.57,6.56-17.63,11.65-33.09,18-50,1.27-3.36-3-7.9-6.51-9.23-3.08-1.19-6.14-1.14-8.56.33-2.14,4.75-7.08,7.6-12.26,7.08-1.61,7.44-14,15-16.86,12.12.82,11-6.47,9.32-11.22,9.21-1.64,4.31-.78,11.07-11.88,11.66-3.5,8.9-5.82,10.15-11.84,9.39-2.68,7.77-6.25,8.32-11.31,5.91-2.45,7.26-5.62,1.87-7.87,1.67-1.77-.15-4,0-5.14-1.32-2.58-3-3.59-8-5.82-11.21-2.51-3.59-4.2-4.92-8.57-5.93-3.88-.91-8,.32-12,0-3-.24-8.92-1.45-8.92-1.45,1.14,1.27,2.41,2.42,3.79,3.42,2.51,1.5,5.59,1.84,8.29,3,2.28.93,4.43,2.16,6.4,3.65,2.4,1.75,4.28,4.11,5.45,6.84.9,2.24.79,7.15.79,7.15,0,0,4.27,7.87,8.47,7.81,1.18,0,2.08-2.71,3.34-2.91,8.78-1.37,19.57-4.21,28-9.55,14.33-9.06,24.76-22,37.1-32.64,7.08-6.01,14.73-11.33,22.84-15.87,2.83-1.6,4.16-3.26,5.39-2.07,1.48,1.42,2.73,1.92,3.21,3.87.4,1.65-1.29,4.81-1.29,4.81l-14,39.57.07.16Z"/>
      <path id="path10748-7-90-2-0-5-0-4-5" class="st7" d="M316.57,324.33l-4.05,2.94-8.67,4.25-3.16,2.75-1.73,2.65.2.89,4.58,1.27,3.16,2,1.12,2.55-.3,2.55-1.74,4.31.31-.13c10,5.26,11.63,12,9.2,24.56,0,0,5.65-1,8-2.56,4.94-3.23,7.43-5.62,9.89-10.86,3.63-7.73,3.35-19.32,5.61-27.51,4.33-15.68,15.3-41.14,21.57-55.17,2.73-6.13,3-11.27.49-14-4.88-5.24-6.05-12.47-15.41-15-3.31-.9-6.62.34-9.89.86-5.42.86-3.64.63-10,1.52-4.42-4.07-13.18-2.38-13.27,2.85-11.14-5.47-9.73.41-14.46,1.3-3-.81-5.81-5.12-13.38,3.73-7.81-3.16-12.82.13-15.86,5.87-9.64-1-14.94,6-14.88,6.22l-11.57,6.61-2.37-.91s-2.93-5.91-4.74-8.67c-1.21-1.98-2.64-3.81-4.26-5.47-1.42-1.17-2.93-2.24-4.51-3.19,0,0,2.58,4.29,3.88,6.43,1.42,2.32,3.18,4.47,4.29,6.94,1.48,3.27,0,8.35,3.1,10.25,1.51.93,3.87.2,5.32-.82,0,0,7.74-5.44,12.71-8.2,7.79-4.29,15.88-7.99,24.21-11.09,6.86-2.5,13.72-5.42,21-6.69,4.4-.76,8.94-.17,13.4-.49,3-.22,6.09-.49,9.1-1,6.66-1.12,13-4.45,19.75-4.47,1.54.02,3.07.36,4.47,1,1.94.94,3.68,2.23,5.15,3.81,3.18,3.28,6.38,6.94,7.73,11.24.37,1.46.37,3,0,4.46-1.4,7-5.53,13.33-8.25,20-3.29,8.09-6.8,16.1-9.79,24.3-2.27,6.27-4.83,12.5-6.18,19-.74,3.59-.53,7.29-1,10.92-.44,3.21-.65,6.51-1.72,9.58s-2.28,6.08-4.46,8.43-8.24,5.29-8.24,5.29c0,0,2.15-8,1-11.73-.79-2.15-2.24-4-4.13-5.29-2.54-1.89-8.24-3-8.24-3,1.3-2.04,1.78-4.5,1.34-6.88-.06-.26-.13-.52-.22-.79-.18-.57-.4-1.13-.67-1.66-.42-.77-1.04-1.41-1.8-1.84-1.88-1.06-4.4-1.06-3.78-2.29,1.59-3.13,15.43-6.93,16.47-9.35,6.12-14.21,15.62-43.15,15.62-43.15l1.38-5.12s-3.13-3.15-5.15-4c-1.28-.52-2.85-1-4.13-.5-5.39,2.23-8.51,11.89-17.27,8.77.91,3-5,10-13.29,10-.66,10.1-4.9,10.85-12.81,10.5,1.48,7.59-.37,8.67-10.68,11.93.64,7.36-5.58,9.49-11.18,9.12-2,8.22-4.48,9.32-13.19,7-2.57,6.07-10.19,5.11-13.8,4.33-2.15-.55-4-1.92-5.15-3.81-1.59-2.79-1-5.82-2.23-8.76-1.19-2.94-3.15-5.51-5.67-7.44-2.1-1.49-4-1.91-6.53-2.48-3.93-.63-7.89-1.04-11.87-1.23,2.51,1.49,5.59,1.83,8.29,3,2.28.93,4.43,2.16,6.4,3.65,2.4,1.75,4.28,4.11,5.45,6.84.9,2.24-.31,5,.79,7.15,1.72,3.38,4.27,7.87,8.47,7.81,1.67,0,1-1.34,2.79-1.71,2.1-.43,1.88-1.64,4,.2,9.17,7.76,12.1-2,12.48-3.78,6.23,1.85,6.65.72,12-7.17,5.66-2.35,10.7,2.84,13.73-10.55,7.14,1.91,11.56-4.26,10.15-9.62,6.53-2.61,11.39-1.4,13.22-12.47,13.38-1.92,7.74-6.23,11.4-8.74,7.2-.33,8.52-5.49,11.44-7.13s4.16-3.26,5.39-2.07c1.48,1.42,2.73,1.92,3.21,3.87.4,1.65-1.29,4.81-1.29,4.81l-11.3,32-5,6.44v.04Z"/>
      <path id="path11723-1-3-0-6-3" class="st18" d="M88.56,70.6c-8.68,9.23-20,20.52-16.41,35.23,1.51,5.89,4.38,11.23,6,14.78,3.08,6.67,14.7,11.41,22.64,17.41,1.69,4.05,3.77,7.93,6.2,11.59,8.94,12.29,20.78,23.6,33.07,32.84,12.67,9.52,33.32,17.9,45,28.58,8.09,7.42,25,18.19,28.5,28.4,3.93,11.34-7,20.1-8.2,32-1.36,13-7.2,22.61-12,34.82-2.94,7.56,7.55,26.54-.13,36.4-10.09,12.94-26,32.72-33.07,44.28-3.93,6.45-8.26,14.35-15.55,24.7-13.8,19.72-25.18,50.24-25.18,50.24l-35.65-5.56c-4.52-10,14.48-49.32,27.15-82.36,5.67-15.05,9.81-30.63,12.35-46.51,3.46-20.23,20.64-40,19.57-62.29-.53-11.21-5.42-21.21-11.28-30.92-6-10-14.09-18.68-21.7-27.58-9.44-11-21.26-21.63-29.55-33.43-5.53-7.86-9.65-16.62-12.16-25.9-2.07-7.8-4.25-16.74-3.56-24.8,2-22.84,3-38.19,24-51.88l-.04-.04Z"/>
      <path id="path11906-0-0-5-5" class="st22" d="M197.63,324.38c-28,5.3-67.65-4.38-76.67-27l17.9-27.4c9.21,28.11,31,41.37,56.64,32.29l2.13,22.11Z"/>
      <path id="path10748-7-2-3-6-7-1" class="st25" d="M157.24,461.89c4.72,5.56,1.56,11.69,3.75,17.25,2.34,6.24,3.89,12.75,4.62,19.38-3.46,15-8.33,29.59-15.79,40.22-3.24,4.62-7,11.48-11.66,13.88,0,0-25.81,12.73-37.83,21.41-5.79,4.02-10.86,8.99-15,14.7-5.31,7.66-7.43,12.5-9.56,21.47-5.39,22.67-2.22,53.69,12.31,72.47,6.9,8.92,23.27,17.1,31.29,25.15,4,4,5.36,13,5.36,13-7.26-1.48-14.18-2.44-19.07-.33-4,1.75-6.7,5.6-7,13,0,0-7.77-2.06-10.16-4.89s-2.28-5.88-2.91-9.21c-1-5.39-5.51-8.72-10.93-9.71-2.65-.48-10.37,1.57-12.25-1.49-1.69-2.76-5.46,12.41-7.73,9.26-3.49-4.82-5.47-28.12-6.81-32.85-3.13-11-.9-24.74-2-36.1-1.53-16.49-4.1-30.73-7.19-47-1.67-8.8-11.22-23.06-4.43-28.9h0c3.75,6.18,6.77,12.78,9,19.66,3.71,11.15,5.77,27.09,7.34,36.19,2.51,14.55,1.41,29.67,3,44.15h0c.69,6.33,1.58,9.65.49,22.39-.38,4.43,1.7,13.1,1.7,13.1,7.22-10.72,17.37-9,29.2-5.52l7.37,11.62s2.26-4.24,4.36-5.13c4.29-1.8,14,.81,14,.81l-22.44-17.06c-7.1-5.39-11.39-12.93-15.21-21.6-4.55-10.42-7.01-21.63-7.24-33-.2-14.83,3.55-36.53,3.55-36.53.83-10.42,8.78-23.11,17.33-32.86,6.93.73,9.89-6.92,9.24-9.21,5.32,1,12.79,2.46,15.87-9.65,8.14,2.31,11.54-6.87,11.54-6.87,4.2,1.53,8.66,1.1,9-6.26,5.47,1.14,6.84-3.63,6.24-6.62,5.16-1,7.52-3.06,6.11-8.66,6.65-1.65,5.57-5.22,3.53-8.51,3.32-1.88,3.32-5.7,1.88-9.13,1.76-3.17,6.58-6.45,1.26-10.64,3.56-7.4.2-7.34-.8-10.44,2.28-2.18,1.69-9.56-4.67-12,2.15-4.59,2.47-9.58-.88-12.37,5.64-2.25,8.39-8.65,6.14-14.29-.11-.27-.22-.53-.35-.79,4.4,1.34,9.38-3.58,6.28-9.68,4.13,3.39,8.72-3,5.46-9.54,5.33,3.48,10-4.3,7.13-12.18,5.46.06,8.35-4.42,6.92-11.54,3.6,2.63,9.26-6,5.51-9.11,4.2,1,8.88-4.45,5.92-9.71,6.11.26,10-6.65,7.72-12.09,3.83,1.7,10.11-4.63,6.44-10.61,9,1.37,10.39-10.63,7.73-11.9,5.63-5.53-8.63-26.71-17-31.63.11,6,7.94-7.49,7.94-7.49,0,0,3.15,3.83,5.27,5.08,2.83,1.66,6.44,1.62,9.45,2.94,1.5.6,2.9,1.41,4.16,2.41,2.25,1.79,4.06,4.08,5.28,6.68,1,2.33.86,7.48.86,7.48-2.54,5.27-.3,11.25-1.57,17.16-1.58,7.31-6.69,14.52-10.86,20.17-12.27,16.68-15.79,37.53-32.84,54.11-12.93,12.58-9.24,17-21.67,32.31,0,0-4.07,1.81-1.6,5.71l-.1-.06Z"/>
      <path id="path11837-1-7-3-2" class="st20" d="M201.94,258.96c.38,6.9-.3,13.81-2,20.51-2.4,8.24-5.45,14.48-13.43,18.07-6.22,2.81-12.38,3.22-18.46.12-5.49-2.64-9.93-7.04-12.62-12.5-4.24-8.57-2.73-20.68-3.39-28.43-.76-9.4-3.58-18.52-8.25-26.71-7.08-13-19.44-23.25-29.54-34.16-10.59-11.45-24.4-20.55-31.3-34.34-14.57-29.1-25.07-45.06-12-68.89,0,0,8.39,26.49,12,32.1,2.93,4.56,13.64,14.88,13.64,14.88,0,0,7.65,16.44,13.38,23.44,8.09,9.92,18.35,18.16,28.94,25.59,11.94,8.38,27.59,15.38,38.52,24.88,9,7.81,10,13.1,14.86,23.79,3.14,6.91,9.09,14.12,9.63,21.65h.02Z"/>
      <path id="path11883-1-0-4-2" class="st18" d="M233.95,312.18c2.85,2.72,3.81,6.61,6.82,8.91,2.35,1.8,3.93,1.85,6.85,1.13,12.41-4.16,22.65-15.12,32.45-23.81,15.58-13.83,36.07-28.64,56.38-34.83,0,0-27.71-.94-37.21,1.22-13,3-27.44,11.59-38.4,19l-18.18,12.22c-4.21,2.84-11.36-2.45-13.71-6.82-10.73-20-3.29-40.9-30.71-52.76,0,0,5.58,31.85,3.78,40.48-1.74,8.37-9,24.1-9,24.1,0,0,8.32,3.48,12.76,4.1,4.83.68,10.13-1.66,14.92-.72,5.11,1,9.53,4.2,13.23,7.73l.02.05Z"/>
      <path id="path11900-5-7-3-2" class="st18" d="M328.25,351.89l3-15.4c2.34-12.07,9.24-28.29,13.77-39.76,3.14-7.94,6.72-12.1,8.56-20.41.66-3.62.26-7.35-1.15-10.75-1.37-2.76-5.12-4.92-8.18-5.73-3.36-.89-23.82,8.18-23.82,8.18,0,0,16-.76,17.68,1.23s5.61,8.19,5,10.72c-2.6,10.11-5.64,17.37-10.59,29.9-3.27,8.29-6.53,16.18-9.08,22.44-1,2.42-12.61,1.62-13.34,3.48s2.65,1.34,4.55,3.15c2.47,2.35,1.79,7.29,2,7.29,0,0,5.83.53,7.54,1.61,1.52,1.17,2.89,2.51,4.1,4l-.04.05Z"/>
      <path id="path11902-0-3-0-6" class="st20" d="M235.16,308.12l-11.11-7.6-14-4.62,8.52-14c3.09,2.09,4.84,5.41,6.86,8,3.45,4.69,8.08,8.38,13.42,10.7,3.14,1.51,7-3.31,9.75-5.39,6.39-4.83,13.76-8.33,20.84-12.18,7.92-4.3,17.88-9.5,26.42-12.53,5.73-2,20.94-3.59,20.94-3.59,0,0-17.95,8.61-23.95,12.42-7.42,4.69-11.87,10.93-18.72,16.44-8.09,6.51-14.88,17.67-24.51,21.79-2.28,1-5.65,2.38-7.44.71s-3.87-8-7.05-10.2l.03.05Z"/>
      <path id="path11904-8-3-4-4" class="st20" d="M197.22,252.43l-10.53,39.14,8.14,6c2.83,2.09,7.07,2.43,10.52,1.84,6.86-1.17,12.74.87,14.83-5.52,2.16-6.59-2.17-23.25-8.61-35-2.46-4.49-14.35-6.45-14.35-6.45h0Z"/>
      <path id="path11908-4-2-8-0" class="st20" d="M108.03,455.8s20.63,11.62,25.33,18.87c3.61,5.42,5.41,11.84,5.15,18.35-.4,6.06-2,13.47-7.2,16.85-4.57,2.94-11.63,2.48-16.48,0-10.58-5.43-16.48-17.72-20.07-28.74-3.41-10.56-10.62-15.28-2.48-39.55s35.41-86,42.39-122.23c15.26,10.56,34.87,13.75,45.88,13.56-5.07,23.42-8.55,17.29-25,36.34-10,11.57-25.83,37.27-32.2,51.74l-15.32,34.81Z"/>
      <path id="path11910-9-1-7-7" class="st22" d="M88.63,508.89l.32-16.51c11.28,14.53,30.7,39.71,53.67,18.42-13.99,31.32-41.99,25.98-53.99-1.91Z"/>
      <path id="path11916-3-4-5-0" class="st25" d="M187.85,232.73c15.31,5.5,29.58,14.83,38,29.09-.33-23.8-11.59-33.52-38-29.09Z"/>
      <path id="path11914-0-0-9-3" class="st7" d="M191.61,233.31c19.68,2.42,27.57,10.26,34.26,28.44-.44-19.05-11.44-30.58-34.26-28.44Z"/>
      <path id="path11920-2-8-5-4" class="st25" d="M121.43,286.4c17.72,25.43,40.25,34.5,81.34,30.48l2.56-5.42-5.22-3.57c-38.81,3-49.13-7-74.18-33.84l-4.5,12.4v-.05Z"/>
      <path id="path11912-3-7-3-0" class="st7" d="M200.35,307.8c-26.9,13.33-65.09-1-82.45-33.75-1.48-2.79,3.78-6.34,2-9.4,2.39,7.77,19.12,27.65,26,33.21,16,13,27.08,15.26,54.41,9.94h.04Z"/>
      <path id="path10748-7-27-7-3-2-0" class="st7" d="M221.85,344.82c3.82,5.45,1.69,6.82-5.23,8.93,2.21,5.56,1.42,12-6.54,11.09,3.57,3.8,1.41,8.06-5.28,8.91,3.16,6.38-.17,12.94-8.16,13.66,2.63,3.53-1,10.63-6.69,11.09,3.47,5.62-.29,10.06-6,9.81-.75,4.58,2.78,9.71-6.92,11.28,1.08,3.92,1,11.57-7.51,12,.48,5.28-.38,9.12-6.71,10.8,1.71,2.91,2.47,6.72-5.51,8.64,4.77,3.49-5.45,10.59-5.45,10.59,2.05,0,6.16,6.63,1.05,9.11.38,1.8,2.89,4,3.39,6.35.38,2.41.23,4.87-.45,7.21,2.48,3.29,2.79,5.91,1.18,10.52,1.45,3.68,2,7.93-1,11.64.62,3.3,1.19,6.83-2.18,9.57.66,3.72-.75,7.5-3.69,9.87.27,4.37-.8,5.64-4,7.62-1.2,4.83-.75,7.12-8,9.49-1.26,3.88-6.58,8.26-10.44,6.74-3.85,5.63-8.1,7.82-13.35,6.17-4.83,11.43-10.61,11-17.09,10-.43,4.52-7.25,8.51-8.11,7.41,0,0-9.5,12.67-13,20.54-2.64,5.88-4,12.25-5.11,18.56-1.57,8.75-1.93,17.67-1.07,26.51,1,11.55,4.37,25.73,9.41,36.26,3.17,6.61,6.25,10.07,11.56,15.25,6.74,6.57,18.4,11.58,23.55,19.36l3,4.54s-11.28-2-16.26,0c-4.18,1.71-9.42,9.47-9.42,9.47l-9-16.89c-5.4-.76-6.37-1.88-9.24-2.57-6.45-1.55-11.32-.91-18.12,11l-3.19-10c-4-12.7-1.75-23.83-2.87-36.22h0c-1.35-12.2-.25-24.53-1.68-37.19-1.29-11.52-5.29-26.66-8.14-37.92-1-3.93-3.21-7.8-4.29-12.26-.67-3.04-1-6.14-1-9.25h0c-6.79,5.84,2.76,20.1,4.43,28.9,3.09,16.29,5.66,30.53,7.19,47,.23,12.11-.38,25.35,0,37.92.29,8.43,1.33,16.28,2.3,24.34.48,2.43,2.32,6.83,4,8.68,1.28,1.36,2.51.32,3.09,1.27s2.53-.54,3.94-2.55,2.38-5,4.75-6.77c3.87-2.94,9.36-1.93,10.57-1.71,5.42,1,9.91,4.32,10.93,9.71.63,3.33.41,6.26,2.91,9.21s10.16,4.89,10.16,4.89c.31-7.39,3-11.24,7-13,4.89-2.11,11.81-1.15,19.07.33,0,0-1.32-9-5.36-13-8-8-24.39-16.23-31.29-25.15-14.55-18.77-17.7-49.79-12.31-72.46,2.13-9,4.25-13.81,9.56-21.47,2.17-3.09,4.67-5.95,7.44-8.52,7.3,2.41,11.88-1.67,8.42-6.76,8.13,1.85,14,1.59,15.44-9.64,10.53,4.46,10.74-3.43,13.42-7.46,6.78,3.54,13.55-.69,12.44-6.92,4.85,2,10,.46,9-8.72,14.12,2.75,12.12-9.74,8.42-11,1.8-.73,3.6.8,4.61.06,4.93-3.61,3-9.53,1.48-10.71,7.63-2.23,4.23-7.41,4-10.82.9-.65,4-1.27,4.26-2.46,1.49-5.82-.94-7.1-3.48-10.74,6.64-4,3.26-10.27-1.52-12.28,5.64-6.53,1.72-14.26-5.69-14.26,10.08.16,9-6.88,4.28-11,8.88-1.55,9.11-5.36,5.09-9.47,8.39-1.36,9.81-3,5.56-11.11,8.54-.25,12.36.37,7.11-12.84,11.76.83,9.67-6.32,6.62-11,11.18,0,10.83-5.32,6.88-10.85,7.92-1.6,13.53-5.72,6.81-10.54,10.35-1.2,11.68-5.58,8-12.51,12.66.6,8.8-6,6.57-10.44,10.48.16,8.83-3.57,6.39-11.12,10-.59,10.91-3.15,4.38-10.63,13.39,2.93,9.59-6.66,5.38-9.09-1.37-7.43-12.85-15.45-12.85-15.45,0,0-4-4.54-6.61-6.06-3-1.78-7-1.72-10.08-3.33-2.34-1.43-4.55-3.05-6.61-4.85-2.17,5.72-.88,11.74,9,13.82-3-3,13.08-.34,12.27,22.88h.19Z"/>
      <g id="g11719-8-8-7-5">
        <path id="path11707-0-8-4-3-3" class="st24" d="M206.7,312.02c-1.93-.84-4.83-4.55-6.82-4.43l2.22,2.24c1.19,1.23,2.54,2.31,4,3.21,3.56,1.86,6.79,2.22,10.09,4,5.11,2.09,8.54,6.96,8.77,12.48.21,1.83.25,3.31.25,3.31,1.39,12.39,10.22,8,12.8,4.33,0,0-10.75,9.49-11.84-7.76-.15-1.95-.62-3.86-1.39-5.66-1.85-3.3-4.63-5.99-8-7.72-3.52-1.92-6.77-2.27-10.11-4h.03Z"/>
        <path id="path11713-4-9-5-9-1" class="st24" d="M240.69,277.52c-2.13-3.81-8.33-16.18-15.24-17.61,6.83,4.65,12.57,14.77,14.26,18.27l.07.15.13.09,1.39.88.3.19.33-.17,13.22-7.26-1.38-.55-12.09,6.55-1-.61v.07Z"/>
      </g>
      <path id="path11968-7-9-7-0" class="st20" d="M79.54,533.89s-.29-12.49,9-10.19c6.71,5.64,14.4,9.98,22.69,12.82,0,0-23.28,11.6-34.15,20.81-4.88,4.13-12.15,12.69-13.88,18.69l-6.66,23.25c-.49-3.61-1.22-7.18-2.19-10.69-2.32-6.27-9.72-17.63-9.72-17.63l13.6-8s-2.32-14.3,10.7-17c1.15-13,10.64-12,10.64-12l-.03-.06Z"/>
      <path id="path9845-1-0-7-6" class="st20" d="M351.12,273.89c.75-2-.32-4.39-1.37-6.27s-4.33-4-6.51-4.62c-3-.76-8.22,2.31-8.22,2.31,0,0,6,.09,7.19,1.65,2,2.56,3.64,5.7,3.77,8.9.22,5.42-5.83,17.48-5.83,17.48l-17.8,47.79,4.8,5c2.49-22.75,14.89-47.99,23.97-72.24Z"/>
      <path id="path11500-0-9-9-7" class="st18" d="M155.62,75.25c-5.76-5-30.89-6.62-38.86,8.44.76-12.8,22.42-22.07,38.86-8.44Z"/>
      <path id="path61887-5" class="st22" d="M102.01,146.44l-20.25-5.42-17-23.17-7.41-20.26,16.5,1.59c-1.7,18.54,8.2,32.26,27.58,35.34l6.42,8.08-5.84,3.84Z"/>
      <path id="path10748-7-3-3-8-5-0" class="st25" d="M165.85,140.34l6.43,3.25,9,4.6,10.2.24,9-4.31-10.24-3.71h-6.8l.37-.66-2,.22,6.55-.44,14.4,3.53,4.23.4,5-4.34,5.1-5.61-9.16,3.71s-1.34,2.6-5.46,2.48c-9.65-.28-20.5-4.1-31-3.78-5.08.1-13.21-6.9-13.21-6.9-10.16-5.83.43-18.19,3-26.24-7.67,5.75-18.69,8.77-13.27,27.2-5.02,1.07-9.97,2.44-14.82,4.11,1.25-2.67,1.68-4.83-2.55-11.36-4,9.81-32.5,23.29-50.21,6.74-9.65-9.2-16.36-28.81-12-43.28,1.17-3.88,3.08-6,6.37-9.3,1-8.29,8.37-9.24,11-9.47,2.37-4.56,3.69-6.69,12.6-6.5,3.17-5,10-5.62,13.43-4.33,3-3.23,5.65-5.05,11.37-3.13,2.32-2.86,6.51-3.31,9.38-1,.15.13.31.26.45.4,1.31-1.42,7.69-1.75,8.44,2.58,8.65-.19,6.36,3.14,5.83,6,2.12-1.23,4.38-8.62-1.09-9.43-1.78-.27-3.72-4-5.71-5-1.82-1-3.68.68-5.9.56-1.68-.09-4.24-1.92-6-1.89-2.16,0-3.6,3.42-5.66,3.7-2.23.3-4.39-.74-6.17-.61s-2.69.09-4.68,2.76c-.45.6-.81,1.64-1.44,1.33-1.59-.7-3.33-1.02-5.07-.92-4.78,0-7.23,2.67-7.68,5.52-5-3.32-16.91-.16-13.34,7.79-3.3-3.26-17.52.86-11.1,12-12.93,10-22.18,18.8-19.54,32.8,3.14,16.31,13,34.63,33.81,39.06,11.7,2.5,20.46,1.21,26.64-1.24,1-.39.79-1.48,1.71-1.88,2.49-1.07,10,1,11.17.12,5-3.68,10.09-6.78,18.77-6.93,3-.05,5.77-1.92,8.74-1.51l11.11,2.67Z"/>
      <path id="path10748-7-9-4-0-3-0" class="st7" d="M158.5,133.89c6.94,4.27,13.52,5.56,20.66,9.61,3,1.72,13.77,2,17.24,3.23l-6.91,1.84-7.46-.48-16.86-7.37-8.45-3.2c2.45,5.14-3.28,10.87-7.22,3.44-2.68,8.62-4.88,4-6,1.57-1,8.06-6,4.25-7.92,1.74,1.11,3.77,1.33,5.81-3.66,4.28-2.69.6-13.7-2.67-16.16-2.26-19.79,3.36-38.15,1.7-50.8-20-5.07-8.69-10.88-23.8-1.46-40-5,13.83-1,40.5,17.25,51.21,8.56,5,22.68,7.09,36.31,3,5-1.51,9.37-6.56,13.64-12.09.46,9.67-6.12,10.49-6.1,12.28.76,1.54,8.08,6.43,10.19-3.71,2.23,3.47,8.35,3.27,8.34-1.67.14,3.09,5.92,3.29,6.19-1.22.79,3.67,5.2,2.15,4.48-.37h0c-11.23-13.54-.84-24.6,4.67-26.87-12.07,14.6-6.41,21.17,0,27l.03.04Z"/>
      <path id="path11478-0-5-3-4" class="st18" d="M138.26,97.68s-12.84,6.87-20.16-6.59c-10.41-14.79-3.36-20.39,10.07-22,4.16-2.38,10.53-4.61,19.56-.51,0,0-5.82-8.93-19.85-2.62-19.1-5.62-41.28,2.33-41.84,21.16-1.06,4.9-13.69,6.27-13.61,11.27-.1,6.61,1.33,13.16,4.16,19.13,2.57,5.18,7,10.7,12.11,13.71,4.03,2.22,8.55,3.42,13.15,3.49,3.5-.11,13.5-1.75,16.39-3.64,3.84-2.51,10.4-7.29,11.44-11.68,1.78-7.46,8.64-21.71,8.64-21.71h-.06Z"/>
      <path id="path61863-5" class="st7" d="M75.04,99.27c-1.16,2-9.18,2.46-11.34,2.8-14.07,2.27-15.37,5-16.17,18.32,0,0-.25-6.71,1.12-10.29-2.48-7.5,3.28-13.06,5.64-15,2.11-1.61,4.33-3.06,6.66-4.34,0,0,3.11-10.9,10.45-15.82-2,3.7-2.42-11.6,12.48-10.4-1.8-7,12.89-10.22,14.21-6.3-.73-2.69,5.48-7.53,8.74-6.7,1.85.46-1.78.64.55.06.65-.16,4.44,2.14,3.59,1.18,0,0,2.48-3.34,3.58-3.57,1.23-.22,2.47-.38,3.71-.47,1.68-.12,3.37.04,5,.48.04-1.25,1-2.29,2.25-2.42,2.3-.73,2.25-1,4.85-.46,1.49-.7.93-.57,3,1.79.44-2.46,2.58-1.73,7.54-1.25,2.12.21,2.31,1.62,3.76,3.34.24.29-.58.63,0,1.23s4.71,2.12,5,2.44c2.07,2.71-1,6.29-1,6.29.66-2.61.38-6.23-5.24-7-.67-5.63-8.66-5.43-10.1-2.75-4.32-4.23-7.84-1.19-10,1.12-6-3-9.85,1.53-11.89,3.73-5.62-3.1-12.17,2.49-12.81,3.78-2.9-.06-10.62-2.69-13.28,7.07-13.16.56-13.8,9.33-10.87,12.34.56,4.05,5.55,6.26,11.51,8.77l-10.94,12.03Z"/>
      <path id="path11482-4-5-3-4" class="st20" d="M138.85,69.59c11.42-1.65,18.26.09,26.77,7.06,0,0-10.51-2.68-12.4-2.76s-5-.46-7-.38c-3.13.11-5.5,1.32-8.6,1.77-2.12.32-4.35,2.36-6.41,2.9-2.52.66-9.1,5.66-9.1,5.66,0,0,3-7.78,3.61-8.57,2.38-3,7.85-4.31,13.5-5.29l-.37-.39Z"/>
      <path id="path11502-4-0-5-9" class="st25" d="M85.63,95.02c12.43,13.52,24.1,12,41.85,3.83-16.74,3.17-25.35,6.04-41.85-3.83Z"/>
      <path id="path11504-4-7-8-5" class="st20" d="M84.03,96.52c-22.23,32.76,39.44,52.31,46.51,4.54-17.05,8.18-29.11,16.23-46.51-4.54Z"/>
      <path id="path11510-6-8-9-6" class="st20" d="M129.35,67.89c-28-9.84-46.11,4.77-40.71,26.79,7.46,2.65,14.51,5.28,29.15,1.89,0,0-4.07-4-4.65-8.43-.61-4.77-2.41-14.39-1.88-15.36,3.09-5.61,18.09-4.89,18.09-4.89Z"/>
      <path id="path11480-2-3-6-4" class="st7" d="M146.22,75.52c12.72-2.1,15.39,4,17.43,2.43-1.48,3.71-8.3,11.92-14.3,13.52-2.88.68-8.1-.06-11.81-2.5-3.37-2.01-6.29-4.69-8.57-7.88,4.38-2.93,10.77-4.49,17.25-5.57Z"/>
      <path id="path60927-8" class="st10" d="M148.85,136.75c-8.81-.69-23.51,5.34-29.81,8.22,1.57,1.86,1.5,4,18.36,11.88,5.78,2.69,11.22,11.58,16.5,15.09,2.68,1.78,8.85,3.11,8.85,3.11-1.59,1.46-3.6,2.38-5.75,2.61-.29.56,9.55,1.59,13.69,3.68,5.52,2.79,11.62,7.47,17.24,10.07,3.55,1.64,12.53,2.94,12.53,2.94-1.83,1.76-4.02,3.1-6.41,3.94,0,0,17.35,3.21,25.5,9.55,4,3.16,7.15,9.58,11,12.94,3.12,2.71,11.48,5.32,11.48,5.32-2.37,1.01-4.95,1.41-7.51,1.17,5,2.69,10.22,7.68,12.4,11.76,4.53,8.47,2,18.09,14.24,24.93-2.89.07-5.32,1-9.2-.78.78,2.92,1.24,5.91,1.89,8.91,0,0,29.41-13.07,44.12-15.82,7.1-1.33,14.55-1,21.7-2,5.4-.93,10.74-2.17,16-3.71,0,0,6.58-1.76,9.89-.86,9.36,2.54,15.41,15,15.41,15,2.55,2.72,2.24,7.86-.49,14-6.27,14-17.24,39.49-21.57,55.17-2.26,8.19-2,19.78-5.61,27.51-2.46,5.24-5,7.63-9.89,10.86-2.32,1.52-8,2.56-8,2.56,2.43-12.53.8-19.3-9.2-24.56,0,0,2.39-5.22,1.85-7-.47-1.58-2-2.77-3.41-3.67-1.94-1.23-6.75-1.1-5.52-2.87l1.28-1.81c3.09-4.47,10.41-6.39,14.44-9.1,3.06-2.07,5.06-5.91,6.52-8.34,5.11-8.49,6.19-19.39,11.39-31.57,0,0,1.69-3.16,1.29-4.81-.48-2-1.73-2.45-3.21-3.87-1.23-1.19-2.56.47-5.39,2.07-8.08,4.54-15.71,9.84-22.78,15.83-12.34,10.68-22.77,23.58-37.1,32.64-9.66,6.11-22,12.32-31.36,12.46-4.2.06-8.47-7.81-8.47-7.81-27.26,25.75-56.92,52.54-66.84,82.07,4.88,6.75,10.29,15,12.44,21.14,2.61,7.42,2.13,15.71,1,23.47-3.52,24.63-8.34,59.31-22.58,79.6-3.24,4.62-7,11.48-11.66,13.88,0,0-25.81,12.73-37.83,21.41-5.79,4.02-10.86,8.99-15,14.7-5.31,7.66-7.43,12.5-9.56,21.47-5.39,22.67-2.22,53.69,12.31,72.47,6.9,8.92,23.27,17.1,31.29,25.15,4,4,5.36,13,5.36,13-7.26-1.48-14.18-2.44-19.07-.33-4,1.75-6.7,5.6-7,13,0,0-7.76-2.06-10.16-4.89s-2.28-5.88-2.91-9.21c-2.52-6.3-6.21-8.26-9.1-9.21-3.23-1.06-8.91-1.29-11.91.76-4.38,3-5.82,10.53-8.92,10.09-11.15-1.59-9.48-35.23-10.11-43.82-.68-9.39,1.19-19.87.37-28.71-1.53-16.49-4.1-30.73-7.19-47-1.67-8.8-11.22-23.06-4.43-28.9,6.58-5.66,15.09-7.24,21.7-12.17,7.38-13.69,15.88-27.38,30.19-41.07,0,0-8.74-27.51-7.18-49.35.36-4.62,6.47-29.84,6.47-29.84-10.7,16.49-29.94,13.59-37.74,7.43,2.74.18,5.45-.64,7.63-2.3-10.71-3.17-19-7.43-25.6-16.28,3.17.37,6,2.46,9.78-.25-6.9-3.27-10.77-7.55-12.26-12.18-2.2-6.82.75-14.41,6.71-20.64-.12,21.26,16.92,25.32,31.69,18.12,9.63-4.7,14.92-14.34,19.09-23.06,1-2.16,6.07-4.61,6.07-4.61,7.7-21,14.57-42.82,18.86-64.83h0c-5.74,5.68-6.58,4.79-10.29,5.91,0,0,6.32-6.83,6.2-16.11s-6-25.67-6-34.85c.14-4.7.63-9.38,1.47-14-2.92,3-1.45,3.14-9.32,6.62,0,0,3.1-8.57-.15-16-2.46-5.65-11.33-15-13.17-20.82-1.29-4.09-.71-14.42-.71-14.42-4,6.75-6.87,5.07-10.87,5.47,0,0,3.27-4.61,1.43-9.48-2-5.34-10.71-14.92-12.81-20.24s-1.58-16.33-1.58-16.33c-3.58,2.24-5.32,5.62-11.21,4.36,2.01-3.97,2.95-8.4,2.73-12.84-.75-9.91-6.57-25.74-6.13-36,.94-5.76.74-9.66,2-15.69,2.16-11.42,7.42-22.02,15.21-30.64,21.81-24.39,45.21-36,77.43-22.66,6.5,3.08,15.51,6.68,21.6,10.9,4.13,2.87,5.66,6.25,10.26,8.9,13.16,7.54,19.68,12,33.58,18.55,2.13,1,11.28,3.95,13.39,4.95,1.75.94,3.32,2.18,4.65,3.66,3.09,16.34-11.91,25.83-27.73,29.28-15.45,3.39-22.6-1.88-40.79-3.28h.01Z"/>
      <path id="path60829-2" class="st18" d="M86.15,87.77c-2.28,8-6.3,9.92-10.41,11.49-9.48-1.13-8.09-8-15.4-8.53-18.09-1.38-16.74-2.59-30.61-22.38,29.25.09,36.59.93,42,7.78,4,5,9.35,5.34,14.38,11.64h.04Z"/>
      <path id="path61899-1" class="st22" d="M85.04,94.17c-20.84-25.3-23-21.2-49.84-22.64,4.28,19.1,33.44,15.1,49.84,22.64Z"/>
      <path id="path61901-6" class="st22" d="M46.96,84.15c-7.63-2.94-8.7-8.44-10.83-11.51,22.63-1.55,21.2-.46,39.08,12-6.36,6.55-18.25,3.38-28.25-.49Z"/>
      <path id="path60829-0-8" class="st24" d="M68.68,74.33c3.69,4.29,7,3.71,12.06,10,.71.43,1.55.91,1.23-.47-5.05-6.33-7.62-6.06-12.53-10.19l-.76.66ZM53.04,90.21c6.65,1.85,13,1.43,23,2.57,1-.38,1.29-1,.42-1.35-5.92-.71-10.75-.68-15.14-1.07-2.61-.23-7.44-.49-9.88-1.25l1.6,1.1Z"/>
      <path id="path61897-3" class="st25" d="M48.35,84.7c6.58-.52,10.66-1.24,9.69-3.15-1.07-2.1-7.32-4.67-20.66-9,6.93-1.24,18.2-2.55,35.49,10.34-7.31,6.63-13.44,4.13-24.52,1.81Z"/>
      <path id="path61895-1" class="st7" d="M74.07,85.02c-4,5.4-13.79,4.16-23,.88,11.07.26,16.64.36,16.89-.91.59-3-15.86-11.28-26.11-13,12.14-.15,20.65,3.41,32.19,13.07l.03-.04Z"/>
      <path id="path61889-4" class="st24" d="M41.79,71.58c-1.62.21-3.22.54-4.79,1,5.59-.75,11.26-.45,16.74.89,7.71,2,16.37,7.81,20,11.3-1.4,1.56-3.28,2.62-5.34,3-2.39.42-4.84.39-7.22-.08-2.32-.42-10.6-2.82-14.48-3.47,3.73,1.31,9.07,3.5,14.31,4.39,2.5.5,5.07.52,7.58.08,2.56-.46,4.9-1.75,6.65-3.67l.27-.33-.31-.3c-10.2-9.63-22.2-14.37-33.41-12.81Z"/>
      <path id="path61958-8" class="st18" d="M164.56,107.02c4.23-2.77,15.38,5.13,16.45-.06-.78-3.14-22.39-9.11-23-12.65-.3-1.88,7-6.67,7.23-13.35.11-2.83-1.35-6.13-2.91-8.81-1.73-3-9.82-7.89-9.82-7.89,2.29.71,5.14-1.43,9.56,3.42,9.31,10.26,19.65,18.36,26.77,24.26,5.06,2.36,8,4.84,14.67,13.45-4.72,6.87-7.67,14,6.84,16.51-16.71,9.57-29,.68-46.86,3.3-8.64-.08-3.9-14.99,1.07-18.18Z"/>
      <path id="path61977-4" class="st18" d="M157.69,100.38c-1.71-.55-2.84-2.22-3.06-5.62-2.24,1.99-4.65,3.79-7.2,5.36-2.68,1.35-6.52.59-8.63,2.68-4.45,4.51-6.45,10.89-5.37,17.14.26,1.25,2,1.8,2.51,2.95,1,2.14,1.39,7,1.39,7,2.32-.37,4.64-.51,7-2.95,0,0-1.41-9.86.55-14.2,2.42-5.33,12.81-12.33,12.81-12.33v-.03Z"/>
      <path id="path61979-9" class="st23" d="M197.77,115.89c1,2.29,5,5.4,7.32,6.62-1.45.65-2.97,1.11-4.54,1.38-9.87,1-20.48-2.37-28.67-7.77-1.96-1.26-3.43-3.15-4.17-5.36-.5-1.67,6,.13,11.15,0,7.87-.14,15.46-1.56,12.73-2-4.09-.59-32.19-14.08-30.56-15.69l3.8-6.84c-.86,1.37,23.74,16.51,35.07,19.83,3.57,1-3.52,6.37-2.13,9.7v.13Z"/>
      <path id="path88512-2" class="st18" d="M52.93,511.26c-3.27,10.45-30.4,28-32.59,30.78-1.54,2,1.09-8.33,22.58-28.49,11.17-13,20.23-17.52,15.86-39l-.69-16.13c.76,11.22,6.07,37.26-5.16,52.84Z"/>
      <path id="path62003-0" class="st27" d="M215.25,123.02l-4.08-2.84-7-1.63c-7.78,10.17,5,17.06,12.34,14.14l-1.26-9.67Z"/>
      <path id="path20357-42-32-9-3-7" class="st15" d="M45.19,497.17c-3-1.16-10.18,1.24-8.06,8.7-3.68-2.35-9.76,1.9-6.65,8.53-3.42-4.36-9.57,2.33-6.89,6.61-3.23-1.3-8.83-1.53-7.66,6.64-7.58-.59-9.58,4.54-5.18,8.18-5-.9-7.11,6.13-2.2,8.24-4.67,2.4-2.91,10,2.65,7.63-3.14,4.2,2.53,11.71,6.64,4.72,1.78,5.38,8.73,1.84,7.28-2.43,3.65,2.18,9.24-1.06,7.35-5.6,3,2.92,10.35-.47,6.57-6,6.41,2.23,8.74-1.87,7.62-6.59,5.89,2.16,8.78-1.51,8.23-7,0,0,7.65,2.62,7.16-6.75,5.12,2.44,9.2-1.79,7.44-8.49,7.16,2.33,9.1-4.33,8.27-8.68-.1-.49-.21-1-.31-1.5,2.9,5.28,6.09,10.51,9.28,15.51-5-1.43-11.88,6.13-10.3,10.93-6.38.12-11.82,5.69-10.66,14.39-7.34-1-13.42,7.81-9.24,15.81-6.61,4.92-15.12,6.5-21.68,12.16-6.79,5.84,2.78,20,4.45,28.84,3.09,16.29,5.65,30.52,7.18,47,.82,8.83-1,19.32-.36,28.71.63,8.6-1,42.24,10.11,43.82,3.1.44,4.54-7.09,8.92-10.07,3-2,8.67-1.85,11.9-.79,2.9,1,6.59,2.92,9.1,9.21.64,3.34.41,6.29,2.91,9.24s10.16,4.88,10.16,4.88c.31-7.4,3-11.24,7-13,4.89-2.12,11.82-1.16,19.08.32,0,0-1.35-9-5.38-13-8-8-24.38-16.23-31.29-25.15-14.53-18.78-17.69-49.8-12.3-72.47,2.13-9,4.25-13.82,9.55-21.47,2.06-2.92,4.4-5.62,7-8.07,4.07,3.84,12.64-2.66,8.43-7,6.62,3.39,14.48,1.7,14.45-9.6,7.14,3.51,12,1.62,14-7.41,13.32,5,12.44-6.76,12.44-6.76,7,3.34,10.11-2.29,10.06-8.85,7.63,2.79,13.3-5.49,8.77-10.76,5,0,8.87-5.29,5.56-11,5.12-.38,5.38-5.9,2.93-10.14,6.28-1.7,7-8.73,1.88-13.2,7.8-7-.38-13.63-2.08-13.11,4.27-1.71,4-12.88-5.52-14,7.57.49,8.63-6.43,4.72-11,5.1-.35,10.69-4.21,4.68-9.24,9-1.36,9.36-5.44,5.21-11.83,6.5,2.88,11.87-7,6.45-12.51,7.92,2.41,13.13-5,7.08-11.49,7.46,2.14,11.71-1.82,6.73-10.45,7.56,1.09,13.8-5.37,7.55-11.49,5.44,2,12.55-2,7.45-11.44,7,3.15,12.12-3.53,6.46-10.27,4.85,1,12.76-1.76,6.3-10.76,9.76,1.39,11.54-6.16,5.48-10.54,8.63.73,9.33-5.94,5-11.81,0,0-.41,3.19,3.79,3.12,3.93,4.22,11.42,3.31,12.7-3.42,5.93,2.65,10.73-2.46,12.8-7.85,5.62,1.1,13.58-2,13.17-10.06,4.93,1.39,10.89-4.4,10.74-10,6.31-1.1,12.8-6.87,13.19-12.59,5.6,0,10.47-4,10.85-8.35,9.76-.9,9-5.8,12-7.51,2.82-1.59,4.15-3.26,5.38-2.07,1.48,1.42,2.74,1.91,3.21,3.87.4,1.65-1.29,4.83-1.29,4.83-5.2,12.18-6.29,23.06-11.4,31.55-1.45,2.42-3.45,6.29-6.52,8.35-4,2.71-11.33,4.62-14.43,9.09l-1.28,1.85c-1.24,1.77,3.57,1.65,5.5,2.88,1.43.9,2.94,2.09,3.42,3.67.54,1.82-1.85,7-1.85,7,10,5.26,11.63,12,9.2,24.58,0,0,5.67-1,8-2.56,4.94-3.24,7.42-5.65,9.88-10.89,3.63-7.73,3.34-19.31,5.61-27.51,4.27-15.68,15.27-41.12,21.52-55.15,2.74-6.12,3-11.26.51-14,0,0-6.06-12.48-15.42-15-3.3-.9-9.88.88-9.88.88,0,0-5,.47-11.34,1.36-7.52-4.59-12.93,2.28-13.33,3.08-5-3.87-9.23-2.72-13.06,1.23-9-4-11.64,1.18-14.15,4.85-4.92-4.46-11.75-1.37-15.89,5.39-8.18-2.38-14.08,5.25-14.08,5.25.83-6,5.62-7.58-2.26-14.06,2.48.84,6.74-8.8-3-10.24,7.33-4,3-12.33-4.74-12.34,6.4-5.25-3.51-15.3-9.26-10.18,2.25-8.28-7.43-12.16-11-8.46,3.73-8.81-6.7-12.88-9.82-8.1,1.3-2.27-.32-12.41-10.16-7,1.53-7.89-7.93-6.45-9.51-3.07,2.41-8-5.33-9-9.63-6.51,1.79-5.33-5.1-7.65-10.63-4.59,1.32-9.5-6.16-8.59-9.77-7.59,1.06-7.16-6.7-10.06-10.13-7.67,1.09-5.46-6.46-9.45-10.64-7.35-1.45-5.13-5.31-8.15-9.52-7,2.49-4.48,2.31-7.32-3.32-8.19,4.93,1.58,7.19-1,4.47-5.66,2.26,5.46,9.19,5.11,7.8-1.18.11,3.69,6.09,5.46,6.32-1.3.93,7.16,9.69,2.69,7.2-1.28,0-.14-.4-1.69.44-1.52,12.81,2.62,17.55,9.42,27.46,10.42s14-3.08,16.85-4.46c-8.69-3.72-10.53-3.91-18.25-4.11,2-1.37,7.84.25,18,3.51,6.16,1.71,12.11-5.74,12.11-5.74,5.83-4.7,3-9.65-.16-20-15.91-29.91-25.25-26.17-46.23-48.53-3.35-3.58-11.51-6.82-18.65-8.2,4.07-2.85.37-10.27-3.78-8.94,1.62-3.64-8.81-8.39-11.19-3.76-2.34-3.94-11.15-1.66-10.2,2.15-1.26-4-12.23-1.41-12.08,3.21-3.23-4.93-14.49.56-12.92,4.47-4.7-5.67-17.33,1.8-14,6.93-9.51-3.3-15.89,6.56-12.25,11.28-9.61-9-13.1-6.32-42.91-8.72,13.81,19.71,14,21.28,24.82,22.14l6.41,1.06c-9.09,4.43-15,13.52-11.92,19.29-4.62,2.75-6.35,10.83-3.86,14.69-6.12,4.34-5.2,13.88-.71,18.65-6.31,4.44-4.74,16.74,1.35,19.08-3.68,4.57-1,15.42,6.94,15.08-5,3.14-3.27,13.9,4,15.57-4.08,2.44,1.38,12.87,7,11-2.74,5.38,2.45,14.6,8.08,12.38-4.09,3.09,1,13.12,7.11,11.82-4.47,4.15,1.94,14.2,8.82,12.48-4.58,4.49,2.79,15.18,8.42,11.37-6.29,6.68,3.27,13.59,8,10.16-3.6,5.22-1.77,9.4,7.31,6.49-5.85-.28-7.51,7.57-3.14,11.64-8.73.85-9.83,11.59-3.5,14-9,1.91-9.65,12.28-1.5,15.28-4.83,1.53-11.33,10.57-.23,17-8.46-2-11.49,9.53-3.47,14.66-3.43-.79-10.78,4.65-4,11.82-4.37-2.15-12.7,5.33-4.25,11.24-7.42-.87-7.8,6.55-3.77,9.5-9.25.21-8.38,7.38-3.71,9.21-5.42-1.48-10.16,5.19-4.26,10.54-6.81-.84-11,8.33-4.9,11.85-8.63-.25-7.47,8.93-4.15,10.74-5-.27-10.41,7.13-3.65,11.53-9-1.63-10.19,9.59-3.79,11.45-6.34-2.18-9.63,8.39-1.94,12.07-8.17,3.2-6.15,10-3.9,14.61-4.39-1.4-8,7.22-2.62,11.77-5.59-1.23-6.87,5.19-2.59,10-6.27-2.85-10.49,6.8-6.83,9.18"/>
      <path id="path61960-6" class="st0" d="M216.94,131.25c-1.89-3.05-1.23-5.66-2.52-8.6l-4.47-2.13-5.79-.42c-5.68,10.49,7.27,13.92,12.78,11.15Z"/>
      <path id="path61962-0" class="st24" d="M209.01,125.69c-.52-.74-.55-2.18.22-2.68,1-.63,2.37.48,3.39,1.08,1.63,1,2.7,5.38,2.7,5.38,0,0-4.81-1.64-6.31-3.78Z"/>
      <g id="g3649-0-7-3-8-8-4-2-5-9-5-0-5">
        <path id="path4096-2-7-5-5-8-6-4-7-9-2-4-4-6" class="st9" d="M145.74,76.89c-6.43.35-11.79-.15-11.57,3.35s5.82,8.91,12.25,8.56,11.29-6.32,11.06-9.82-5.3-2.46-11.74-2.09Z"/>
        <path id="path4178-2-4-7-4-3-1-6-0-5-9-5-2-7" class="st21" d="M135.28,82.78l.72,1.31,4,3.45,4.62,1.48,4.21-.43,4.37-2.2,3.16-3.89s-2.42-1.19-3-.52c-5.23,6-9.23,4.32-11.85,2.62-1.63-1.06-2.65-2.94-4.47-2.31l-1.72.49h-.04Z"/>
        <path id="path4096-7-7-8-2-3-8-4-4-5-4-1-1-3-3" class="st26" d="M137.35,77.13c2.63-.55,5.31-.85,8-.89,3.22-.17,6.38-1.16,8.67-.81,1.03.09,2.03.44,2.9,1,.8.57,1.29,1.48,1.34,2.46.13,2.08-1.12,4.57-3.22,6.65-4.69,4.89-12.37,5.3-17.56.94-2.35-1.85-3.81-3.34-3.94-5.42-.09-.99.28-1.96,1-2.64.82-.66,1.78-1.12,2.81-1.33v.04ZM137.74,78.13c-.83.22-1.59.63-2.24,1.19-.49.41-.77,1.02-.75,1.66.1,1.42,1.39,3,3.5,4.7,2.26,1.82,5.1,2.79,8,2.73,2.98-.26,5.78-1.54,7.93-3.63,1.88-1.86,2.89-4.31,2.8-5.73.03-.63-.23-1.24-.7-1.66-.77-.43-1.61-.71-2.49-.81-2-.3-5.15.64-8.36.81-2.59.02-5.17.27-7.71.74h.02Z"/>
        <g id="g4173-3-5-9-6-1-7-78-0-9-0-1-3-8">
          <path id="path4125-7-8-7-5-5-8-8-9-1-9-6-7-4" class="st27" d="M154.7,81.02c-.7-3.22-3.81-5.31-7.06-4.75-3.14.38-5.38,3.23-5,6.38,0,0,0,0,0,0h0v.24h0c.69,3.22,3.81,5.32,7.06,4.75,3.14-.39,5.38-3.24,5-6.38h0v-.24Z"/>
          <path id="path4149-3-9-3-5-9-3-0-4-3-7-3-2-1-0-9" class="st0" d="M151.65,81.52c.24,1.49-.77,2.9-2.26,3.15h-.27c-1.61.38-3.23-.62-3.61-2.23,0,0,0,0,0,0h0c-.19-1.55.91-2.97,2.46-3.17h.16c1.57-.36,3.14.61,3.51,2.18v.07Z"/>
          <path id="path4149-0-0-6-54-5-2-7-5-5-0-9-0-2" class="st9" d="M152.43,80.02c.19,1.02-.47,2.01-1.49,2.22h-.23c-1.13.24-2.24-.48-2.49-1.61-.15-1.09.62-2.1,1.71-2.25h.07c1.06-.23,2.11.42,2.37,1.47l.06.17Z"/>
        </g>
      </g>
      <g id="g6065-5-6">
        <g id="g3808-7-1-5">
          <path id="path3269-9-7-2-7" class="st2" d="M99.26,68.52c19.29-.59,31.66-13.46,27.12-22.8-2.21-4.56-8.47-8.28-19.92-9.32-2.91-8.3-9.64-14.15-22.06-11.22-1.55,9.74-7.97,22.84-10.22,29.34,1.38,3.19,8.43,6.1,14.27,5.57,2,3.65,4.92,7.17,10.81,8.45v-.02Z"/>
          <path id="rect5996-0-7" class="st6" d="M93.49,51.12c-1.48,8,15.53,16.42,17.68,15.14l-13.32,1.76c-3.63-2.3-6.95-5.04-9.89-8.17-5.11.24-10.07-1.74-13.61-5.43.79-3.53-.6-.56,2.18-8.09,4.57,5.07,11.89,6.82,16.77,4.76l.19.03Z"/>
          <path id="rect5996-3-6-4" class="st19" d="M106.43,36.52c30.41,2.47,18.17,17.5,20.32,16.22-5.42,7.52-25.09-4.33-24.1-13.09-12,2.15-19.72-2.61-21.5-8.09,1.07-2.46,3.1-4.73,4-7.48,12.51.61,15.6,1.74,21.59,10.71l-.31,1.73Z"/>
          <g id="g3786-7-0-5">
            <path id="path3757-1-4-6-7" class="st14" d="M77.21,43.95c12,3.31,23.75,11,33.16,21.9"/>
            <path id="path3745-3-1-9" class="st1" d="M88.35,60.2c6.12-13.48,12.47-18.5,18.36-24.51"/>
          </g>
          <path id="path3269-9-7-7-0-8" class="st11" d="M73.57,53.46c1.39,3.19,9.09,6.89,14.93,6.35,2,3.66,4.92,7.17,10.81,8.46h0c19.29-.6,31.66-13.46,27.12-22.8-2.21-4.57-8.47-8.29-19.92-9.33-2.91-8.25-11.33-14.25-23.76-11.25"/>
        </g>
      </g>
      <g id="g6065-9-3">
        <g id="g3808-7-35-0">
          <path id="path3269-9-7-76-2" class="st2" d="M46.29,107.45c-1.72,5-3.3,2.9-6.32,21.34,4.32,4,10.69,6.44,18.18,3.25,4.47,3.91,12.68,5.46,17.46-2.1,5.4,3.78,11.9-.51,14.64-7.36,5,.48,13.94-3.39,10.9-13.2,8.64-3.65,6.83-10.52,1.92-15.47,4.55-6.48,2.55-12.24-3.38-15.6-1.46-9.29-7.34-14.29-15.13-13.93-2.87-5.91-10.55-5.24-14.82-3.54-.21,5.1,0,.91-1,11,3.87,3.34,6.62,5.48,9.81,3.26.74,4.14,2.84,8.25,6.15,8.83.88,3.07-1.66,3.69,1.29,8.93-.93,2.16-3.3,3.73-2.16,8.73-5.94,1.22-3.54,4.07-5.17,5.95-7.49.69-8.09,3.27-10.87,5-6-1.81-6.87.75-9.46.83-3.34-3.25-6.18-2.93-8.72-2.61-1.72-2.46.62-2.78-3.36-3.27l.04-.04Z"/>
          <path id="rect5996-6-2" class="st6" d="M43.66,110.42c.73-.91.52.55,2.48-3.78l3.44,3.55,5.72.8,3.59,2c.94,1.3-7.31,1.34-11.67,3.22.15-2.45-2.09-4.88-3.56-5.9v.11Z"/>
          <path id="rect5996-8-5-3" class="st6" d="M85.65,82.69c0,.32-.47.22-1,1.32l-6.63-8.8c-3.71,1.8-6.24-.63-8.82-2.9v-1.11c.14.18,0-5.65.32-5.34.55.48,1.13.92,1.74,1.32.81.53,1.68.96,2.59,1.28,2.66.95,5.59.8,8.14-.41.45,1.71-1.87,10.64,4.28,12.89.78,5.06.88,10.23.4,11.69-1,3-1.89-8.83-1-9.94h-.02Z"/>
          <path id="rect5996-3-8-6" class="st19" d="M39.35,128.24c3.47-2.77,2.4.12,3.58-3.16,3.77-4.76,14.59-.22,15.85,2.77,3.44-4.83,11.65-5.83,16.33-1.53,4.37-5.43,9.07-8.33,15.24-5.13-.73-7.13,1.7-11.76,11-11.13-.53,12.36-6,10-10,11.95-3.56,7.05-9.63,8.58-15.39,8.41-5,4-10.4,6.36-17.28.94-12.32,4.9-14.48-.87-19.22-3.1l-.11-.02Z"/>
          <path id="rect6024-2-7" class="st17" d="M70,61.74c.92-1.5-.23,0,0-.67,3.27-1.44,8.12-1.51,10.29-.71,2.54.93,3.65,1,4.12,3.68.21,1.24,2.27,0,4.37.24,2.31.24,4.72,1.88,6.11,3,3.47,2.72,2.6,8.83,5.2,10.63,4.48,3.12,3.5,4.81,3.52,4.83l2.27,3-3.25,7.78,2.35.81s2.57,4,2.44,7.55c-.15,4.17-4.65,8.23-6.24,6.57-5.65-5.78-2.52-10.33.59-15.56,1.32-1.86-6.91-11.67-3.44-14.48-3.39.6-11.14-8.12-14.7-14.21-4.61,1.36-8.66-.22-12.47-1.79-.54-.22-.63-.45-1.17-.66h.01Z"/>
          <g id="g3786-7-5-1">
            <path id="path3757-1-4-4-5" class="st14" d="M66.52,70.26c.71-.08,1.79-.12,2.46-.13,7.56-.14,12.45,3.62,15.27,5.68,21.56,16.87-1.83,51.5-31.31,43.29-3.98-1.13-7.83-2.64-11.51-4.52"/>
            <path id="path3763-6-3-1" class="st5" d="M50.13,109.89c-1.37,7.06-5.12,14.6-10.16,19.15"/>
            <path id="path3765-6-2-7" class="st5" d="M58.59,113.02c1.65,6.19,1.49,12.72-.45,18.83"/>
            <path id="path3767-0-8-3" class="st5" d="M67.76,111.57c4.01,5.89,6.87,12.49,8.42,19.45"/>
            <path id="path3769-3-2-0" class="st5" d="M78.62,106.77c4.56,4.36,9.3,9.84,11.94,16"/>
            <path id="path3771-8-5-0" class="st5" d="M83.62,100.82c6.71,1.36,13.02,4.24,18.44,8.42"/>
            <path id="path3773-0-3-4" class="st5" d="M86.01,92.89c5.85-1.27,11.94-.99,17.65.81"/>
            <path id="path3776-1-6-8" class="st5" d="M84.85,83.68c4.47-2.98,9.55-4.92,14.87-5.66"/>
            <path id="path3778-2-1-3" class="st5" d="M78.67,75.41c1.19-4.17,3.4-9.13,6.73-12"/>
          </g>
          <path id="path3269-9-7-7-4-9" class="st11" d="M68.24,71.96c.51-.26.1-.09.59-.45,3.87,3.33,6.61,5.47,9.81,3.26.74,4.13,2.84,8.24,6.15,8.82.88,3.07-1.66,3.7,1.29,8.94-.93,2.16-3.3,3.73-2.16,8.73-5.95,1.21-3.54,4.06-5.17,5.94-7.49.69-8.09,3.27-10.87,5-6-1.82-6.87.75-9.46.83-3.34-3.26-6.18-2.94-8.72-2.61-.77-1.21-1.65-2.35-2.63-3.4M40.07,128.44c4.32,4,10.69,6.44,18.18,3.25,4.47,3.91,12.68,5.45,17.45-2.11,5.41,3.79,11.91-.51,14.65-7.35,5,.47,13.94-3.4,10.9-13.21,8.6-3.65,6.83-10.5,1.92-15.5,4.55-6.47,2.54-12.23-3.38-15.59-1.46-9.27-7.36-14.3-15.13-13.94-2.87-5.88-10.55-5.21-14.81-3.47"/>
        </g>
      </g>
    </g>
  </g>
</svg>