<?xml version="1.0" encoding="UTF-8" standalone="no"?>
<svg
   height="216"
   width="288"
   version="1.0"
   id="svg2"
   sodipodi:version="0.32"
   inkscape:version="1.2.2 (b0a8486541, 2022-12-01)"
   sodipodi:docname="Blason_ville_fr_Romorantin-Lanthenay_(LoirCher)_salamander.svg"
   inkscape:export-filename="/Users/olivier/Desktop/Blason Rouge/Blason_Vide_3D.png"
   inkscape:export-xdpi="144"
   inkscape:export-ydpi="144"
   inkscape:output_extension="org.inkscape.output.svg.inkscape"
   xmlns:inkscape="http://www.inkscape.org/namespaces/inkscape"
   xmlns:sodipodi="http://sodipodi.sourceforge.net/DTD/sodipodi-0.dtd"
   xmlns="http://www.w3.org/2000/svg"
   xmlns:svg="http://www.w3.org/2000/svg">
  <defs
     id="defs3891" />
  
  <g
     id="salamander_full"
     transform="translate(-6,-39)"
     style="stroke-linecap:round;stroke-linejoin:round;">
    <path
       sodipodi:nodetypes="ccccccccccccccccccccccccccccccccscccccscccsccscccccccccssccscscsccccccccccc"
       id="back_flame"
       d="m 144.23825,95.161184 c -7.89465,7.676466 -10.86172,11.733956 -0.96595,16.973436 -12.23506,-1.37081 -10.07618,-7.86795 -9.31467,-16.252349 -10.80494,9.252449 -2.65634,7.830749 -8.90111,18.408439 -0.5913,-6.93028 -2.92734,-5.51136 -8.02993,-11.16698 -0.0462,6.6869 -4.79,9.3003 -8.39536,12.58789 -4.73593,-1.95043 -1.95289,-4.16896 -6.40919,-5.2188 -3.349139,6.00701 -12.541867,6.4059 -19.58057,-8.50404 -4.219102,8.56675 -16.54933,10.48053 -16.971736,14.36545 -6.98066,-3.36923 -8.109991,-0.50376 -13.344272,-14.20046 -7.063464,6.30658 -6.457025,6.96512 -5.569981,15.34566 -9.178012,-6.83464 -21.50157,-2.50647 -25.431481,0.55302 6.607023,0.44776 12.076793,9.87075 11.094465,14.65568 -0.471586,2.29713 -11.225519,1.13579 -10.05409,11.10621 6.695006,-4.19864 16.52035,3.03461 18.912889,3.18857 -4.637656,4.19498 -6.255991,9.97818 -15.206265,7.19109 5.549025,11.55463 27.158306,-6.5527 36.906817,8.63133 -4.277954,5.80354 -21.102213,5.53776 -25.320482,4.63243 11.278073,15.90519 29.053344,7.49272 32.755665,10.17795 2.75731,4.68871 -2.275861,8.71597 -17.876313,2.93305 3.782199,6.07104 7.770452,11.18827 16.659016,9.85039 -2.300464,5.97867 -12.409775,0.37672 -16.775287,12.464 20.377548,-5.97931 18.041558,1.61018 31.482562,-3.67984 -3.00574,5.32189 -4.469559,9.09049 -11.474711,11.54918 8.594174,7.05136 17.662222,-6.8796 24.514261,-11.13098 -5.951388,4.51903 -0.801223,13.61484 -11.518246,19.06024 17.886789,3.65932 15.809709,-10.12912 25.069899,-20.65943 -3.8703,18.76426 8.74595,10.14024 7.14548,25.10588 11.36075,-7.71901 2.8286,-13.5036 7.20325,-19.7447 14.50339,6.04266 4.83328,14.15484 23.06632,22.29781 -0.51336,-12.06467 3.564,-14.86011 10.24597,-4.20837 -4.0237,-7.8053 12.2049,-8.83342 -1.57431,-20.82353 6.37556,3.62235 12.23255,5.01564 13.54532,15.79265 0.82746,6.79282 6.24066,7.4316 8.4016,9.23075 -7.37667,-9.53977 2.41621,-13.28664 -2.93467,-23.20896 9.02703,4.04073 0.6997,17.84809 20.22419,17.1786 -9.43933,-5.71252 -6.48912,-12.39383 -8.88974,-16.06267 12.53692,8.5108 20.0647,19.98843 35.85457,13.89438 -10.06035,-0.20021 -19.34885,-19.59367 -1.1431,-12.19577 3.81509,1.55026 4.57358,8.26792 14.91537,5.66267 -5.06615,-9.21232 2.31538,-7.70352 -3.51231,-15.36744 7.3476,6.19639 15.86889,-3.90868 14.15347,7.52996 3.59042,0.93363 7.88666,-3.2482 7.38742,-8.89181 -0.67735,-7.65707 -9.11354,-7.86826 -7.94957,-9.18032 2.71757,0.0822 11.89459,-5.05742 14.13566,1.00914 6.11199,-5.36994 -5.14449,-9.00056 4.0832,-11.32302 9.23603,-2.32458 9.74719,-3.52629 11.76488,-10.46078 -14.13321,10.31763 -13.66618,-1.33474 -22.85809,-1.45831 12.35761,-2.88616 13.32401,6.25146 24.20645,-6.51775 -11.12287,1.50226 -23.27777,-2.62788 -26.53046,-8.59111 13.00144,5.90758 18.66143,4.66795 25.29934,-4.53586 -11.58435,1.90913 -14.07073,-5.74135 -30.38843,-5.01704 27.67315,-0.26357 22.60519,-11.66195 27.87192,-11.3169 -2.90345,-4.31248 -11.88827,0.63726 -11.88827,0.63726 10.7088,-10.7589 13.6701,-7.02193 16.23323,-2.53983 0,0 1.42903,-8.81274 -5.8599,-9.1209 -2.7795,-0.1175 -9.22759,2.14853 -12.85469,5.30447 -5.68362,4.94529 -13.90431,8.75226 -15.50201,9.17036 19.74265,-8.44301 8.48434,-14.04339 24.73591,-23.65375 0.14729,-0.88572 -12.0811,-1.42066 -15.02408,0.51416 -11.39417,7.49088 -1.38178,10.89735 -18.04796,15.85225 3.25459,-5.34184 7.65178,-8.34445 6.55606,-13.72064 -1.13402,-5.56413 -0.22247,-11.201258 2.34923,-15.274737 -10.56814,4.071697 -11.9135,8.881847 -13.67381,14.608587 -1.53388,4.98986 -5.77844,3.82023 -11.2978,8.12335 -6.02289,-6.98229 9.02661,-11.49239 2.88858,-20.1352 -4.42993,6.95038 -13.00974,11.53646 -19.20104,8.91759 5.32158,-5.664891 -0.61098,-7.538628 6.21623,-15.772848 -15.15896,3.797986 -23.0995,19.514248 -30.19928,6.00901 -3.54507,5.356478 -7.8033,3.874181 -9.58263,9.305388 -3.32403,-2.65539 -5.03225,-8.383701 -2.88121,-12.069041 -9.05386,3.422118 -5.646,15.604161 -10.1311,18.415431 1.91217,-8.39844 -0.49494,-11.1864 -4.65306,-14.116556 0.68465,3.092076 1.01228,6.160296 -1.79899,8.491196 -4.59092,-0.9384 -5.97963,-5.960751 -6.36307,-10.604186 z"
       style="fill:#e20909;stroke:#000000;stroke-width:1.6;" />
    <g
       transform="translate(0.184576,2)"
       id="main_salamander">
      <path
         sodipodi:nodetypes="cssc"
         id="front_right_leg_1"
         d="m 133.4619,120.6204 c 0,0 -14.87973,0.84969 -18.01254,-2.33085 -3.03962,-3.08595 -5.28573,-1.81007 -6.50383,-0.2835 -3.82239,4.79035 -13.005896,12.68091 -13.005896,12.68091"
         style="fill:#fcef3c;stroke:#000000;stroke-width:1.6;" />
      <g
         transform="matrix(0.7853017,-0.1526472,0.1526472,0.7853017,-123.90408,-76.158579)"
         id="flame_breath">
        <path
           style="opacity:1;fill:#e20909;stroke:#000000;stroke-width:2;"
           d="m 291.44441,252.56866 c 0,0 14.37028,-10.18411 32.43653,-1.32368 9.59861,4.70755 20.55679,5.92325 30.35828,4.81626 7.67425,-0.86674 21.15097,-3.99714 26.87671,7.45433 -16.12505,-7.63905 -24.15559,1.85857 -32.03476,-0.79723 l -14.99633,4.57715 -5.93045,1.07329 -19.94024,-11.72415 c 5.50162,6.29464 1.37125,9.4654 -1.86331,12.92668 0.63476,-10.10376 -5.54943,-13.94171 -15.47088,-13.43857"
           id="path3831"
           sodipodi:nodetypes="cssccccccc" />
        <path
           style="opacity:1;fill:#e20909;stroke:#000000;stroke-width:2;"
           d="m 307.6013,256.34716 c 9.32171,2.52116 9.43049,16.91591 21.49862,20.33886 0.7691,-2.70489 -0.88616,-5.2233 -2.28329,-7.76156 4.61192,2.59059 8.98689,5.46552 12.3141,9.59776 3.3802,-14.09949 -15.78887,-11.63717 -25.24078,-23.80544"
           id="path3827"
           sodipodi:nodetypes="ccccc" />
        <path
           style="opacity:1;fill:#e20909;stroke:#000000;stroke-width:2;"
           d="m 328.5953,257.23746 c 11.48215,7.29123 25.90468,-1.16691 27.25083,17.37227 -7.90683,-11.60293 -14.47667,-5.18776 -21.35744,-7.42899"
           id="path3829"
           sodipodi:nodetypes="ccc" />
      </g>
      <path
         sodipodi:nodetypes="csccssss"
         id="front_right_leg_2"
         d="m 56.360437,138.63373 c -4.784695,10.30294 5.442996,4.73879 8.331193,5.57965 14.408157,4.1948 23.360372,-2.08265 21.833906,-3.78573 l -5.164843,-14.21121 c 0,0 -8.09917,1.64903 -11.366391,0.65343 -2.104987,-0.64144 -3.724005,-3.8429 -5.843886,-4.43326 -2.651189,-0.73832 -6.695315,1.28867 -8.444722,3.41317 -2.915174,3.54022 2.586356,8.62458 0.654743,12.78395 z"
         style="fill:#fcef3c;stroke:#000000;stroke-width:1.6;" />
      <path
         sodipodi:nodetypes="cscccsscc"
         id="tail_tip"
         d="m 133.80071,189.09768 c -4.58255,6.12335 -11.50267,8.17975 -15.22912,5.96613 -2.68187,-1.5931 -2.56893,-4.49706 -1.02842,-6.99275 -4.36478,4.18202 -10.4715,-0.84562 -15.75819,-1.53775 1.03211,-0.95592 1.02271,-2.32345 4.16053,-2.44715 0,0 5.71401,0.0473 8.08067,-0.49865 2.22562,-0.51339 4.75325,-2.85385 7.0367,-2.90711 0.89114,-0.0208 2.79604,1.00527 2.79604,1.00527 2.42004,-3.16299 3.81859,-2.94301 5.42253,-3.4032"
         style="fill:#fcef3c;stroke:#000000;stroke-width:1.6;" />
      <path
         sodipodi:nodetypes="csssssssssssssccsssscssssssssscc"
         id="body_main"
         d="m 147.44675,180.24116 c 10.54604,0.0952 9.05354,13.7836 0.86852,14.30357 -25.61063,1.62697 -28.27935,-40.76181 9.75299,-33.7671 14.4187,2.65181 19.62916,7.65202 32.18559,10.72462 33.98408,8.31602 47.35434,-17.55522 -1.56707,-25.17447 -9.5956,-1.49446 -19.73649,-1.47224 -37.23443,8.16907 -35.83924,19.7473 -80.296489,4.58554 -82.769756,-29.64521 -0.525826,-7.27766 -2.387042,-26.335003 20.021079,-39.432087 1.510177,-0.882667 5.277551,-6.233674 6.949859,-7.13899 4.567578,-2.4727 9.546938,-6.175659 12.403138,-7.604615 1.71964,-0.860335 5.29197,-1.067391 6.45122,-0.705337 4.08239,1.275009 14.00875,0.501477 26.83483,0.127541 2.70532,-0.07887 3.37347,1.439211 4.08681,2.663024 0.6296,1.080141 0.45277,2.636853 -1.52669,4.679732 -0.41046,0.423618 -1.14736,0.378134 -1.72105,0.567206 l 0.0775,2.076371 c 1.13066,0.143298 2.96775,-1.007691 3.38007,0.53754 0.55931,2.096062 -2.29458,4.102734 -7.48942,6.348778 -4.3448,1.878519 -22.13535,6.300237 -36.1105,16.752947 -1.00096,0.74867 -3.482629,1.40538 -6.104079,1.66172 -2.84377,0.27808 -3.057751,1.78528 -3.692796,3.03118 -3.39594,9.64195 2.8472,16.29467 9.842865,17.2623 6.53916,0.90447 14.50773,-0.24131 20.26761,-4.06466 11.83948,-7.85895 19.19487,-8.92106 26.88958,-9.3311 5.62888,-0.29641 10.20585,-0.88956 15.32021,-2.27776 1.60184,-0.43479 3.35499,-1.63347 4.62309,-3.11257 6.21135,-7.244894 12.01422,-3.99999 15.35124,-3.11374 6.19149,1.64434 13.66055,9.51857 21.5789,10.92349 61.73611,11.00826 60.19711,93.97817 -15.90635,75.34357 -14.84295,-3.63442 -32.99088,-17.24099 -43.52226,-14.10742 -3.94065,1.17253 -3.44191,1.11345 -2.33057,3.10348 z"
         style="fill:#fcef3c;stroke:#000000;stroke-width:1.6;" />
      <path
         sodipodi:nodetypes="cc"
         id="tail_tip_fold"
         d="m 123.95307,181.56366 c -1.29348,2.69072 1.22812,4.61388 2.49771,5.93641"
         style="stroke:#000000;stroke-width:1.6;fill:none;" />
      <path
         sodipodi:nodetypes="cssccccccc"
         id="rear_left_leg_1"
         d="m 208.00437,127.82744 c -3.35409,-3.42966 -4.35915,-5.49433 -11.64253,-7.42142 -10.4818,-2.77335 -18.36213,-3.65848 -23.41272,6.14135 -4.6441,9.01111 -5.23583,7.17498 -2.92666,18.14566 1.16314,7.1896 4.81678,8.07772 8.47439,8.95577 l 1.02843,3.33329 7.03356,5.10585 c 13.87759,1.58669 19.19827,-1.35498 21.18191,-14.34151 -0.37301,-3.64829 -3.32982,-2.9167 -5.49199,-3.53213 l 0.88564,-3.25415"
         style="fill:#fcef3c;stroke:#000000;stroke-width:1.6;" />
      <path
         sodipodi:nodetypes="csccc"
         id="rear_left_leg_2"
         d="m 194.44524,157.54988 c -6.17296,3.58713 -6.9796,5.83341 -9.36143,10.23558 -1.85535,3.42909 -5.37297,3.10969 -8.02806,-0.50978 L 165.11518,155.4883 c 1.16133,-7.83705 8.89063,-0.43157 13.38167,-1.8395"
         style="fill:#fcef3c;stroke:#000000;stroke-width:1.6;" />
      <path
         sodipodi:nodetypes="cscscsccccsc"
         id="front_left_leg"
         d="m 121.86793,147.46463 c -0.39268,-3.67666 -4.95837,-3.6853 -8.16504,-6.41059 -2.99444,-2.54492 -18.835539,-3.50997 -18.787086,3.38689 -0.270938,5.22941 -4.239921,7.44154 -0.598515,13.82558 3.60486,6.31998 7.269211,6.89037 10.903811,10.33555 -2.2176,-1.42876 -3.57053,-3.49086 -10.954452,-5.67016 -5.246992,-1.5486 -7.722751,2.30021 -6.965153,3.70454 l 9.899894,18.06116 c 5.153091,5.04481 9.027751,-5.35996 12.945911,-3.56402 4.38167,-0.98832 8.87721,-0.67502 13.13633,-3.06419 3.98698,-1.43919 4.34656,-6.41376 3.31296,-9.27522 -2.41608,-6.68872 -3.17553,-9.50135 -4.69778,-13.28801"
         style="fill:#fcef3c;stroke:#000000;stroke-width:1.6;" />
      <g
         id="back_path"
         transform="matrix(0.7889862,-0.06902735,0.06972459,0.7969558,-101.51148,-102.65213)"
         style="fill:#fcef3c;stroke:#000000;stroke-width:2;stroke-linecap:round;stroke-linejoin:round">
        <path
           sodipodi:nodetypes="cscc"
           id="path3545"
           d="m 212.9375,258.78125 c -1.15635,1.19086 -1.12836,3.09365 0.0625,4.25 1.19086,1.15635 2.59933,0.55166 3.75568,-0.6392 2.69382,-5.67861 10.95693,-16.72367 -3.81818,-3.6108 z" />
        <path
           sodipodi:nodetypes="ccssccc"
           id="path3547"
           d="m 212.625,260.875 -4.78125,4.90625 c -0.63221,0.89292 -0.72825,2.05918 -0.25064,3.0435 0.47762,0.98431 1.45317,1.63061 2.5458,1.68659 1.09264,0.056 2.12913,-0.48724 2.70484,-1.41759 1.20159,-2.41759 0.92272,-5.5095 2.49617,-6.65874 -0.54035,-0.98844 -1.58885,-1.59091 -2.71492,-1.56001 z" />
        <path
           sodipodi:nodetypes="ccsscccc"
           id="path3549"
           d="m 208.78125,267.34375 -4.71875,5.84375 c -0.49166,0.97702 -0.41269,2.14419 0.2061,3.04608 0.61879,0.90189 1.67933,1.39559 2.76783,1.28847 1.0885,-0.10712 2.03246,-0.79809 2.46357,-1.8033 0.59193,-2.72533 1.30876,-5.41107 1.7714,-6.93558 -0.53099,-0.87233 -1.46922,-1.41467 -2.49015,-1.43942 z" />
        <path
           sodipodi:nodetypes="ccsccc"
           id="path3551"
           d="m 205.25,275.21875 -4.125,7.03125 c -0.44873,1.59645 0.48168,3.25439 2.07812,3.70313 1.59645,0.44873 3.2544,-0.48168 3.70313,-2.07813 -0.44834,-3.47581 0.26376,-6.5475 0.83035,-7.5044 -0.59486,-0.76217 -1.52056,-1.19098 -2.4866,-1.15185 z" />
        <path
           sodipodi:nodetypes="ccscccc"
           id="path3553"
           d="m 203.1875,284 -3.21875,7.84375 c -0.11218,1.65685 1.14002,3.09094 2.79687,3.20313 1.65686,0.11218 3.09095,-1.14003 3.20313,-2.79688 -1.33427,-2.71431 -1.04392,-5.43683 -0.48317,-7.33229 -0.59833,-0.62226 -1.4357,-0.95666 -2.29808,-0.91771 z" />
        <path
           sodipodi:nodetypes="cccscc"
           id="path3555"
           d="m 203.0625,293.3125 c -0.89891,0.0393 -1.73272,0.47995 -2.27161,1.20049 l 0.89661,8.42451 c 0.38833,1.61371 2.01129,2.60708 3.625,2.21875 1.61371,-0.38833 2.60708,-2.01129 2.21875,-3.625 -2.52304,-3.00855 -2.91494,-6.7168 -4.46875,-8.21875 z" />
        <path
           sodipodi:nodetypes="cccsscc"
           id="path3557"
           d="m 205.9375,302.53125 c -1.1195,0.0544 -2.11532,0.72828 -2.58208,1.74728 l 3.76958,7.62772 c 0.60524,0.94126 1.68402,1.46747 2.79838,1.36498 1.11436,-0.10248 2.07907,-0.81662 2.50248,-1.85248 0.42341,-1.03587 0.23515,-2.22128 -0.48836,-3.075 -2.41183,-1.88554 -4.70783,-4.29472 -6,-5.8125 z" />
        <path
           sodipodi:nodetypes="cccssccc"
           id="path3559"
           d="m 212.375,309.78125 c -1.3331,0.11169 -2.4312,1.09247 -2.69217,2.40454 l 6.25467,5.78296 c 0.94407,0.60724 2.14814,0.63671 3.12078,0.0764 0.97265,-0.56034 1.55116,-1.61674 1.49941,-2.73805 -0.0517,-1.12131 -0.72508,-2.11995 -1.74519,-2.58833 -2.14558,-1.0238 -4.03468,-0.85217 -6.4375,-2.9375 z" />
        <path
           sodipodi:nodetypes="ccssccc"
           id="path3561"
           d="m 218.77346,316.72714 c 1.89939,3.07862 5.50057,2.75365 8.28904,4.05411 1.07608,0.23349 2.1936,-0.14123 2.9114,-0.97623 0.7178,-0.835 0.92053,-1.99611 0.52816,-3.02495 -0.39236,-1.02884 -1.31678,-1.76009 -2.40831,-1.90507 l -5.2239,-0.28812 c -2.09988,-0.16202 -3.50589,0.28233 -4.09639,2.14026 z" />
        <path
           sodipodi:nodetypes="ccscscc"
           id="path3563"
           d="m 239.3125,314.8125 c -0.0733,0.008 -0.14624,0.0181 -0.21875,0.0312 -3.5301,0.90997 -9.40703,0.21587 -9.95313,3.35937 -0.42914,2.47026 6.6184,1.9257 10.17188,2.60938 1.64031,-0.0232 2.95787,-1.35953 2.95787,-3 0,-1.64047 -1.31756,-2.9768 -2.95787,-3 z" />
        <path
           sodipodi:nodetypes="cccccsc"
           id="path3565"
           d="m 250.78125,313.0625 c -0.16812,0.007 -0.33538,0.0277 -0.5,0.0625 -3.20579,2.42914 -7.42735,1.4784 -9.40831,3.12382 -0.39237,1.02884 -0.18964,2.18995 0.52816,3.02495 l 9.9114,-0.24252 c 1.57999,-0.22464 2.70764,-1.64682 2.56616,-3.23642 -0.14148,-1.5896 -1.50258,-2.79027 -3.09741,-2.73233 z" />
        <path
           sodipodi:nodetypes="cccccsc"
           id="path3567"
           d="m 261.1875,310.5 c -0.26479,0.007 -0.52749,0.049 -0.78125,0.125 -2.47199,1.85222 -5.55154,2.71893 -8.15685,3.62113 -0.32533,1.08266 -0.0145,2.25628 0.80411,3.03595 l 8.88399,-0.84458 c 1.54141,-0.31006 2.58201,-1.75749 2.38497,-3.31738 -0.19704,-1.55989 -1.56488,-2.70309 -3.13497,-2.62012 z" />
        <path
           sodipodi:nodetypes="cccsccscc"
           id="path3569"
           d="m 271.375,307.28125 c -0.2662,0.0171 -0.52894,0.0697 -0.78125,0.15625 l -4.91484,2.80391 c -1.57919,0.50914 -3.37555,1.27315 -2.86641,2.85234 0.50914,1.57919 2.20206,0.96038 3.78125,0.45124 l 5.84375,-0.38874 c 1.48066,-0.42488 2.39899,-1.90203 2.12485,-3.41786 -0.27414,-1.51583 -1.65166,-2.57777 -3.18735,-2.45714 z" />
        <path
           sodipodi:nodetypes="cccccscc"
           id="path3571"
           d="m 281.75,303.8125 c -0.2662,0.0171 -0.52894,0.0697 -0.78125,0.15625 -3.40988,2.50436 -7.26626,3.90085 -7.5625,5.6875 0.5264,1.57919 1.67596,1.68952 3.25515,1.16312 l 6.2136,-1.16312 c 1.43229,-0.47271 2.29101,-1.93524 2.00588,-3.41632 -0.28513,-1.48108 -1.62546,-2.52027 -3.13088,-2.42743 z" />
        <path
           sodipodi:nodetypes="cccccsc"
           id="path3573"
           d="m 292.28125,300.65625 c -0.2662,0.0171 -0.52894,0.0697 -0.78125,0.15625 -3.53761,3.22893 -8.28605,3.40004 -8.70313,5.64063 0.466,1.59644 0.46563,1.49292 2.06208,1.02693 l 8.2973,-0.91756 c 1.49446,-0.37671 2.46042,-1.82442 2.23456,-3.34899 -0.22586,-1.52456 -1.57008,-2.63002 -3.10956,-2.55726 z" />
        <path
           sodipodi:nodetypes="cccccsc"
           id="path3575"
           d="m 303.25,298.21875 c -0.0632,0.0188 -0.1257,0.0396 -0.1875,0.0625 -3.10794,1.67617 -7.08205,2.31834 -8.96329,3.22472 -0.38486,1.05064 -0.15312,2.22815 0.60117,3.05459 l 9.51837,-0.40431 c 1.6396,-0.26751 2.75189,-1.81353 2.48437,-3.45313 -0.26751,-1.63959 -1.81352,-2.75188 -3.45312,-2.48437 z" />
        <path
           sodipodi:nodetypes="ccccssc"
           id="path3577"
           d="m 314.80034,296.83427 c -3.47073,0.95704 -7.53696,1.78689 -9.515,2.41528 -0.4849,0.99791 -0.37951,2.18195 0.27401,3.07853 l 9.74099,0.47494 c 1.11489,-0.0258 2.12346,-0.6679 2.61871,-1.66709 0.49524,-0.99919 0.39544,-2.19062 -0.25914,-3.09348 -0.65458,-0.90287 -1.75592,-1.36819 -2.85957,-1.20818 z" />
        <path
           sodipodi:nodetypes="ccscc"
           id="path3579"
           d="m 316.27077,300.02709 c 3.82171,1.74256 7.72406,1.46674 10.63548,2.78541 1.65685,0.0259 3.02099,-1.29627 3.04688,-2.95312 0.0259,-1.65686 -1.29628,-3.02099 -2.95313,-3.04688 -4.24536,1.4609 -10.76197,0.65813 -10.72923,3.21459 z" />
        <path
           sodipodi:nodetypes="ccsccc"
           id="path3581"
           d="m 328.21323,300.01868 c 2.32858,2.48229 5.48585,2.47854 8.25552,3.63757 1.64822,0.18122 3.13128,-1.00803 3.3125,-2.65625 0.18122,-1.64822 -1.00803,-3.13128 -2.65625,-3.3125 l -5.37672,0.30391 c -2.06726,-0.0465 -2.97532,0.25223 -3.53505,2.02727 z" />
        <path
           sodipodi:nodetypes="cccssccc"
           id="path3583"
           d="m 337.6994,301.13087 c -0.0869,1.5005 1.94479,2.03785 3.42046,2.32324 l 4.78639,2.01464 c 1.08572,0.33753 2.26895,0.0324 3.05598,-0.78819 0.78703,-0.82054 1.04263,-2.01546 0.66014,-3.08617 -0.38248,-1.07071 -1.33733,-1.83323 -2.46612,-1.96939 -2.21903,-0.49629 -5.36848,0.12372 -7.61087,-0.16262 -2.59266,-0.36266 -2.01501,-0.87196 -1.84598,1.66849 z" />
        <path
           sodipodi:nodetypes="cccssccc"
           id="path3585"
           d="m 347.62395,303.31447 c -0.14591,1.44383 -0.002,0.90755 1.3926,1.30794 l 6.4522,3.65884 c 1.04271,0.39502 2.21848,0.17921 3.05293,-0.56036 0.83446,-0.73957 1.18996,-1.88089 0.92306,-2.96351 -0.26689,-1.08261 -1.11214,-1.92792 -2.19474,-2.19488 l -7.55412,-0.7322 c -2.10341,-0.55181 -1.34279,-0.33985 -2.07193,1.48417 z" />
        <path
           sodipodi:nodetypes="cccssccc"
           id="path3587"
           d="m 357.59879,306.52489 c -0.20124,1.37884 -0.22291,1.33827 1.07371,1.84863 L 364.90625,312 c 1.00572,0.50749 2.21096,0.40885 3.12079,-0.25541 0.90982,-0.66426 1.37089,-1.78219 1.19385,-2.89469 -0.17703,-1.11251 -0.96232,-2.03211 -2.03339,-2.38115 l -5.00831,-1.45411 c -2.10699,-0.7366 -3.76038,-0.35537 -4.5804,1.51025 z" />
        <path
           sodipodi:nodetypes="ccssccc"
           id="path3589"
           d="m 367.19186,310.62165 7.52689,6.25335 c 0.95817,0.59576 2.16956,0.6036 3.13536,0.0203 0.9658,-0.5833 1.52269,-1.65913 1.44137,-2.78447 -0.0813,-1.12535 -0.7871,-2.10993 -1.82673,-2.54832 l -6.07397,-1.86867 c -2.11122,-0.92536 -3.3201,-0.97638 -4.20292,0.92782 z" />
        <path
           sodipodi:nodetypes="cccscc"
           id="path3591"
           d="m 378.92286,314.33861 c -1.33361,0.0267 -1.69356,-0.0642 -2.04085,1.22367 l 6.83674,6.81272 c 1.4066,0.8802 3.26042,0.45348 4.14062,-0.95312 0.88021,-1.40661 0.45348,-3.26043 -0.95312,-4.14063 -2.42162,-1.24786 -5.24217,-2.52169 -7.98339,-2.94264 z" />
        <path
           sodipodi:nodetypes="cccscc"
           id="path3593"
           d="m 387.89161,319.64794 c -1.28031,0.0518 -1.5905,0.5131 -1.95739,1.74081 l 5.72203,6.705 c 1.32894,0.99239 3.21074,0.71956 4.20313,-0.60937 0.99238,-1.32894 0.71956,-3.21074 -0.60938,-4.20313 -2.16684,-1.46432 -4.9419,-2.19847 -7.35839,-3.63331 z" />
        <path
           sodipodi:nodetypes="cccscc"
           id="path3595"
           d="m 396.25,325.34375 c -1.15707,0.1018 -2.15142,0.8623 -2.55266,1.95234 l 4.11516,6.73516 c 1.15635,1.19086 3.05914,1.21885 4.25,0.0625 1.19086,-1.15635 1.21885,-3.05914 0.0625,-4.25 -2.79047,-1.67038 -6.0136,-3.88362 -5.875,-4.5 z" />
        <path
           sodipodi:nodetypes="cccsscc"
           id="path3597"
           d="m 402.84375,332.84375 c -1.06028,0.0727 -2.00298,0.70092 -2.47826,1.65149 l 2.91576,7.34851 c 0.53412,0.97245 1.5613,1.57076 2.67067,1.55562 1.10938,-0.0151 2.11985,-0.64125 2.62724,-1.62791 0.50739,-0.98667 0.42887,-2.17279 -0.20416,-3.08396 -2.63879,-1.73847 -4.32696,-4.12868 -5.53125,-5.84375 z" />
        <path
           sodipodi:nodetypes="cccsccc"
           id="path3599"
           d="m 407.53125,341.03125 c -0.95218,0.0283 -1.83432,0.50716 -2.37688,1.29016 l 1.47063,8.30359 c 0.51777,1.57919 2.21769,2.43964 3.79688,1.92188 1.57918,-0.51777 2.43964,-2.21769 1.92187,-3.79688 -2.31781,-2.46093 -2.46042,-6.11099 -4.8125,-7.71875 z" />
        <path
           sodipodi:nodetypes="cccsscccc"
           id="path3601"
           d="m 409.9375,351.40625 c -1.5333,0.17677 -1.18781,1.48801 -1.16173,3.03125 l -1.46327,6.03125 c -0.009,1.08127 0.56532,2.08351 1.5022,2.62339 0.93689,0.53988 2.0918,0.53387 3.02301,-0.0157 0.93121,-0.54961 1.49464,-1.55778 1.47479,-2.6389 l -1.15214,-5.62637 c -0.12864,-2.01183 -0.3404,-3.29995 -2.22286,-3.40488 z" />
        <path
           sodipodi:nodetypes="ccsscccc"
           id="path3603"
           d="m 409.40625,361.5 -4.34375,7.28125 c -0.37427,1.02484 -0.16269,2.17207 0.55251,2.99599 0.71521,0.82392 1.82132,1.19465 2.88859,0.96815 1.06727,-0.22649 1.92747,-1.0145 2.2464,-2.05789 0.34392,-3.48496 1.64069,-6.98492 1.28039,-8.04289 -0.62453,-0.80117 -1.61206,-1.23192 -2.62414,-1.14461 z" />
        <path
           sodipodi:nodetypes="ccscccc"
           id="path3605"
           d="m 405.90625,370.28125 -5.875,5.59375 c -1.04416,1.29442 -0.84129,3.19021 0.45313,4.23438 1.29441,1.04416 3.19021,0.84129 4.23437,-0.45313 0.70207,-2.70842 3.41314,-4.67528 3.97149,-7.6972 -0.51843,-1.05706 -1.60718,-1.7132 -2.78399,-1.6778 z" />
        <path
           sodipodi:nodetypes="ccsscccc"
           id="path3607"
           d="m 399.15625,377.34375 -5.875,3.09375 c -0.9609,0.5275 -1.55765,1.53705 -1.5565,2.63322 0.001,1.09617 0.60002,2.10446 1.56203,2.62994 0.96201,0.52547 1.76039,0.29767 2.68334,-0.29373 1.98388,-2.18596 4.79363,-3.26986 6.27886,-5.95253 -0.41156,-1.33943 -1.69544,-2.21562 -3.09273,-2.11065 z" />
        <path
           sodipodi:nodetypes="cscccc"
           id="path3609"
           d="m 384.5625,383.84375 c -1.56193,0.56091 -2.37341,2.28182 -1.8125,3.84375 0.56091,1.56193 2.28182,1.97711 3.84375,1.4162 l 5.62214,-3.85647 c 1.41039,-0.51098 1.16986,-1.19252 0.85447,-2.65909 z" />
        <path
           sodipodi:nodetypes="ccccc"
           id="path3611"
           d="m 372.37333,386.81404 0.61067,5.26301 11.85477,-3.78445 -1.56811,-3.20087 z" />
        <path
           sodipodi:nodetypes="ccsccc"
           id="path3613"
           d="m 362.27577,391.61816 10.61313,-0.0631 c 0.54961,-0.93121 0.83584,-2.08612 0.29596,-3.02301 -0.53988,-0.93688 -1.95444,-0.95972 -3.03571,-0.95114 l -6.9976,-0.6851 c -0.84047,0.12523 -0.0686,2.91775 -0.87578,4.72232 z" />
        <path
           id="path3615"
           d="m 348.55657,388.35182 13.71561,2.72912 0.28046,-3.20928 -12.39161,-3.46609 z"
           sodipodi:nodetypes="ccccc" />
        <path
           id="path3617"
           d="m 338.87808,379.21841 -2.52587,3.63231 12.24105,5.14955 1.32622,-2.7643 z"
           sodipodi:nodetypes="ccccc" />
        <path
           id="path3619"
           d="m 327.96978,372.28227 -2.17427,4.06105 10.75475,5.86885 1.65036,-2.69009 z"
           sodipodi:nodetypes="ccccc" />
        <path
           id="path3621"
           d="m 316.97389,366.09512 -2.01238,3.69647 10.66138,5.62987 1.56203,-2.62994 z"
           sodipodi:nodetypes="ccccc" />
        <path
           id="path3623"
           d="m 305.22389,360.0649 -1.5795,3.96094 10.92666,4.85433 1.24306,-2.75361 z"
           sodipodi:nodetypes="ccccc" />
        <path
           id="path3625"
           d="m 294.19366,357.34375 -0.6815,3.96057 10.52577,2.09043 0.90454,-3.00116 z"
           sodipodi:nodetypes="ccccc" />
        <path
           id="path3627"
           d="m 283.53969,358.23815 1.67701,3.85594 8.47868,-1.3421 -0.36755,-2.88698 z"
           sodipodi:nodetypes="ccccc" />
        <path
           id="path3629"
           d="m 273.29482,363.36314 2.52145,2.85287 8.57869,-4.39975 -1.70848,-2.64243 z"
           sodipodi:nodetypes="ccccc" />
        <path
           id="path3631"
           d="m 273.05976,363.9667 -3.34272,9.19127 3.65727,0.0876 2.48739,-7.35652 z"
           sodipodi:nodetypes="ccccc" />
        <path
           id="path3633"
           d="m 269.56216,373.68237 1.02277,10.25884 3.7554,-1.26056 -1.37295,-9.54915 z"
           sodipodi:nodetypes="ccccc" />
        <path
           id="path3635"
           d="m 274.36713,383.02782 -2.95269,0.94365 5.19691,7.24676 2.12519,-3.0775 z"
           sodipodi:nodetypes="ccccc" />
        <path
           id="path3637"
           d="m 277.53168,391.19822 10.46834,1.98111 -0.40592,-3.30517 -8.57013,-1.04145 z"
           sodipodi:nodetypes="ccccc" />
      </g>
      <g
         id="front_left_claws"
         style="fill:#fff;stroke:#000000;stroke-width:1.6;">
        <path
           sodipodi:nodetypes="cscc"
           id="path3845"
           d="m 91.118164,170.71972 c 0.04325,-2.65198 1.350012,-5.8467 -3.981579,-5.1018 -11.88005,1.6598 -13.096654,12.18085 -10.170869,21.8066 3.063441,-5.70667 4.08342,-11.54328 14.152448,-16.7048 z" />
        <path
           sodipodi:nodetypes="cscs"
           id="path3847"
           d="m 90.946582,170.8082 c 5.283564,-1.19545 4.788696,6.01223 3.148727,7.00191 -11.06697,6.67862 -11.109343,10.47876 -12.009635,15.94233 -3.694761,-2.32665 -5.579064,-19.67707 8.860908,-22.94424 z" />
        <path
           sodipodi:nodetypes="cssc"
           id="path3849"
           d="m 91.028367,193.26466 c 2.401831,-1.45364 3.597332,-6.4806 8.951909,-7.11714 3.424824,-0.40714 0.391534,-13.95656 -4.97356,-9.89431 -6.803497,5.15134 -6.701518,13.61626 -3.978349,17.01145 z" />
      </g>
      <g
         id="front_right_claws"
         style="fill:#fff;stroke:#000000;stroke-width:1.6;">
        <path
           d="m 56.91943,127.19216 c 1.737799,-2.00374 4.792351,-3.61106 0.229318,-6.46752 -10.167553,-6.36486 -17.86232,0.91272 -21.808361,10.16712 6.014911,-2.40243 10.547965,-6.21789 21.579043,-3.6996 z"
           id="path3851"
           sodipodi:nodetypes="cscc" />
        <path
           d="m 59.563744,127.59498 c 4.81587,2.48044 -0.19624,7.68375 -2.08868,7.38775 -12.770731,-1.9976 -15.245871,0.88624 -19.447448,4.49287 -1.334809,-4.15725 8.374372,-18.65964 21.536128,-11.88062 z"
           id="path3853"
           sodipodi:nodetypes="cscs" />
        <path
           d="m 45.349458,145.51367 c 2.806868,-0.058 6.35568,-3.8137 11.311144,-1.68767 3.169554,1.35981 7.317368,-11.89097 0.639933,-11.05551 -8.46767,1.05944 -12.611816,8.44126 -11.951077,12.74318 z"
           id="path3855"
           sodipodi:nodetypes="cssc" />
      </g>
      <path
         sodipodi:nodetypes="ccccccccccccccccccccccccccccccccc"
         id="teeth"
         d="m 104.54657,94.642917 c 1.45081,-2.774084 0.13284,-1.972308 3.81953,-4.942005 l 2.0491,-0.179273 2.24022,-1.625457 1.89147,-0.165483 1.25313,-2.015583 2.4057,0.266014 1.56837,-2.043164 3.02241,0.05324 1.82519,-1.589147 2.66312,0.243492 1.76838,-1.023162 2.27465,0.03413 1.92498,-1.597877 3.81052,-0.01572 2.24023,-1.625458 4.54347,-0.715159 -0.41173,1.889483 c -0.6953,0.06083 -1.45785,1.133012 -2.41343,1.216613 l -3.23152,0.282722 -4.99468,2.819412 -1.48756,-0.663997 -1.60974,1.570289 -2.6047,-0.725089 -1.41074,2.029373 -3.36524,-0.340901 -1.73978,1.899331 -3.33766,-0.02565 -2.34268,2.269736 -2.06289,0.02165 -2.11018,1.296424 -1.72006,0.309314 c -3.96154,2.358422 -2.73755,0.929563 -4.45788,3.091905 z"
         style="fill:#000000;stroke:none;" />
      <path
         style="fill:#e20909;stroke:#000000;stroke-width:1.6;"
         d="m 129.70863,84.29158 c 11.66177,-0.06792 11.93346,5.105744 11.91872,8.767724 1.49868,-0.7843 1.75712,-3.189585 1.89639,-4.182253 2.83939,0.936656 3.50552,3.719179 5.22049,5.940554 1.49835,-9.051304 -7.77731,-12.212114 -15.64347,-12.614818"
         id="tongue"
         sodipodi:nodetypes="ccccc" />
      <g
         id="eye">
        <path
           sodipodi:nodetypes="cscscc"
           id="path3531"
           d="m 103.45929,80.041588 c 6.40578,-3.440135 9.01095,-1.819271 12.82429,-4.085835 2.74698,-1.632724 6.43578,-0.747078 11.18366,-1.846956 -2.4946,0.180915 -9.64298,1.451685 -11.81292,-0.253818 -1.95883,-1.539576 -4.96754,-1.70897 -6.49031,0.933403 -1.00512,2.792485 -3.89954,3.869183 -5.70472,5.253206 z"
           style="fill:#ffffff;stroke:#000000;stroke-width:1.2;stroke-linecap:round;stroke-linejoin:round" />
        <path
           sodipodi:nodetypes="ccccsc"
           id="path3533"
           d="m 110.46889,74.440258 c 1.12759,0.391992 1.80454,0.952685 2.13871,1.641703 -1.1733,1.047164 -1.54367,0.02866 -2.91074,-0.155216 1.26755,0.878148 2.82338,3.184742 5.56153,-0.96724 -0.84011,-0.572654 -1.2326,-1.509202 -2.53733,-1.381313 -0.89475,0.08771 -1.55681,0.484585 -2.25217,0.862066 z"
           style="fill:#000000" />
      </g>
      <path
         sodipodi:nodetypes="cssc"
         id="neck_fold"
         d="m 93.856721,105.69845 c 0,0 3.254319,-3.29379 3.930634,-4.50893 0.879122,-1.579514 1.329196,-4.054423 1.400004,-5.860724 0.09298,-2.372034 -1.096162,-6.282619 -1.096162,-6.282619"
         style="fill:none;stroke:#000000;stroke-width:1.6;" />
      <g
         id="rear_left_claws"
         style="fill:#fff;stroke:#000000;stroke-width:1.6;">
        <path
           sodipodi:nodetypes="cscc"
           id="path3839"
           d="m 170.40768,156.57334 c -3.44532,-5.24285 -7.45662,-4.28768 -10.10405,-1.19916 -8.8118,10.27991 -6.61662,20.4523 -1.78588,21.73563 2.3004,-9.34738 5.76506,-16.94311 11.88993,-20.53647 z" />
        <path
           sodipodi:nodetypes="cccc"
           id="path3841"
           d="m 170.33313,156.61736 c 2.63174,0.39128 5.87423,1.37964 6.47072,6.17129 -9.76912,3.09897 -8.98911,14.05292 -13.26799,16.23049 -2.9735,-8.51039 0.19422,-15.79807 6.79727,-22.40178 z" />
        <path
           sodipodi:nodetypes="cccc"
           id="path3843"
           d="m 177.03942,162.55038 c -4.20436,2.28071 -8.43942,8.9682 -3.35219,15.8229 2.04238,-3.74619 2.6315,-8.71181 8.2071,-9.49327 0.28456,-3.42969 -0.0277,-6.44542 -4.85491,-6.32963 z" />
      </g>
      <g
         transform="matrix(0.7989036,-4.1868761e-2,4.1868761e-2,0.7989036,-90.665366,48.132728)"
         style="fill:#fcef3c;stroke:#000000;stroke-width:4.64206982;"
         id="crown">
         <g
            transform="matrix(0.332578,-5.6655083e-2,5.5673587e-2,0.3044697,-41.19916,117.0278)"
            id="g5578">
         <path
            d="M 831.48787,-144.65208 L 846.9486,-94.80867 C 878.82512,-100.27103 910.31972,-99.990099 941.04722,-88.183776 L 967.24152,-135.43444 L 943.21822,-126.96181 C 944.90472,-118.44025 944.84982,-110.78676 940.32452,-106.77287 C 936.50732,-103.38668 924.98996,-106.06055 922.63186,-115.66057 C 918.62286,-106.92529 909.25737,-109.83464 905.27152,-113.0079 C 901.75362,-115.12988 900.62302,-122.22045 903.63892,-125.52631 L 910.50672,-133.05135 L 898.75352,-145.84421 L 884.56375,-135.9178 L 891.01317,-125.66323 C 893.54197,-121.64063 890.23864,-115.32316 887.43236,-113.19891 C 884.5047,-110.98469 875.45058,-109.24749 870.90631,-119.27757 C 867.92809,-111.83545 855.49424,-107.48173 851.62875,-109.96106 C 846.71325,-113.11498 851.88802,-131.76309 851.88802,-131.76309 L 831.48787,-144.65208 z"
            id="path5580"
            sodipodi:nodetypes="cccccscccccccscscc" />
         <path
            d="M 846.9486,-94.80867 L 844.35797,-77.503588 C 880.32772,-86.154587 912.60765,-83.138016 940.18236,-71.502251 L 941.04722,-88.183776 C 906.22893,-100.46703 876.36678,-99.174954 846.9486,-94.80867 z"
            id="path5582"
            sodipodi:nodetypes="ccccc" />
         </g>
         <path
            sodipodi:type="arc"
            style="stroke-width:5.82140493;"
            id="path5584"
            sodipodi:cx="837.28265"
            sodipodi:cy="40.385532"
            sodipodi:rx="6.1716166"
            sodipodi:ry="6.0924931"
            d="M 843.45427,40.385532 A 6.1716166,6.0924931 0 1 1 831.11104,40.385532 A 6.1716166,6.0924931 0 1 1 843.45427,40.385532 z"
            transform="matrix(0.2427615,-2.5515232e-2,2.8431279e-2,0.2705053,54.627196,38.331789)"
            inkscape:transform-center-x="14.242192" />
         <path
            inkscape:transform-center-x="14.242192"
            transform="matrix(0.2427615,-2.5515232e-2,2.8431279e-2,0.2705053,37.223048,40.161037)"
            d="M 843.45427,40.385532 A 6.1716166,6.0924931 0 1 1 831.11104,40.385532 A 6.1716166,6.0924931 0 1 1 843.45427,40.385532 z"
            sodipodi:ry="6.0924931"
            sodipodi:rx="6.1716166"
            sodipodi:cy="40.385532"
            sodipodi:cx="837.28265"
            id="path5586"
            style="stroke-width:5.82140493;"
            sodipodi:type="arc" />
      </g>
    </g>
  </g>
</svg>
